<svg width="40" height="44" viewBox="0 0 40 44" fill="none" xmlns="http://www.w3.org/2000/svg">
<path d="M19.8599 1.00362C17.3372 1.05923 14.8868 1.74925 12.8039 2.98991C10.7213 4.23092 9.09523 5.96954 8.12187 7.99673C6.76561 10.8204 6.1167 13.8633 6.21874 16.9222C6.25948 18.1597 6.8306 19.3387 7.8194 20.2278C8.80817 21.1169 10.1435 21.6519 11.5621 21.7274C12.8974 21.798 14.2372 21.7747 15.5684 21.6577V21.961C15.5688 22.5762 15.3563 23.177 14.9588 23.6852C14.5613 24.1937 13.9972 24.5862 13.3398 24.8112L4.798 27.7387C3.73471 28.1034 2.82186 28.7384 2.1784 29.5608C1.53497 30.3835 1.19104 31.3557 1.19104 32.3509V41.4793C1.19067 41.8827 1.37456 42.2694 1.70233 42.5545C2.02973 42.8399 2.47385 43 2.9371 43H37.445C37.9078 43 38.3523 42.8399 38.6798 42.5545C39.0072 42.2694 39.191 41.8827 39.191 41.4793V32.3509C39.191 31.3557 38.8471 30.3838 38.2041 29.5611C37.561 28.7384 36.6481 28.1038 35.5852 27.7388L27.0423 24.8113H27.0419C26.3849 24.586 25.8212 24.1938 25.424 23.6853C25.0265 23.1768 24.8143 22.5759 24.8147 21.9611V21.6578C26.1456 21.7747 27.4853 21.7981 28.8206 21.7274C30.2393 21.6517 31.5742 21.1167 32.563 20.2276C33.5514 19.3385 34.1222 18.1595 34.1632 16.9223C34.2653 13.8631 33.6163 10.8202 32.2601 7.99682C31.2431 5.87913 29.515 4.07816 27.3024 2.83044C25.0895 1.5824 22.4957 0.945775 19.8603 1.00362H19.8599ZM20.4989 1.75564V1.75596C22.8553 1.80773 25.1443 2.45205 27.0896 3.61093C29.0353 4.76979 30.5545 6.39403 31.464 8.28762C32.7733 11.0129 33.3995 13.9496 33.3011 16.9022C33.2659 17.9521 32.7814 18.9521 31.9423 19.7063C31.1036 20.4609 29.971 20.9148 28.7674 20.979C27.6993 21.0349 26.6282 21.0289 25.5613 20.9601C27.3098 19.498 28.5498 17.6363 29.1392 15.589C29.2423 15.2361 29.3003 14.875 29.3124 14.5113C29.3569 13.0101 29.2416 11.5087 28.9674 10.0264C28.6808 9.04456 28.0274 8.17336 27.1098 7.55008C26.1921 6.92679 25.0632 6.58709 23.8996 6.58389C23.381 6.58325 22.8888 6.78333 22.5566 7.13009C20.031 9.76036 16.1109 11.0513 12.2188 10.5339C11.9876 10.5029 11.7516 10.5556 11.5655 10.6793C11.3794 10.8033 11.2594 10.9877 11.2329 11.1903C11.0909 12.2927 11.0362 13.4023 11.0685 14.5113C11.0791 14.8747 11.1357 15.2362 11.2373 15.589C11.8272 17.6367 13.0681 19.4983 14.8171 20.9602C13.7508 21.0286 12.6806 21.035 11.6136 20.979C10.4093 20.9154 9.27586 20.4619 8.43649 19.7073C7.5967 18.9531 7.1118 17.9524 7.07657 16.9022C6.97856 13.9494 7.60511 11.0123 8.91467 8.28764C9.86492 6.30929 11.4796 4.62695 13.5468 3.46138C15.6139 2.29613 18.0372 1.70132 20.4993 1.75597L20.4989 1.75564ZM23.893 7.33462V7.33494C24.8582 7.33813 25.7957 7.61842 26.5592 8.13298C27.323 8.64722 27.8702 9.36662 28.1165 10.1797C28.3786 11.6052 28.4898 13.0487 28.4483 14.4918C28.4391 14.8002 28.3907 15.1067 28.3044 15.4058C27.5046 18.1841 25.4345 20.5568 22.5749 21.9723C21.0949 22.7042 19.2821 22.7042 17.8022 21.9723C14.9425 20.5568 12.872 18.1841 12.0726 15.4058C11.9867 15.1067 11.9386 14.8002 11.9298 14.4918C11.8986 13.4179 11.9522 12.3434 12.0899 11.2756C16.2797 11.832 20.4988 10.4424 23.217 7.61074C23.3858 7.43496 23.6361 7.33396 23.8993 7.33492L23.893 7.33462ZM16.4237 22.1027V22.103C16.7323 22.2884 17.0502 22.4619 17.3762 22.6233C19.1211 23.4872 21.2595 23.4872 23.0041 22.6233C23.3296 22.4619 23.6468 22.2884 23.9547 22.103C23.9859 22.8435 24.2645 23.5601 24.7559 24.1647C25.2478 24.7697 25.9312 25.2367 26.7226 25.5083L26.8309 25.5432L20.1929 31.2656L13.556 25.5432L13.6532 25.5083H13.6536C14.4453 25.2367 15.1291 24.7698 15.6206 24.1651C16.1125 23.5601 16.3914 22.8435 16.4226 22.103L16.4237 22.1027ZM12.675 25.843L19.661 31.8636C19.6911 31.8898 19.7234 31.9138 19.7582 31.9352V42.2491H2.93511C2.70021 42.2495 2.47485 42.1686 2.3082 42.0241C2.14194 41.8797 2.0487 41.6834 2.0487 41.4789V32.3505C2.04834 31.5055 2.34051 30.6803 2.88667 29.982C3.43283 29.2837 4.20797 28.7448 5.11058 28.4355L10.2066 26.6885V28.5824C9.57158 28.6591 8.97847 28.9023 8.50603 29.2798C8.03365 29.6572 7.70478 30.151 7.56311 30.6953L6.07953 36.3883C5.97896 36.7757 6.10118 37.1809 6.40693 37.4753C6.78939 37.8434 7.2816 38.1119 7.82887 38.2513C7.97055 38.6031 8.36953 38.8256 8.79566 38.7907C9.22217 38.7559 9.56645 38.4727 9.63031 38.1042C9.69454 37.7354 9.4622 37.3762 9.06653 37.2331C8.67123 37.0899 8.21463 37.1995 7.95993 37.4993C7.60904 37.3932 7.29485 37.2123 7.04489 36.9732C6.92671 36.8598 6.87936 36.7035 6.91863 36.5539L8.39892 30.8609C8.55197 30.2661 9.00858 29.7647 9.63876 29.4997C10.269 29.2344 11.0038 29.2344 11.634 29.4997C12.2645 29.7646 12.7211 30.2661 12.8742 30.8609L14.3566 36.5539H14.3563C14.3955 36.7035 14.3482 36.8598 14.23 36.9732C13.98 37.2126 13.6651 37.3932 13.3142 37.4993C13.0591 37.1995 12.6025 37.0899 12.2073 37.2331C11.8119 37.3762 11.5792 37.7355 11.6435 38.1042C11.7077 38.4727 12.052 38.7559 12.4781 38.7907C12.9046 38.8256 13.3032 38.6031 13.4449 38.2513C13.9918 38.1119 14.4837 37.8431 14.8657 37.4753C15.1715 37.1809 15.2937 36.7757 15.1935 36.3883L13.7088 30.6953C13.5671 30.1513 13.2382 29.6575 12.7662 29.2801C12.2946 28.9026 11.7018 28.6594 11.0672 28.5824V26.3941L12.675 25.843ZM27.7016 25.843L30.2988 26.7331V30.5743L30.2984 30.5747C29.1489 30.7028 28.1546 31.334 27.6623 32.2477C27.17 33.1615 27.2486 34.2308 27.87 35.0826C28.4918 35.9343 29.5706 36.4501 30.7293 36.4501C31.8885 36.4501 32.9672 35.9343 33.5886 35.0826C34.2104 34.2308 34.2886 33.1615 33.7967 32.2477C33.3045 31.334 32.3099 30.7028 31.1602 30.5747V27.0293L35.27 28.4362V28.4359C36.1729 28.7452 36.9477 29.2844 37.4939 29.9824C38.04 30.6807 38.3322 31.5059 38.3322 32.3509V41.4793C38.3322 41.6842 38.2386 41.8804 38.072 42.0249C37.9054 42.1697 37.6796 42.2505 37.4447 42.2499H20.6225V31.9351C20.657 31.9137 20.6897 31.8897 20.7198 31.8635L27.7016 25.843ZM30.6574 31.3008C31.3401 31.2839 32.0015 31.5079 32.4911 31.9221C32.9808 32.3366 33.2568 32.9058 33.2568 33.5003C33.2568 34.2862 32.7752 35.0126 31.9935 35.4057C31.2117 35.7988 30.2486 35.7988 29.4663 35.4057C28.6845 35.0126 28.203 34.2861 28.203 33.5003C28.203 32.9276 28.4596 32.3775 28.9176 31.9669C29.3761 31.5562 30 31.3174 30.6574 31.3008Z" fill="#D69C47"/>
<path d="M30.6577 31.3008H30.6574M30.6574 31.3008C31.3401 31.2839 32.0015 31.5079 32.4911 31.9221C32.9808 32.3366 33.2568 32.9058 33.2568 33.5003C33.2568 34.2862 32.7752 35.0126 31.9935 35.4057C31.2117 35.7988 30.2486 35.7988 29.4663 35.4057C28.6845 35.0126 28.203 34.2861 28.203 33.5003C28.203 32.9276 28.4596 32.3775 28.9176 31.9669C29.3761 31.5562 30 31.3174 30.6574 31.3008ZM19.8599 1.00362C17.3372 1.05923 14.8868 1.74925 12.8039 2.98991C10.7213 4.23092 9.09523 5.96954 8.12187 7.99673C6.76561 10.8204 6.1167 13.8633 6.21874 16.9222C6.25948 18.1597 6.8306 19.3387 7.8194 20.2278C8.80817 21.1169 10.1435 21.6519 11.5621 21.7274C12.8974 21.798 14.2372 21.7747 15.5684 21.6577V21.961C15.5688 22.5762 15.3563 23.177 14.9588 23.6852C14.5613 24.1937 13.9972 24.5862 13.3398 24.8112L4.798 27.7387C3.73471 28.1034 2.82186 28.7384 2.1784 29.5608C1.53497 30.3835 1.19104 31.3557 1.19104 32.3509V41.4793C1.19067 41.8827 1.37456 42.2694 1.70233 42.5545C2.02973 42.8399 2.47385 43 2.9371 43H37.445C37.9078 43 38.3523 42.8399 38.6798 42.5545C39.0072 42.2694 39.191 41.8827 39.191 41.4793V32.3509C39.191 31.3557 38.8471 30.3838 38.2041 29.5611C37.561 28.7384 36.6481 28.1038 35.5852 27.7388L27.0423 24.8113H27.0419C26.3849 24.586 25.8212 24.1938 25.424 23.6853C25.0265 23.1768 24.8143 22.5759 24.8147 21.9611V21.6578C26.1456 21.7747 27.4853 21.7981 28.8206 21.7274C30.2393 21.6517 31.5742 21.1167 32.563 20.2276C33.5514 19.3385 34.1222 18.1595 34.1632 16.9223C34.2653 13.8631 33.6164 10.8202 32.2601 7.99682C31.2431 5.87913 29.515 4.07816 27.3024 2.83044C25.0895 1.5824 22.4957 0.945775 19.8603 1.00362H19.8599ZM20.4989 1.75564V1.75596C22.8553 1.80773 25.1443 2.45205 27.0896 3.61093C29.0353 4.76979 30.5545 6.39403 31.464 8.28762C32.7733 11.0129 33.3995 13.9496 33.3011 16.9022C33.2659 17.9521 32.7814 18.9521 31.9423 19.7063C31.1036 20.4609 29.971 20.9148 28.7674 20.979C27.6993 21.0349 26.6282 21.0289 25.5613 20.9601C27.3098 19.498 28.5498 17.6363 29.1392 15.589C29.2423 15.2361 29.3003 14.875 29.3124 14.5113C29.3569 13.0101 29.2416 11.5087 28.9674 10.0264C28.6808 9.04456 28.0274 8.17336 27.1098 7.55008C26.1921 6.92679 25.0632 6.58709 23.8996 6.58389C23.381 6.58326 22.8888 6.78333 22.5566 7.13009C20.031 9.76036 16.1109 11.0513 12.2188 10.5339C11.9876 10.5029 11.7516 10.5556 11.5655 10.6793C11.3794 10.8033 11.2594 10.9877 11.2329 11.1903C11.0909 12.2927 11.0362 13.4023 11.0685 14.5113C11.0791 14.8747 11.1357 15.2362 11.2373 15.589C11.8272 17.6367 13.0681 19.4983 14.8171 20.9602C13.7508 21.0286 12.6806 21.035 11.6136 20.979C10.4093 20.9154 9.27586 20.4619 8.43649 19.7073C7.5967 18.9531 7.1118 17.9524 7.07657 16.9022C6.97856 13.9494 7.60511 11.0123 8.91467 8.28764C9.86492 6.30929 11.4796 4.62695 13.5468 3.46138C15.6139 2.29613 18.0372 1.70132 20.4993 1.75597L20.4989 1.75564ZM23.893 7.33462V7.33494C24.8582 7.33813 25.7957 7.61842 26.5592 8.13298C27.323 8.64722 27.8702 9.36662 28.1165 10.1797C28.3786 11.6052 28.4898 13.0487 28.4483 14.4918C28.4391 14.8002 28.3907 15.1067 28.3044 15.4058C27.5046 18.1841 25.4345 20.5568 22.5749 21.9723C21.0949 22.7042 19.2821 22.7042 17.8022 21.9723C14.9425 20.5568 12.872 18.1841 12.0726 15.4058C11.9867 15.1067 11.9386 14.8002 11.9298 14.4918C11.8986 13.4179 11.9522 12.3434 12.0899 11.2756C16.2797 11.832 20.4988 10.4424 23.217 7.61074C23.3858 7.43496 23.6361 7.33396 23.8993 7.33492L23.893 7.33462ZM16.4237 22.1027V22.103C16.7323 22.2884 17.0502 22.4619 17.3762 22.6233C19.1211 23.4872 21.2595 23.4872 23.0041 22.6233C23.3296 22.4619 23.6468 22.2884 23.9547 22.103C23.9859 22.8435 24.2645 23.5601 24.7559 24.1647C25.2478 24.7697 25.9312 25.2367 26.7226 25.5083L26.8309 25.5432L20.1929 31.2656L13.556 25.5432L13.6532 25.5083H13.6536C14.4453 25.2367 15.1291 24.7698 15.6206 24.1651C16.1125 23.5601 16.3914 22.8435 16.4226 22.103L16.4237 22.1027ZM12.675 25.843L19.661 31.8636C19.6911 31.8898 19.7234 31.9138 19.7582 31.9352V42.2491H2.93511C2.70021 42.2495 2.47485 42.1686 2.3082 42.0241C2.14194 41.8797 2.0487 41.6834 2.0487 41.4789V32.3505C2.04834 31.5055 2.34051 30.6803 2.88667 29.982C3.43283 29.2837 4.20797 28.7448 5.11058 28.4355L10.2066 26.6885V28.5824C9.57158 28.6591 8.97847 28.9023 8.50603 29.2798C8.03365 29.6572 7.70478 30.151 7.56311 30.6953L6.07953 36.3883C5.97896 36.7757 6.10118 37.1809 6.40693 37.4753C6.78939 37.8434 7.2816 38.1119 7.82887 38.2513C7.97055 38.6031 8.36953 38.8256 8.79566 38.7907C9.22217 38.7559 9.56645 38.4727 9.63031 38.1042C9.69454 37.7354 9.4622 37.3762 9.06653 37.2331C8.67123 37.0899 8.21463 37.1995 7.95993 37.4993C7.60904 37.3932 7.29485 37.2123 7.04489 36.9732C6.92671 36.8598 6.87936 36.7035 6.91863 36.5539L8.39892 30.8609C8.55197 30.2661 9.00858 29.7647 9.63876 29.4997C10.269 29.2344 11.0038 29.2344 11.634 29.4997C12.2645 29.7646 12.7211 30.2661 12.8742 30.8609L14.3566 36.5539H14.3563C14.3955 36.7035 14.3482 36.8598 14.23 36.9732C13.98 37.2126 13.6651 37.3932 13.3142 37.4993C13.0591 37.1995 12.6025 37.0899 12.2073 37.2331C11.8119 37.3762 11.5792 37.7355 11.6435 38.1042C11.7077 38.4727 12.052 38.7559 12.4781 38.7907C12.9046 38.8256 13.3032 38.6031 13.4449 38.2513C13.9918 38.1119 14.4837 37.8431 14.8657 37.4753C15.1715 37.1809 15.2937 36.7757 15.1935 36.3883L13.7088 30.6953C13.5671 30.1513 13.2382 29.6575 12.7662 29.2801C12.2946 28.9026 11.7018 28.6594 11.0672 28.5824V26.3941L12.675 25.843ZM27.7016 25.843L30.2988 26.7331V30.5743L30.2984 30.5747C29.1489 30.7028 28.1546 31.334 27.6623 32.2477C27.17 33.1615 27.2486 34.2308 27.87 35.0826C28.4918 35.9343 29.5706 36.4501 30.7293 36.4501C31.8885 36.4501 32.9672 35.9343 33.5886 35.0826C34.2104 34.2308 34.2886 33.1615 33.7967 32.2477C33.3045 31.334 32.3099 30.7028 31.1602 30.5747V27.0293L35.27 28.4362V28.4359C36.1729 28.7452 36.9477 29.2844 37.4939 29.9824C38.04 30.6807 38.3322 31.5059 38.3322 32.3509V41.4793C38.3322 41.6842 38.2386 41.8804 38.072 42.0249C37.9054 42.1697 37.6796 42.2505 37.4447 42.2499H20.6225V31.9351C20.657 31.9137 20.6897 31.8897 20.7198 31.8635L27.7016 25.843Z" stroke="#D69C47"/>
</svg>
