<svg width="41" height="41" viewBox="0 0 41 41" fill="none" xmlns="http://www.w3.org/2000/svg">
<path d="M20.3738 0.0126953C9.12127 0.0126953 0 9.13323 0 20.3856C0 31.6379 9.12165 40.7584 20.3729 40.7584C31.6235 40.7584 40.7467 31.6379 40.7467 20.3856C40.7467 9.13323 31.6261 0.0126953 20.3738 0.0126953ZM30.1259 12.9206L20.7088 21.6598C20.3676 21.9755 19.8989 21.9598 19.5584 21.6434L10.1404 12.9206L30.1259 12.9206ZM30.5261 25.6381V28.7167C30.5261 29.0826 30.4229 29.3436 30.0573 29.3436H9.89443C9.52847 29.3436 8.87779 29.0823 8.87779 28.7167V25.6381L8.87743 15.2851L18.5688 23.7958C18.9443 24.1429 19.6557 24.3342 20.1297 24.3342C20.6036 24.3342 21.0081 24.1432 21.3832 23.7958L30.5257 15.2851L30.5261 25.6381Z" fill="#6D9AE4"/>
</svg>
