<svg width="41" height="41" viewBox="0 0 41 41" fill="none" xmlns="http://www.w3.org/2000/svg">
<circle cx="20.3733" cy="20.3865" r="20.3733" fill="#6D9AE4"/>
<path d="M20.5173 6.67969C14.3506 6.67969 9.3335 11.5618 9.3335 17.5628C9.3335 17.6268 9.3335 17.7042 9.3364 17.7894C9.33661 17.8247 9.33744 17.8592 9.33889 17.8932C9.37791 19.1892 9.64809 20.4457 10.1428 21.6346V21.6858L10.1443 21.6885V21.701L10.3421 22.0807C10.4574 22.3024 10.5871 22.5213 10.727 22.7309C11.1304 23.3337 11.7258 24.1395 12.4971 25.1263L12.5826 25.2356L12.5857 25.2383C14.7873 28.0455 17.9157 31.6978 19.17 33.1513L20.4894 34.6797L21.8151 33.1569C23.0942 31.6875 26.3103 27.9629 28.5428 25.1234C29.3175 24.1401 29.8902 23.3713 30.2926 22.7745C30.4059 22.6064 30.5126 22.4312 30.6097 22.2538L30.6317 22.2135L30.6516 22.1722C31.2923 20.8423 31.6436 19.4183 31.6956 17.9397L31.6967 17.909V17.9023C31.7004 17.7988 31.7023 17.6873 31.7023 17.563C31.7021 11.5621 26.6845 6.67988 20.5168 6.67988L20.5173 6.67969ZM29.947 17.8683V17.8779C29.9026 19.1391 29.5952 20.333 29.0752 21.4127C29.003 21.5447 28.925 21.6725 28.8416 21.7964C28.4398 22.3929 27.8515 23.1735 27.1673 24.0416C24.9215 26.8979 21.6343 30.6992 20.4953 32.0077C19.3648 30.698 16.1165 26.9127 13.8792 24.0512L13.8765 24.0485C13.184 23.1628 12.5888 22.3659 12.1829 21.7587C12.0785 21.6026 11.9824 21.441 11.8951 21.2727C11.8951 21.2712 11.8936 21.27 11.8936 21.2687C11.407 20.212 11.1233 19.0491 11.0884 17.8254C11.087 17.8011 11.087 17.7768 11.087 17.7513C11.0843 17.6893 11.0843 17.6262 11.0843 17.5629C11.0843 12.5191 15.3075 8.42965 20.5177 8.42965C25.7281 8.42965 29.9526 12.519 29.9526 17.5629C29.9526 17.6652 29.9512 17.7675 29.947 17.8683L29.947 17.8683Z" fill="white"/>
<path d="M20.5177 12.7812C17.8639 12.7812 15.7051 14.9401 15.7051 17.5938C15.7051 20.2476 17.8639 22.4064 20.5177 22.4064C23.1714 22.4064 25.3302 20.2476 25.3302 17.5938C25.3302 14.9403 23.1712 12.7812 20.5177 12.7812ZM20.5177 20.6565C18.8264 20.6565 17.4551 19.2854 17.4551 17.5939C17.4551 15.9027 18.8262 14.5314 20.5177 14.5314C22.2089 14.5314 23.5802 15.9025 23.5802 17.5939C23.5802 19.2852 22.2089 20.6565 20.5177 20.6565Z" fill="white"/>
<path d="M20.5177 20.6565C18.8264 20.6565 17.4551 19.2854 17.4551 17.5939C17.4551 15.9027 18.8262 14.5314 20.5177 14.5314C22.2089 14.5314 23.5802 15.9025 23.5802 17.5939C23.5802 19.2852 22.2089 20.6565 20.5177 20.6565Z" fill="white"/>
</svg>
