<svg width="41" height="41" viewBox="0 0 41 41" fill="none" xmlns="http://www.w3.org/2000/svg">
<path d="M20.3751 0.0124512C9.0766 0.0124512 0 9.08906 0 20.3876C0 31.6861 9.07581 40.7627 20.3751 40.7627C31.6736 40.7627 40.7502 31.6869 40.7502 20.3876C40.7502 9.08906 31.6736 0.0124512 20.3751 0.0124512ZM27.9695 31.8719C24.8205 32.6126 21.6719 31.5013 21.6719 31.5013C18.523 29.2786 16.4857 26.6853 15.3743 24.8332L15.0041 24.4629C13.8927 22.6108 11.8551 19.6469 10.9292 15.757C10.9292 15.757 11.2998 12.423 13.1519 9.82969C15.3746 8.16265 16.486 9.08889 16.486 9.08889L19.4495 13.3492C19.8201 13.9049 19.6346 14.6457 19.079 15.0162L17.0414 16.3127C17.0414 16.3127 15.1892 16.8684 18.7084 22.24C22.2276 27.4263 23.1538 25.7592 23.1538 25.7592L25.1914 24.4627C25.7471 24.0922 26.4879 24.2776 26.8584 24.8333L29.822 29.0936C29.8216 28.9079 30.1922 30.3898 27.9695 31.8717L27.9695 31.8719Z" fill="#6D9AE4"/>
</svg>
