<svg width="26" height="43" viewBox="0 0 26 43" fill="none" xmlns="http://www.w3.org/2000/svg">
<path d="M10.025 0.886694C10.025 0.886394 10.0247 0.886394 10.0247 0.886094C9.81386 -0.146882 7.45637 -0.162469 5.35471 0.260426C3.67414 0.598453 1.89136 1.27574 1.4087 2.07775C1.37631 2.08285 1.34391 2.08765 1.31152 2.09515C0.449774 2.29281 -0.103916 3.15515 0.077294 4.01652L0.739857 7.44692L0.274053 7.54081C0.185275 7.5588 0.107286 7.61129 0.0569005 7.68657C0.00681121 7.76216 -0.0111857 7.85454 0.00681092 7.94332L0.481912 10.2849C0.514906 10.4466 0.657072 10.5585 0.816046 10.5585C0.838241 10.5585 0.861037 10.5564 0.883831 10.5516L1.31814 10.464C1.62737 12.177 1.78634 13.9238 1.78634 15.6628V16.5869C1.78634 16.7753 1.93901 16.9282 2.12767 16.9282H2.12917V39.5396C1.71076 39.8842 1.44381 40.405 1.44381 40.9868V42.6575C1.44381 42.8459 1.59648 42.9988 1.78514 42.9988H4.8694C5.05776 42.9988 5.21073 42.8462 5.21073 42.6575L5.21043 40.9868C5.21043 40.405 4.94348 39.8843 4.52507 39.5396V16.9275H4.52657C4.71493 16.9275 4.8679 16.7748 4.8679 16.5861V15.662C4.8679 15.6 4.8661 15.5379 4.8658 15.4755L8.97014 14.8717C9.33277 14.8186 9.6528 14.6273 9.87082 14.3336C10.088 14.0412 10.1783 13.6819 10.1249 13.3216C10.0145 12.5772 9.31687 12.0597 8.57029 12.1708L4.72357 12.7365C4.63298 11.8141 4.50042 10.8957 4.32525 9.98781L4.30095 9.86244L4.78715 9.76466C4.87593 9.74697 4.95392 9.69448 5.0043 9.61889C5.05439 9.54331 5.07239 9.45093 5.05439 9.36214L4.57929 7.02054C4.5418 6.83608 4.36244 6.7167 4.17767 6.75389L3.71877 6.84627L3.5271 5.85468C3.68937 5.86578 3.86003 5.87117 4.03789 5.87117C4.75414 5.87117 5.58555 5.7827 6.44008 5.61083C8.3636 5.22361 9.90105 4.52956 10.3573 3.84242C10.5271 3.58657 10.5289 3.36642 10.5007 3.22635L10.025 0.886694ZM5.48969 0.929285C6.53587 0.718728 7.53829 0.638949 8.31358 0.704031C9.13179 0.773017 9.34686 0.975478 9.35646 1.02226C9.35826 1.03036 9.35346 1.06455 9.31327 1.12484C9.01783 1.56995 7.7266 2.21993 5.83011 2.6014C4.71705 2.82545 3.65643 2.90073 2.87899 2.81405C2.76862 2.60319 2.60605 2.42233 2.39999 2.28826C2.3397 2.24896 2.27671 2.21627 2.21283 2.18718C2.69573 1.79276 3.85112 1.25892 5.48969 0.929285ZM4.18528 15.6626V16.2454H2.46877V15.6626C2.46877 14.9317 2.44118 14.1995 2.38719 13.4686H4.10132C4.15651 14.1992 4.18528 14.9317 4.18528 15.6626ZM3.84276 37.4033H2.81154V36.3796H3.84276V37.4033ZM4.52811 42.3157H2.12623V40.9866C2.12623 40.328 2.66492 39.7922 3.32721 39.7922C3.98951 39.7922 4.52819 40.3279 4.52819 40.9866L4.52811 42.3157ZM3.32713 39.1096C3.14837 39.1096 2.97561 39.1351 2.81154 39.1816V38.0857H3.84276V39.1816C3.67869 39.1351 3.5059 39.1096 3.32713 39.1096ZM3.84272 35.697H2.81151V16.9271H3.84272V35.697ZM8.6693 12.8468C9.04452 12.791 9.39424 13.0498 9.44942 13.4224C9.47612 13.6017 9.43112 13.7811 9.32255 13.9272C9.21307 14.0744 9.05261 14.1701 8.87055 14.1971L4.85351 14.788C4.84001 14.3312 4.81662 13.8746 4.78212 13.4185L8.6693 12.8468ZM3.65491 10.1183C3.82497 10.9995 3.95365 11.8909 4.04213 12.7862H2.32946C2.24998 11.9623 2.1345 11.1423 1.98724 10.3291L3.63149 9.99828L3.65491 10.1183ZM4.31717 9.16415L1.52776 9.72563H1.52746C1.52716 9.72563 1.52716 9.72563 1.52716 9.72593L1.08326 9.81532L0.743725 8.14227L1.20353 8.04989H1.20413C1.20443 8.04989 1.20443 8.04959 1.20473 8.04959L3.51278 7.58498H3.51308C3.51338 7.58498 3.51338 7.58498 3.51368 7.58468L3.97769 7.49141L4.31717 9.16415ZM1.40898 7.31235L0.74821 3.89069L0.745511 3.8769C0.640232 3.376 0.962664 2.87479 1.46416 2.75992C1.66003 2.71553 1.85978 2.75062 2.02744 2.8601C2.19391 2.96868 2.30639 3.13514 2.34358 3.3295L3.04903 6.98212L1.40898 7.31235ZM9.78842 3.46623C9.49298 3.91134 8.20176 4.56133 6.30527 4.9431C5.22637 5.16025 4.16192 5.23733 3.39223 5.15905L3.0749 3.51572C3.23026 3.52562 3.39253 3.53102 3.562 3.53102C4.27825 3.53102 5.11058 3.44254 5.9645 3.27067C7.53826 2.95394 8.85319 2.43173 9.52928 1.87597L9.83132 3.36366C9.83311 3.37176 9.82862 3.40595 9.78842 3.46623Z" fill="#D69C47"/>
<path d="M25.8789 7.68689C25.8288 7.6113 25.7505 7.55881 25.6617 7.54112L25.1959 7.44724L25.8561 4.02942L25.8585 4.01803C26.04 3.15543 25.4863 2.29277 24.6246 2.09543C24.5922 2.08793 24.5598 2.08343 24.5274 2.07803C24.0448 1.27602 22.2616 0.598405 20.5811 0.260401C18.4788 -0.16251 16.1204 -0.146915 15.9108 0.886668L15.4357 3.22828C15.4072 3.36805 15.409 3.5885 15.579 3.84434C16.0352 4.5315 17.5727 5.22554 19.4962 5.61276C20.3508 5.78462 21.1822 5.8731 21.8984 5.8731C22.0763 5.8731 22.247 5.8674 22.4092 5.85661L22.2176 6.8482L21.7587 6.75582C21.5739 6.71862 21.3942 6.838 21.357 7.02247L20.8819 9.36407C20.8639 9.45285 20.8819 9.54524 20.932 9.62082C20.9821 9.69641 21.0604 9.7489 21.1492 9.76659L21.6354 9.86437L21.6111 9.98974C21.4356 10.8976 21.3033 11.816 21.2128 12.7384L17.366 12.1727C16.6198 12.0623 15.9218 12.5791 15.8115 13.3235C15.7581 13.6835 15.8484 14.0428 16.0655 14.3356C16.2839 14.6292 16.6036 14.8205 16.9662 14.8736L21.0705 15.4774C21.0702 15.5395 21.0684 15.6016 21.0684 15.664V16.5881C21.0684 16.7764 21.2211 16.9294 21.4098 16.9294H21.4113V39.5408C20.9928 39.8854 20.7259 40.4061 20.7259 40.988V42.6587C20.7259 42.847 20.8786 43 21.0672 43H24.1515C24.3399 43 24.4928 42.8473 24.4928 42.6587L24.4919 40.9871C24.4919 40.4052 24.225 39.8845 23.8066 39.5399V16.9277H23.8081C23.9964 16.9277 24.1494 16.775 24.1494 16.5864V15.6623C24.1494 13.9233 24.3081 12.1764 24.6176 10.4635L25.0519 10.551C25.0747 10.5555 25.0972 10.5579 25.1197 10.5579C25.2787 10.5579 25.4208 10.4461 25.4538 10.2844L25.9289 7.94279C25.9469 7.85432 25.9289 7.76193 25.8788 7.68635L25.8789 7.68689ZM17.6223 0.704605C18.3973 0.639518 19.4003 0.719302 20.4462 0.929859C22.0844 1.25949 23.2398 1.79337 23.723 2.18781C23.6588 2.21721 23.5958 2.2499 23.5356 2.28889C23.3295 2.42296 23.1669 2.60383 23.0566 2.81469C22.2791 2.90137 21.2183 2.82608 20.1054 2.60203C18.2089 2.22051 16.9177 1.57021 16.6223 1.12547C16.5821 1.06519 16.5776 1.03099 16.5791 1.0229C16.589 0.976108 16.8044 0.773288 17.6223 0.704605ZM19.6307 4.94362C17.7342 4.5618 16.4429 3.9118 16.1475 3.46676C16.1073 3.40647 16.1028 3.37228 16.1043 3.36418L16.4063 1.87649C17.0824 2.43228 18.3977 2.95446 19.9711 3.2712C20.8253 3.44306 21.6574 3.53154 22.3736 3.53154C22.5431 3.53154 22.7056 3.52614 22.8607 3.51624L22.5434 5.15958C21.774 5.23786 20.7095 5.16048 19.6307 4.94362ZM23.5923 3.32993C23.6297 3.13557 23.7419 2.96911 23.9084 2.86053C24.0764 2.75135 24.2764 2.71596 24.4717 2.76035C24.9732 2.87552 25.2956 3.37641 25.19 3.87848L24.5266 7.31249L22.8865 6.98226L23.5923 3.32993ZM23.4669 15.663V16.2458H21.7506V15.663C21.7506 14.932 21.7794 14.1999 21.8343 13.469H23.5484C23.4947 14.1999 23.4669 14.9321 23.4669 15.663ZM17.0653 14.1975C16.883 14.1708 16.7225 14.0748 16.6133 13.9275C16.5047 13.7815 16.4597 13.6021 16.4864 13.4228C16.5416 13.0502 16.8908 12.792 17.2666 12.8472L21.1538 13.4189C21.1193 13.8751 21.0959 14.3316 21.0824 14.7884L17.0653 14.1975ZM23.1243 37.4039H22.0931V36.3803H23.1243V37.4039ZM23.8097 42.3164H21.4081L21.4078 40.9873C21.4078 40.3286 21.9465 39.7929 22.6088 39.7929C23.2711 39.7929 23.8098 40.3286 23.8098 40.9873L23.8097 42.3164ZM22.6087 39.1103C22.43 39.1103 22.2572 39.1358 22.0931 39.1823V38.0864H23.1243V39.1823C22.9603 39.1358 22.7875 39.1103 22.6087 39.1103ZM23.1243 35.6976H22.0931V16.9278H23.1243V35.6976ZM23.6063 12.7868H21.8936C21.9821 11.8915 22.1108 11.0004 22.2809 10.1189L22.304 9.9989L23.9482 10.3297C23.8012 11.1429 23.6858 11.9629 23.6063 12.7868ZM24.8525 9.81565L24.4086 9.72627C24.4083 9.72627 24.4083 9.72627 24.4083 9.72597H24.408L21.6186 9.16448L21.9581 7.49174L22.4221 7.58502C22.4224 7.58502 22.4224 7.58502 22.4227 7.58532H22.423L24.7311 8.04992C24.7314 8.04992 24.7314 8.05022 24.7317 8.05022H24.7323L25.1921 8.1426L24.8525 9.81565Z" fill="#D69C47"/>
</svg>
