<svg width="71" height="44" viewBox="0 0 71 44" fill="none" xmlns="http://www.w3.org/2000/svg">
<path d="M66.6994 0C67.6356 0 68.4887 0.244967 69.1346 0.672587C69.7811 1.10021 70.2359 1.74564 70.2359 2.49175V41.123C70.2359 41.8691 69.7806 42.5123 69.1346 42.94C68.4881 43.3676 67.6356 43.6126 66.6994 43.6126C65.7632 43.6126 64.9085 43.3676 64.2625 42.94C63.616 42.5124 63.1613 41.8696 63.1613 41.123V38.183H7.0773V41.0453C7.0773 41.8068 6.62678 42.4703 5.98029 42.9145C5.33379 43.3586 4.47795 43.6126 3.53865 43.6126C2.59935 43.6126 1.74348 43.3586 1.09702 42.9145C0.450523 42.4704 0 41.8068 0 41.0453V24.0452C0 23.2837 0.450523 22.6185 1.09702 22.1744C1.74351 21.7302 2.59935 21.4762 3.53865 21.4762C4.47795 21.4762 5.33382 21.7302 5.98029 22.1744C6.62678 22.6185 7.0773 23.2836 7.0773 24.0452V31.1253H63.1613V2.49229C63.1613 1.74621 63.6166 1.10079 64.2625 0.673133C64.909 0.245513 65.7632 0.000545012 66.6994 0.000545012V0ZM66.6994 0.882409C65.9198 0.882409 65.2243 1.09436 64.7503 1.40749C64.2769 1.72062 64.041 2.10298 64.041 2.49172V41.123C64.041 41.5117 64.2764 41.892 64.7503 42.2051C65.2237 42.5182 65.9192 42.7318 66.6994 42.7318C67.479 42.7318 68.175 42.5182 68.649 42.2051C69.1225 41.892 69.3557 41.5117 69.3557 41.123V2.49172C69.3557 2.10297 69.1225 1.72062 68.649 1.40749C68.1756 1.09436 67.4796 0.882409 66.6994 0.882409ZM34.2383 7.23393C38.2036 7.23393 41.4286 10.4536 41.4286 14.4135C41.4286 18.3734 38.2036 21.5905 34.2383 21.5905C30.2731 21.5905 27.0481 18.3734 27.0481 14.4135C27.0481 10.4536 30.2731 7.23393 34.2383 7.23393ZM34.2383 8.1142C30.7481 8.1142 27.929 10.9307 27.929 14.4135C27.929 17.8963 30.7482 20.7097 34.2383 20.7097C37.7286 20.7097 40.5483 17.8963 40.5483 14.4135C40.5483 10.9307 37.7285 8.1142 34.2383 8.1142ZM35.3812 9.61654C35.4983 9.61654 35.6107 9.6634 35.6932 9.74647C35.7758 9.82901 35.8216 9.94191 35.821 10.0585V12.832H38.5993C38.7164 12.8315 38.8288 12.8778 38.9119 12.9603C38.9949 13.0429 39.0413 13.1552 39.0413 13.2724V15.5511C39.0418 15.6688 38.9955 15.7817 38.9124 15.8648C38.8293 15.9479 38.7164 15.9942 38.5993 15.9937H35.8216V18.7644H35.8211C35.8216 18.8815 35.7758 18.9939 35.6932 19.077C35.6107 19.1601 35.4983 19.2069 35.3812 19.2069H33.0955C32.9783 19.2069 32.8665 19.1601 32.784 19.077C32.7014 18.9939 32.6551 18.8816 32.6556 18.7644V15.9937H29.8779C29.7608 15.9937 29.6484 15.9468 29.5659 15.8637C29.4833 15.7807 29.4375 15.6683 29.4375 15.5511V13.2724C29.4381 13.0296 29.6346 12.8325 29.8779 12.832H32.6556V10.0585C32.6551 9.94192 32.7014 9.82902 32.784 9.74647C32.8665 9.6634 32.9783 9.61654 33.0955 9.61654H35.3812ZM34.9413 10.4995H33.5364V13.2729V13.2724C33.5359 13.5158 33.3389 13.7128 33.0955 13.7128H30.3183V15.1113H33.0955C33.3389 15.1113 33.5359 15.3083 33.5364 15.5511V18.3246H34.9413V15.5511C34.9418 15.3083 35.1383 15.1118 35.3812 15.1113H38.1588V13.7128H35.3812C35.1383 13.7123 34.9413 13.5158 34.9413 13.2729V10.4995ZM3.53677 22.3552C2.75981 22.3552 2.06702 22.5746 1.59355 22.8995C1.12013 23.2249 0.880488 23.6264 0.880488 24.0439V41.044C0.880488 41.4615 1.12013 41.8614 1.59355 42.1868C2.06698 42.5122 2.7598 42.7305 3.53677 42.7305C4.31373 42.7305 5.00598 42.5122 5.47945 42.1868C5.95287 41.8614 6.19304 41.4615 6.19304 41.044V24.0439C6.19304 23.6264 5.95287 23.2243 5.47945 22.8995C5.00602 22.5741 4.31373 22.3552 3.53677 22.3552ZM62.0624 22.6891C62.1817 22.6859 62.2967 22.7307 62.3819 22.8137C62.4676 22.8963 62.5156 23.0102 62.5161 23.129V26.0047C62.5156 26.2475 62.3185 26.4446 62.0752 26.4446H50.3755C50.1327 26.444 49.9356 26.2475 49.9356 26.0047V24.8922C49.9356 24.7724 49.9841 24.6579 50.0703 24.5749C50.1566 24.4918 50.2732 24.4476 50.3925 24.4524C54.5586 24.6292 58.5306 23.8751 61.9324 22.7136V22.7131C61.9745 22.6987 62.0182 22.6907 62.0624 22.6897L62.0624 22.6891ZM61.6348 23.693C58.4001 24.7383 54.7145 25.4061 50.8148 25.3038V25.5621H61.6348V23.693ZM62.3462 26.7417H62.3467C62.5896 26.7422 62.7861 26.9387 62.7866 27.1821V30.3889V30.3884C62.7866 30.6318 62.5896 30.8288 62.3467 30.8293H7.80874C7.56537 30.8288 7.36887 30.6318 7.36834 30.3884V27.1815V27.1821C7.36887 26.9387 7.5659 26.7422 7.80874 26.7417H62.3462ZM61.9063 27.6225H8.25038V29.9485H61.9063V27.6225ZM63.1594 32.0042H7.07542V37.3012H63.1594V32.0042Z" fill="#D69C47"/>
</svg>
