<svg width="36" height="43" viewBox="0 0 36 43" fill="none" xmlns="http://www.w3.org/2000/svg">
<path d="M31.9182 37.6094C31.1721 37.6103 30.5664 38.2167 30.5664 38.9637C30.5664 39.7107 31.1703 40.3171 31.9164 40.3165C32.6624 40.3155 33.2682 39.7091 33.2682 38.9622C33.2691 38.2142 32.6643 37.6087 31.9182 37.6094Z" fill="#D69C47"/>
<path d="M28.7833 17.5184V22.01C28.7833 22.6139 29.2733 23.1039 29.8772 23.1039C30.481 23.1039 30.9711 22.6139 30.9711 22.01V17.2555C30.9711 15.2071 29.3112 13.5472 27.2627 13.5472L10.0975 13.5469C8.20268 13.5469 6.61249 14.9753 6.41036 16.8597L5.87367 21.8729C5.80304 22.5306 6.3186 23.1036 6.97919 23.1036C7.54773 23.1036 8.02449 22.6754 8.08535 22.1103L8.5984 17.3214C8.69899 16.3792 9.4946 15.6649 10.4418 15.6649H26.9306C27.9538 15.6643 28.7838 16.4942 28.7838 17.5184L28.7833 17.5184Z" fill="#D69C47"/>
<path d="M15.6762 1.57422C15.5059 1.57422 15.3672 1.71297 15.3672 1.88324V3.11146C15.3672 3.28174 15.5059 3.42048 15.6762 3.42048C15.8465 3.42048 15.9852 3.28173 15.9852 3.11146V1.88324C15.9852 1.71296 15.8465 1.57422 15.6762 1.57422Z" fill="#D69C47"/>
<path d="M19.3286 1.57422C19.1583 1.57422 19.0195 1.71297 19.0195 1.88324V3.11146C19.0195 3.28174 19.1583 3.42048 19.3286 3.42048C19.4988 3.42048 19.6376 3.28173 19.6376 3.11146V1.88324C19.6376 1.71296 19.5001 1.57422 19.3286 1.57422Z" fill="#D69C47"/>
<path d="M22.9809 1.57422C22.8106 1.57422 22.6719 1.71297 22.6719 1.88324V3.11146C22.6719 3.28174 22.8106 3.42048 22.9809 3.42048C23.1512 3.42048 23.2899 3.28173 23.2899 3.11146V1.88324C23.2899 1.71296 23.1512 1.57422 22.9809 1.57422Z" fill="#D69C47"/>
<path d="M7.08568 13.8554C7.24114 13.8554 7.37515 13.7381 7.39281 13.5798L8.35706 4.69286C8.39869 4.3069 8.72253 4.01648 9.11101 4.01648H11.0534C11.2237 4.01648 11.3624 3.87773 11.3624 3.70746C11.3624 3.53718 11.2237 3.39844 11.0534 3.39844H9.11101C8.40719 3.39844 7.81942 3.9263 7.74346 4.62666L6.77921 13.5136C6.7606 13.6832 6.88327 13.8359 7.05291 13.8545C7.063 13.8554 7.07433 13.8554 7.08568 13.8554Z" fill="#D69C47"/>
<path d="M33.3726 35.2005V26.5978C33.7327 26.5915 34.0235 26.2976 34.0235 25.9365V24.6676C34.0235 24.3066 33.7331 24.0124 33.3726 24.0064V3.10441C33.3726 1.93359 32.42 0.980074 31.2483 0.980074H26.431C26.3383 0.424779 25.8561 0 25.2753 0H13.383C12.8022 0 12.3201 0.424747 12.2274 0.980074H9.10723C7.16484 0.980074 5.54277 2.43594 5.33369 4.36702L3.2033 24.0121C2.91446 24.0537 2.68048 24.2833 2.64075 24.5791L2.47047 25.848C2.44493 26.0368 2.50232 26.2286 2.62844 26.3724C2.70885 26.4641 2.81196 26.5303 2.92612 26.5666L1.59513 38.8254H1.40783C0.843703 38.8254 0.359059 39.2467 0.279545 39.8055L0.0112014 41.7012C-0.0348364 42.0279 0.0622849 42.359 0.279545 42.608C0.496807 42.8572 0.809298 43 1.13942 43H4.83191C5.16206 43 5.4755 42.8568 5.69179 42.608C5.9081 42.3589 6.00617 42.0278 5.96013 41.7012L5.69179 39.8055C5.61674 39.2757 5.17622 38.8695 4.64899 38.8298L5.97594 26.5985H6.00432C6.33446 26.5985 6.617 26.3513 6.6602 26.0246L6.83048 24.7557C6.85602 24.5668 6.79863 24.3751 6.6725 24.2313C6.547 24.0875 6.36537 24.0052 6.17365 24.0052H3.82441L5.9469 4.43438C6.12254 2.81771 7.48066 1.59926 9.10685 1.59926H12.2103V3.82612C12.2103 4.47318 12.7366 4.99945 13.3836 4.99945H25.2759C25.8568 4.99945 26.3389 4.5747 26.4316 4.01938H30.2979C30.3181 4.01938 30.3351 4.03609 30.3351 4.05659V13.5498C30.3351 13.72 30.4738 13.8588 30.6441 13.8588C30.8144 13.8588 30.9531 13.72 30.9531 13.5498L30.9534 4.05578C30.9534 3.69472 30.6595 3.40052 30.2982 3.40052H26.4486L26.4489 1.5994H31.2495C32.0804 1.5994 32.7558 2.27484 32.7558 3.10572V24.0052H30.4754C30.1099 24.0052 29.8132 24.302 29.8132 24.6674V25.9363C29.8132 26.2532 30.0374 26.5191 30.336 26.5834V35.2596C28.9013 35.8786 27.8938 37.308 27.8922 38.9688C27.8913 40.0479 28.3107 41.0614 29.0718 41.8232C29.8312 42.5825 30.8396 43 31.9129 43H31.9164C34.137 42.9981 35.9444 41.1875 35.946 38.9631C35.9469 37.8841 35.5276 36.8706 34.7664 36.1088C34.3615 35.7052 33.8882 35.3996 33.3726 35.2003L33.3726 35.2005ZM5.08119 39.8914L5.34953 41.7871C5.37066 41.9362 5.32557 42.0882 5.22687 42.2021C5.12786 42.3159 4.98407 42.3812 4.83303 42.3812H1.14053C0.989492 42.3812 0.845705 42.3159 0.746689 42.2021C0.647672 42.0882 0.602902 41.9362 0.624028 41.7871L0.892372 39.8914C0.928635 39.6353 1.15031 39.443 1.40888 39.443H4.56536C4.8233 39.443 5.04493 39.6353 5.08119 39.8914ZM4.02959 38.8249H2.21709L3.54339 26.5984H5.35589L4.02959 38.8249ZM6.17605 24.6231C6.1893 24.6231 6.20065 24.6284 6.20948 24.6382C6.21831 24.648 6.22177 24.6603 6.2202 24.6735L6.04992 25.9424C6.0474 25.9645 6.02785 25.9803 6.00577 25.9803L3.12553 25.98C3.11228 25.98 3.10093 25.9746 3.0921 25.9648C3.08327 25.9551 3.07981 25.9428 3.08138 25.9295L3.25166 24.6606C3.25418 24.6385 3.27374 24.6228 3.29581 24.6228L6.17605 24.6231ZM25.8308 3.82607C25.8308 4.13258 25.5817 4.38137 25.2755 4.38137H13.3832C13.0767 4.38137 12.8279 4.13226 12.8279 3.82607V1.17444C12.8279 0.86794 13.077 0.619147 13.3832 0.619147H25.2755C25.582 0.619147 25.8308 0.868255 25.8308 1.17444V3.82607ZM30.4299 24.6675C30.4299 24.6429 30.4495 24.6233 30.4741 24.6233H33.3612C33.3858 24.6233 33.4054 24.6429 33.4054 24.6675V25.9364C33.4054 25.961 33.3858 25.9805 33.3612 25.9805H30.4741C30.4495 25.9805 30.4299 25.961 30.4299 25.9364V24.6675ZM32.7545 26.5982V35.0178C32.4843 34.9613 32.2062 34.9314 31.9236 34.9314H31.9202C31.5865 34.9314 31.2624 34.9736 30.9524 35.0506V26.5987L32.7545 26.5982ZM31.9148 42.3815H31.9123C31.0038 42.3815 30.1509 42.0283 29.5083 41.3856C28.8637 40.7411 28.5087 39.8822 28.5096 38.9684C28.5115 37.0842 30.0415 35.5505 31.9221 35.549H31.9246C32.8321 35.549 33.686 35.9021 34.3287 36.5448C34.9732 37.1893 35.3283 38.0483 35.3273 38.9621C35.3248 40.8462 33.7948 42.3796 31.9148 42.3815Z" fill="#D69C47"/>
</svg>
