<svg width="50" height="41" viewBox="0 0 50 41" fill="none" xmlns="http://www.w3.org/2000/svg">
<path d="M47.2251 40.9998H2.63662C1.18809 40.9998 0.0078125 39.8196 0.0078125 38.371V29.2148H1.20008V38.371C1.20008 39.1638 1.84387 39.8077 2.63673 39.8077H47.2252C48.018 39.8077 48.6618 39.1639 48.6618 38.371V29.2148H49.8541V38.371C49.8541 39.8196 48.6738 40.9998 47.2253 40.9998H47.2251Z" fill="#D69C47"/>
<path d="M49.7592 28.6784L42.2602 1.83004C41.9622 0.757043 40.9786 0 39.8639 0H34.3439C33.873 0 33.4378 0.178829 33.1159 0.476885C32.794 0.178829 32.3589 0 31.8879 0H26.1593C25.6883 0 25.2532 0.178829 24.9312 0.476885C24.6094 0.178829 24.1742 0 23.7032 0H17.9746C17.5037 0 17.0685 0.178829 16.7466 0.476885C16.4247 0.178829 15.9895 0 15.5186 0H9.9986C8.88383 0 7.9003 0.751091 7.60229 1.82404L0.103263 28.6789C0.0138473 29.0068 -0.0159637 29.3406 0.007886 29.6685C0.0496132 30.1811 0.240366 30.6818 0.562261 31.1051C0.747052 31.3436 0.961656 31.5462 1.2001 31.7131C1.65313 32.0291 2.20156 32.2019 2.77387 32.2019H10.5292C11.2326 32.2019 11.8108 32.7742 11.8108 33.4836H13.0031C13.0031 32.7742 13.5753 32.2019 14.2847 32.2019H23.0475C23.7509 32.2019 24.3292 32.7742 24.3292 33.4836H25.5214C25.5214 32.7742 26.0937 32.2019 26.8031 32.2019H35.5659C36.2753 32.2019 36.8475 32.7742 36.8475 33.4836H38.0398C38.0398 32.7742 38.6121 32.2019 39.3215 32.2019H47.0887C47.661 32.2019 48.2094 32.0291 48.6625 31.7131C48.901 31.5462 49.1156 31.3436 49.3004 31.1051C49.6222 30.6759 49.813 30.1811 49.8547 29.6685C49.8845 29.3406 49.8547 29.0068 49.7593 28.6789L49.7592 28.6784ZM48.6625 29.6024C48.6327 29.8825 48.5254 30.1508 48.3465 30.3833C48.0425 30.7826 47.5835 31.0092 47.0888 31.0092H39.3215C38.5704 31.0092 37.8968 31.343 37.4437 31.8735C36.9907 31.343 36.317 31.0092 35.5659 31.0092H26.8031C26.052 31.0092 25.3784 31.343 24.9253 31.8735C24.4723 31.343 23.7987 31.0092 23.0475 31.0092H14.2847C13.5336 31.0092 12.8601 31.343 12.407 31.8735C11.9539 31.343 11.2803 31.0092 10.5292 31.0092H2.77388C2.27315 31.0092 1.81415 30.7826 1.51611 30.3833C1.33728 30.1508 1.22998 29.8825 1.20017 29.6024C1.18825 29.4891 1.18825 29.3758 1.20017 29.2566C1.20614 29.1672 1.22402 29.0837 1.24786 29.0003L8.74689 2.14539C8.90188 1.58506 9.41453 1.19162 9.99867 1.19162H15.5187C15.8644 1.19162 16.1505 1.47775 16.1505 1.8235H17.3428C17.3428 1.47775 17.6289 1.19162 17.9747 1.19162H23.7033C24.049 1.19162 24.3352 1.47775 24.3352 1.8235H25.5274C25.5274 1.47775 25.8136 1.19162 26.1593 1.19162H31.8879C32.2337 1.19162 32.5198 1.47775 32.5198 1.8235H33.7121C33.7121 1.47775 33.9982 1.19162 34.3439 1.19162H39.8639C40.4481 1.19162 40.9607 1.58506 41.1157 2.14539L48.6147 29.0003C48.6386 29.0837 48.6565 29.1731 48.6624 29.2566C48.6743 29.3699 48.6744 29.4891 48.6625 29.6024Z" fill="#D69C47"/>
<path d="M14.591 23.772C14.591 24.231 14.2154 24.6066 13.7564 24.6066C13.2974 24.6066 12.9219 24.231 12.9219 23.772C12.9219 23.313 13.2974 22.9375 13.7564 22.9375C14.2154 22.9375 14.591 23.313 14.591 23.772Z" fill="#D69C47"/>
<path d="M25.7667 23.772C25.7667 24.231 25.3912 24.6066 24.9322 24.6066C24.4732 24.6066 24.0977 24.231 24.0977 23.772C24.0977 23.313 24.4732 22.9375 24.9322 22.9375C25.3912 22.9375 25.7667 23.313 25.7667 23.772Z" fill="#D69C47"/>
<path d="M37.0011 23.772C37.0011 24.231 36.6256 24.6066 36.1666 24.6066C35.7076 24.6066 35.332 24.231 35.332 23.772C35.332 23.313 35.7076 22.9375 36.1666 22.9375C36.6256 22.9375 37.0011 23.313 37.0011 23.772Z" fill="#D69C47"/>
<path d="M15.7238 15.4869C15.7238 15.9459 15.3482 16.3214 14.8892 16.3214C14.4302 16.3214 14.0547 15.9459 14.0547 15.4869C14.0547 15.0279 14.4302 14.6523 14.8892 14.6523C15.3482 14.6523 15.7238 15.0279 15.7238 15.4869Z" fill="#D69C47"/>
<path d="M25.7667 15.4869C25.7667 15.9459 25.3912 16.3214 24.9322 16.3214C24.4732 16.3214 24.0977 15.9459 24.0977 15.4869C24.0977 15.0279 24.4732 14.6523 24.9322 14.6523C25.3912 14.6523 25.7667 15.0279 25.7667 15.4869Z" fill="#D69C47"/>
<path d="M35.8722 15.4869C35.8722 15.9459 35.4967 16.3214 35.0377 16.3214C34.5787 16.3214 34.2031 15.9459 34.2031 15.4869C34.2031 15.0279 34.5787 14.6523 35.0377 14.6523C35.4967 14.6523 35.8722 15.0279 35.8722 15.4869Z" fill="#D69C47"/>
<path d="M16.7941 7.5572C16.7941 8.0162 16.4185 8.39174 15.9595 8.39174C15.5005 8.39174 15.125 8.0162 15.125 7.5572C15.125 7.0982 15.5005 6.72266 15.9595 6.72266C16.4185 6.72266 16.7941 7.0982 16.7941 7.5572Z" fill="#D69C47"/>
<path d="M25.7667 7.5572C25.7667 8.0162 25.3912 8.39174 24.9322 8.39174C24.4732 8.39174 24.0977 8.0162 24.0977 7.5572C24.0977 7.0982 24.4732 6.72266 24.9322 6.72266C25.3912 6.72266 25.7667 7.0982 25.7667 7.5572Z" fill="#D69C47"/>
<path d="M34.798 7.5572C34.798 8.0162 34.4224 8.39174 33.9634 8.39174C33.5045 8.39174 33.1289 8.0162 33.1289 7.5572C33.1289 7.0982 33.5045 6.72266 33.9634 6.72266C34.4224 6.72266 34.798 7.0982 34.798 7.5572Z" fill="#D69C47"/>
</svg>
