<svg width="50" height="41" viewBox="0 0 50 41" fill="none" xmlns="http://www.w3.org/2000/svg">
<path fill-rule="evenodd" clip-rule="evenodd" d="M3.69783 31.1501C4.83243 31.1501 5.75262 32.0708 5.75262 33.2054C5.75262 34.3395 4.83239 35.2597 3.69783 35.2597C2.56176 35.2597 1.64103 34.3394 1.64103 33.2049C1.64103 32.0708 2.56175 31.1501 3.69783 31.1501ZM47.0264 32.9179C46.9847 32.9179 46.943 32.9179 46.9033 32.9209V29.8512C46.9033 29.7119 46.8483 29.5784 46.7487 29.4808L17.4218 0.152679C17.2163 -0.0518704 16.8837 -0.0504012 16.6797 0.154151L10.0399 6.79395V4.4752C10.0399 4.18628 9.80589 3.95033 9.51647 3.95033L6.29031 3.94984C6.00139 3.94984 5.7674 4.18579 5.7674 4.47471V11.0664L4.8408 11.993C4.74269 12.0916 4.68775 12.2226 4.68579 12.359V15.698C4.68579 15.9869 4.92173 16.2214 5.21065 16.2214C5.47308 16.2214 5.59916 16.0502 5.7674 15.882V25.1514H5.21065C4.92173 25.1514 4.68579 25.3869 4.68579 25.6758V27.194C4.68579 27.483 4.92173 27.7174 5.21065 27.7174H5.7674V30.874C5.21752 30.3845 4.49206 30.0867 3.69792 30.0867C1.97515 30.0867 0.578125 31.4822 0.578125 33.205C0.578125 34.7482 1.70095 36.031 3.17302 36.2796V39.6431H1.65431C0.965112 39.6431 0.965112 40.6914 1.65431 40.6914H49.0691C49.7573 40.6914 49.7573 39.6431 49.0691 39.6431H47.5494V37.3578C48.5392 37.1219 49.277 36.2315 49.277 35.1676C49.277 33.9237 48.2685 32.9176 47.0265 32.9176L47.0264 32.9179ZM46.501 39.6436H45.8211V37.0708C46.0276 37.2023 46.2567 37.2999 46.501 37.3588V39.6436ZM47.0264 33.9809C47.6822 33.9809 48.2135 34.5127 48.2135 35.168C48.2135 35.8243 47.6817 36.3561 47.0264 36.3561C46.37 36.3561 45.8383 35.8243 45.8383 35.168C45.8383 34.5126 46.3701 33.9809 47.0264 33.9809ZM4.22022 39.6436V36.2801C4.80837 36.1805 5.34011 35.9161 5.76731 35.5359V39.6441L4.22022 39.6436ZM5.73404 26.1995H29.8382L29.3673 26.6714H5.73404V26.1995ZM6.81516 14.8344L17.0511 4.59852L34.2449 21.7923L30.8857 25.1515H6.81542L6.81516 14.8344ZM9.81667 16.3192H15.081C15.3705 16.3192 15.6044 16.5532 15.6044 16.8426V22.105C15.6044 22.3939 15.3705 22.6299 15.081 22.6299L9.81667 22.6304C9.52774 22.6304 9.29327 22.3944 9.29327 22.1055V16.8431C9.29327 16.5532 9.52774 16.3192 9.81667 16.3192ZM11.925 17.366V21.5816H10.3416V17.366H11.925ZM14.5561 17.366V21.5816H12.9728V17.366H14.5561ZM34.9847 21.0519L17.4205 3.48641C17.2165 3.28186 16.8844 3.28186 16.6798 3.48641L5.73265 14.4336V12.5818L17.0501 1.26385L35.9116 20.1253L34.9847 21.0519ZM24.8067 39.6434V30.5303C24.8067 30.2414 24.5727 30.0069 24.2833 30.0069H19.021C18.732 30.0069 18.4961 30.2414 18.4961 30.5303V39.6434H6.8147V27.7176H28.3195L26.5565 29.4805C26.4584 29.5786 26.4035 29.7116 26.4035 29.8509V33.185C26.4035 33.6452 26.9651 33.8875 27.2972 33.5554L27.4836 33.3695V39.6433L24.8067 39.6434ZM23.759 31.0556V39.6439L19.5439 39.6434V31.0556L23.759 31.0556ZM6.81506 10.018V4.99784H8.99154V7.84187L6.81506 10.018ZM27.4496 30.0686L36.6524 20.8658L45.8537 30.0686V31.9208L37.0227 23.0884C36.8172 22.8838 36.4866 22.8838 36.2801 23.0898L27.4496 31.9208L27.4496 30.0686ZM44.774 32.3212V39.6434H43.0591V30.6068L44.774 32.3212ZM42.4596 30.0068H30.8449L36.6523 24.1995L42.4596 30.0068ZM30.2435 30.6082V39.6437L28.5311 39.6433V32.3211L30.2435 30.6082ZM42.0113 31.0556V33.2197L31.2918 33.2193V31.0556L42.0113 31.0556ZM42.0113 39.6433H31.2918V37.4786H42.0113V39.6433ZM42.0113 36.4328H31.2918V34.2682H42.0113V36.4328ZM19.021 22.6308C18.7321 22.6308 18.4961 22.3949 18.4961 22.106V16.8436C18.4961 16.5542 18.7321 16.3202 19.021 16.3202H24.2834C24.5728 16.3202 24.8068 16.5542 24.8068 16.8436V22.106C24.8068 22.3949 24.5728 22.6308 24.2834 22.6308H19.021ZM23.759 17.3665V21.582H22.1756V17.3665H23.759ZM21.1268 17.3665V21.582H19.5439V17.3665H21.1268ZM12.9443 36.3183H9.85298C9.56406 36.3183 9.32959 36.0838 9.32959 35.7949V30.5305C9.32959 30.2416 9.56406 30.0071 9.85298 30.0071H15.1174C15.4063 30.0071 15.6408 30.2416 15.6408 30.5305V35.7949C15.6408 36.0838 15.4063 36.3183 15.1174 36.3183H12.9443ZM14.592 31.0559V35.2701L13.0094 35.2696V31.056L14.592 31.0559ZM11.9608 31.0559V35.2701L10.3774 35.2696V31.056L11.9608 31.0559ZM20.5872 34.6986C20.8781 34.6986 21.112 34.9331 21.112 35.222C21.112 35.511 20.8776 35.7454 20.5872 35.7454C20.2982 35.7454 20.0638 35.511 20.0638 35.222C20.0638 34.9326 20.2982 34.6986 20.5872 34.6986Z" fill="#D69C47"/>
</svg>
