<svg width="43" height="42" viewBox="0 0 43 42" fill="none" xmlns="http://www.w3.org/2000/svg">
<path d="M11.6536 10.8C13.4612 10.8 14.9907 9.22425 14.9907 7.32385C14.9907 5.42345 13.5074 3.84766 11.6536 3.84766C9.79975 3.84766 8.31641 5.42345 8.31641 7.32385C8.31641 9.22425 9.79975 10.8 11.6536 10.8ZM11.6536 4.49655C13.1369 4.49655 14.3418 5.74806 14.3418 7.32385C14.3418 8.89964 13.1368 10.1512 11.6536 10.1512C10.1703 10.1512 8.9653 8.89964 8.9653 7.32385C8.9653 5.74806 10.1705 4.49655 11.6536 4.49655Z" fill="#D69C47"/>
<path d="M17.5404 16.1295C17.865 15.8977 18.0503 15.5269 18.004 15.1098C17.6332 12.0507 13.7399 11.1238 13.3229 11.031C13.2301 11.031 13.1376 11.031 13.0448 11.0772L11.7008 12.1432L10.3569 11.0772C10.2641 11.031 10.1716 10.9845 10.0788 11.031C9.61521 11.1238 5.76852 12.097 5.39764 15.1098C5.35141 15.5269 5.53667 15.8977 5.86127 16.1295C6.60293 16.6394 8.36396 17.5663 11.7012 17.5663C14.9912 17.5663 16.7525 16.6859 17.5404 16.1295ZM11.6077 16.9174C8.36335 16.9174 6.74096 15.9905 6.18485 15.6196C6.04583 15.5268 5.9996 15.3878 5.9996 15.2026C6.27764 12.7923 9.29056 11.8654 10.0319 11.6801L11.4225 12.7926C11.5615 12.8854 11.7005 12.8854 11.8395 12.7926L13.2301 11.6801C14.018 11.8654 16.9843 12.7926 17.2624 15.2026C17.2624 15.3878 17.2162 15.5272 17.0771 15.6196C16.521 15.9905 14.8987 16.9174 11.6543 16.9174H11.608H11.6077Z" fill="#D69C47"/>
<path d="M32.6489 22.2945C34.0856 22.2945 35.1982 21.0895 35.1982 19.6062C35.1982 18.123 34.0395 16.918 32.6489 16.918C31.2122 16.918 30.0996 18.123 30.0996 19.6062C30.0996 21.0895 31.2583 22.2945 32.6489 22.2945ZM32.6489 17.6133C33.7148 17.6133 34.5956 18.5402 34.5956 19.6527C34.5956 20.7653 33.7148 21.6922 32.6489 21.6922C31.583 21.6922 30.7022 20.7653 30.7022 19.6527C30.7485 18.494 31.6291 17.6133 32.6489 17.6133Z" fill="#D69C47"/>
<path d="M37.1001 26.2341C37.3782 26.0488 37.5172 25.7242 37.471 25.4C37.1929 23.0825 34.2266 22.3408 33.902 22.2484C33.8092 22.2484 33.7167 22.2484 33.624 22.2946L32.6971 23.0363L31.7702 22.2946C31.6774 22.248 31.5846 22.248 31.4918 22.248C31.1672 22.3408 28.2008 23.0359 27.9228 25.3996C27.8766 25.7242 28.0156 26.0485 28.2936 26.2338C28.8497 26.6508 30.194 27.2997 32.6967 27.2997C35.1998 27.3463 36.5437 26.6511 37.1001 26.2341ZM32.6504 26.6974C30.2402 26.6974 29.0352 26.0023 28.6181 25.7239C28.5254 25.6776 28.4791 25.5849 28.5254 25.4921C28.7572 23.7772 30.8428 23.0818 31.4454 22.9428L32.4651 23.7307C32.6041 23.8235 32.7432 23.8235 32.8822 23.7307L33.9019 22.9428C34.5045 23.128 36.6364 23.7769 36.822 25.4921C36.822 25.5849 36.7757 25.6773 36.7292 25.7239C36.3121 26.0019 35.1068 26.6974 32.6969 26.6974H32.6503H32.6504Z" fill="#D69C47"/>
<path d="M13.8794 32.4917C15.3161 32.4917 16.4287 31.2867 16.4287 29.8035C16.4287 28.3202 15.2699 27.1152 13.8794 27.1152C12.4888 27.1152 11.3301 28.3202 11.3301 29.8035C11.3304 31.2868 12.4425 32.4917 13.8794 32.4917ZM13.8794 27.8106C14.9453 27.8106 15.826 28.7375 15.826 29.85C15.826 30.9626 14.9453 31.8895 13.8794 31.8895C12.8134 31.8895 11.9327 30.9626 11.9327 29.85C11.9327 28.7375 12.8134 27.8106 13.8794 27.8106Z" fill="#D69C47"/>
<path d="M15.1299 32.4453C15.0371 32.4453 14.9446 32.4453 14.8518 32.4915L13.9249 33.2332L12.998 32.4915C12.8587 32.4453 12.7662 32.4453 12.6734 32.4453C12.3488 32.5381 9.38246 33.2332 9.10445 35.5969C9.05822 35.9215 9.19724 36.2458 9.47528 36.431C10.0314 36.8481 11.3757 37.497 13.8784 37.497C16.3811 37.497 17.7254 36.8019 18.2815 36.431C18.5595 36.2458 18.6985 35.9212 18.6523 35.5969C18.4208 33.2794 15.4545 32.5381 15.1299 32.4453ZM17.9572 35.9215C17.5401 36.1996 16.3348 36.895 13.9249 36.895H13.8786H13.8324C11.4222 36.895 10.2172 36.1999 9.80011 35.9215C9.70732 35.8753 9.66109 35.7825 9.70732 35.6897C9.93913 33.9749 12.0248 33.2794 12.6274 33.1404L13.6471 33.9283C13.7861 34.0211 13.9251 34.0211 14.0642 33.9283L15.0838 33.1404C15.6865 33.3257 17.8184 33.9745 18.0039 35.6897C18.0961 35.7825 18.0498 35.8753 17.957 35.9215H17.9572Z" fill="#D69C47"/>
<path d="M42.1514 35.411C41.7344 33.8352 40.2048 32.8617 38.5825 33.0472L37.2847 29.7563C39.6949 28.1805 41.1317 25.5384 41.1317 22.6187C41.1317 17.9375 37.2847 14.0904 32.6034 14.0904C29.7298 14.0904 27.0416 15.5271 25.4658 17.9836L25.0022 18.8178L21.1552 16.7321L21.6188 15.898C22.3605 14.3685 22.7313 12.7464 22.7313 11.0313C22.7313 9.87253 22.546 8.7138 22.1752 7.60133L21.8968 6.76721L25.8367 5.70126C26.3465 7.64793 28.2932 8.29674 29.4981 8.11151C30.3788 7.97248 31.1205 7.50887 31.6303 6.81373C32.1402 6.11862 32.372 5.23794 32.233 4.40348C32.0939 3.52277 31.6303 2.7811 30.9352 2.27125C30.2394 1.7614 29.3125 1.57582 28.4783 1.71484C26.8559 1.99288 25.651 3.42968 25.7438 5.09825L21.6187 6.1642C19.7646 2.41033 15.8713 0 11.6536 0C5.53571 0 0.576172 4.95953 0.576172 11.0775C0.576172 17.1957 5.53571 22.1549 11.6536 22.1549L11.9782 24.8432C8.13126 25.7239 5.39665 29.2001 5.39665 33.1397C5.39665 37.8209 9.24364 41.668 13.9249 41.668C18.6062 41.668 22.4532 37.821 22.4532 33.1397C22.4532 31.981 22.2214 30.8685 21.8043 29.8487L25.7903 27.6241C27.4127 29.8487 29.9616 31.1465 32.6964 31.1465C33.8089 31.1465 34.9211 30.9147 35.9408 30.4977L36.7749 30.0806L37.9799 33.186C37.2383 33.4178 36.6822 33.8811 36.2651 34.4838C35.8015 35.2717 35.6625 36.2914 35.848 37.1258C36.0798 37.96 36.6359 38.6554 37.3776 39.0725C37.8874 39.3505 38.4435 39.4896 38.9999 39.4896C39.278 39.4896 39.6026 39.4433 39.8807 39.3505C40.7148 39.1187 41.4102 38.5627 41.8273 37.821C42.2906 37.1259 42.3834 36.2456 42.1516 35.4111L42.1514 35.411ZM28.5711 2.36395C29.2662 2.27116 29.9617 2.41018 30.5178 2.82758C31.0739 3.24465 31.4447 3.84726 31.5375 4.54242C31.6302 5.23752 31.4912 5.93298 31.0738 6.48908C30.6568 7.04518 30.0541 7.41599 29.359 7.50877C28.3393 7.64779 26.6707 7.04514 26.3465 5.28409C26.2074 3.89353 27.1809 2.59578 28.5711 2.36395ZM1.22505 11.0776C1.22505 5.33022 5.90624 0.64903 11.6536 0.64903C15.6859 0.64903 19.394 3.01276 21.1089 6.7207L21.5725 7.87943C21.8971 8.89911 22.0824 10.0117 22.0824 11.0776C22.0824 12.6534 21.7115 14.2292 21.0164 15.6198L20.4138 16.7322C18.7452 19.2815 16.1035 20.9963 13.1368 21.4134L11.8853 21.5062H11.7925H11.6535C5.90631 21.5524 1.22487 16.8713 1.22487 11.0776L1.22505 11.0776ZM21.8041 33.1862C21.8041 37.5431 18.2817 41.0655 13.9248 41.0655C9.568 41.0655 6.04554 37.543 6.04554 33.1862C6.04554 29.432 8.7338 26.1875 12.3953 25.4459L13.6468 25.3069H13.9249C16.5669 25.3069 18.9768 26.6046 20.4602 28.783L21.0628 29.8955C21.5261 30.9149 21.8041 32.0275 21.8041 33.1862ZM21.4795 29.2929L21.0159 28.4588C19.4401 26.0951 16.798 24.658 13.9245 24.658H13.5999H13.5536L12.5801 24.7508L12.2555 22.1087L13.229 22.0159C16.2882 21.5523 19.0227 19.8375 20.784 17.2882L24.6773 19.4205C24.2602 20.4402 24.0746 21.5061 24.0746 22.6187C24.0746 23.8702 24.3527 25.0752 24.8625 26.1876L25.3262 27.0217L21.4795 29.2929ZM26.1144 27.0217L25.4656 25.9558C25.0019 24.9361 24.7239 23.8236 24.7239 22.6648C24.7239 21.5524 24.9557 20.4864 25.419 19.4667L26.0216 18.3542C27.505 16.083 29.9615 14.739 32.6494 14.739C37.0063 14.739 40.5287 18.2614 40.5287 22.6182C40.5287 25.3994 39.1381 27.9021 36.7745 29.3388L35.662 29.8949C34.6885 30.312 33.7154 30.4975 32.6495 30.4975C30.0081 30.5441 27.5979 29.2463 26.1145 27.0217L26.1144 27.0217ZM41.317 37.5894C40.9924 38.192 40.3901 38.6553 39.7412 38.8409C39.0461 39.0261 38.3506 38.9337 37.7483 38.6091C37.1457 38.2845 36.6824 37.6822 36.4968 37.0333C36.3578 36.5234 36.3578 35.6427 36.8214 34.9011C37.1923 34.2984 37.7483 33.9276 38.49 33.7886C39.834 33.5105 41.1783 34.2984 41.5491 35.6424C41.7344 36.2916 41.6416 36.9868 41.317 37.5894Z" fill="#D69C47"/>
</svg>
