<svg width="33" height="40" viewBox="0 0 33 40" fill="none" xmlns="http://www.w3.org/2000/svg">
<path d="M31.7874 30.8244H5.09585C2.60469 30.8244 0.578125 28.6364 0.578125 25.9467C0.578125 24.5603 1.11995 23.2266 2.06493 22.2879C2.90104 21.4574 3.97967 21.007 5.09819 21.0118L14.0029 21.0753C14.186 21.0765 14.333 21.2259 14.3318 21.409C14.3307 21.5911 14.1825 21.7378 14.0006 21.7378H13.9982L5.09346 21.6743H5.07069C4.13668 21.6743 3.23583 22.0584 2.53161 22.7579C1.71117 23.573 1.24061 24.7353 1.24061 25.9464C1.24061 28.2705 2.97022 30.1616 5.09583 30.1616H31.7866C31.9697 30.1616 32.1179 30.3098 32.1179 30.4929C32.1182 30.6762 31.9697 30.8244 31.7869 30.8244L31.7874 30.8244ZM31.7874 21.6743H21.9801C21.7971 21.6743 21.6489 21.5262 21.6489 21.3431C21.6489 21.16 21.7971 21.0118 21.9801 21.0118H31.7874C31.9705 21.0118 32.1187 21.16 32.1187 21.3431C32.1187 21.5259 31.9702 21.6743 31.7874 21.6743Z" fill="#D69C47"/>
<path d="M32.6181 39.9788H5.92501C3.43439 39.9788 1.4082 37.7651 1.4082 35.0441C1.4082 32.3533 3.43447 30.1641 5.92501 30.1641H32.6181C32.8012 30.1641 32.9493 30.3122 32.9493 30.4953C32.9493 30.6784 32.8012 30.8266 32.6181 30.8266L5.92501 30.8263C3.79971 30.8263 2.0707 32.7182 2.0707 35.0438C2.0707 37.3995 3.79971 39.316 5.92501 39.316H32.6181C32.8012 39.316 32.9493 39.4642 32.9493 39.6473C32.9493 39.8304 32.8009 39.9788 32.6181 39.9788Z" fill="#D69C47"/>
<path d="M31.3964 33.9691H7.67891C7.49583 33.9691 7.34766 33.821 7.34766 33.6379C7.34766 33.4548 7.49583 33.3066 7.67891 33.3066H31.3964C31.5795 33.3066 31.7277 33.4548 31.7277 33.6379C31.7277 33.8207 31.5792 33.9691 31.3964 33.9691Z" fill="#D69C47"/>
<path d="M31.3964 36.8344H7.67891C7.49583 36.8344 7.34766 36.6862 7.34766 36.5031C7.34766 36.32 7.49583 36.1719 7.67891 36.1719H31.3964C31.5795 36.1719 31.7277 36.32 31.7277 36.5031C31.7277 36.6862 31.5792 36.8344 31.3964 36.8344Z" fill="#D69C47"/>
<path d="M31.3964 24.8187H7.67891C7.49583 24.8187 7.34766 24.6706 7.34766 24.4875C7.34766 24.3044 7.49583 24.1562 7.67891 24.1562H31.3964C31.5795 24.1562 31.7277 24.3044 31.7277 24.4875C31.7277 24.6703 31.5792 24.8187 31.3964 24.8187Z" fill="#D69C47"/>
<path d="M31.3964 27.682H7.67891C7.49583 27.682 7.34766 27.5339 7.34766 27.3508C7.34766 27.1677 7.49583 27.0195 7.67891 27.0195H31.3964C31.5795 27.0195 31.7277 27.1677 31.7277 27.3508C31.7277 27.5339 31.5792 27.682 31.3964 27.682Z" fill="#D69C47"/>
<path d="M15.1512 21.8339C13.5502 21.8339 12.0549 21.1199 10.7837 19.7139C9.42879 18.2159 8.46647 16.027 8.14286 13.7089C7.8054 11.2907 8.18871 9.0684 9.22179 7.45144C10.0035 6.2282 11.1097 5.41246 12.5101 5.02738C14.0501 4.60385 15.9051 4.72304 18.0236 5.3817C18.1984 5.43582 18.296 5.62156 18.2416 5.79635C18.1871 5.97115 18.0017 6.06845 17.8269 6.01433C14.0604 4.8434 11.2779 5.46363 9.77998 7.80838C7.85812 10.8165 8.5706 16.2793 11.275 19.27C13.0789 21.2649 15.3878 21.6982 17.7761 20.4906C17.9393 20.4078 18.1387 20.4734 18.2212 20.6367C18.3037 20.8 18.2384 20.9993 18.0751 21.0818C17.0798 21.5852 16.0974 21.8342 15.1512 21.8342L15.1512 21.8339Z" fill="#D69C47"/>
<path d="M20.6991 21.8338C19.7533 21.8338 18.7704 21.5845 17.7756 21.0814C17.6123 20.9989 17.5469 20.7996 17.6295 20.6363C17.712 20.4731 17.9113 20.4077 18.0746 20.4902C20.4628 21.6978 22.7718 21.2642 24.5759 19.2693C27.2801 16.2792 27.9928 10.8166 26.0713 7.80844C24.5733 5.46365 21.7905 4.84317 18.0236 6.01439C17.8488 6.06881 17.6631 5.97121 17.609 5.79642C17.5548 5.62162 17.6521 5.43589 17.8269 5.38176C19.9457 4.72281 21.801 4.60395 23.3411 5.02744C24.7415 5.41281 25.8479 6.2285 26.6296 7.45181C27.6627 9.06869 28.0457 11.2908 27.7083 13.7089C27.385 16.0271 26.4223 18.2157 25.0674 19.7137C23.7956 21.1201 22.3 21.834 20.6991 21.834L20.6991 21.8338Z" fill="#D69C47"/>
<path d="M17.9536 5.989C17.8208 5.989 17.6954 5.90855 17.6446 5.77723C16.9185 3.90179 17.7067 1.57123 19.4392 0.47163C19.5936 0.373436 19.7986 0.41928 19.8965 0.57367C19.9944 0.728059 19.9488 0.932722 19.7941 1.03092C18.3437 1.9516 17.6564 3.9734 18.2624 5.53796C18.3284 5.70861 18.2438 5.90056 18.0731 5.96652C18.0338 5.9816 17.9932 5.989 17.9536 5.989Z" fill="#D69C47"/>
<path d="M17.2376 4.24046C15.4228 4.24046 14.0449 3.36528 13.1413 1.639C13.0896 1.54021 13.091 1.42191 13.1452 1.32431C13.1993 1.22671 13.299 1.16312 13.4102 1.15484C15.5468 0.997204 17.1081 1.8688 18.0447 3.73738C18.0938 3.83528 18.0914 3.95121 18.0379 4.04704C17.9847 4.14286 17.8874 4.20586 17.7782 4.21562C17.5952 4.23218 17.413 4.24046 17.2376 4.24046ZM14.0014 1.80019C14.7687 2.98353 15.8186 3.56645 17.1968 3.57774C16.463 2.41211 15.4125 1.82889 14.0014 1.80019Z" fill="#D69C47"/>
<path d="M10.5336 14.2049C10.3721 14.2049 10.2308 14.0866 10.2062 13.9222C9.9007 11.8586 10.2077 9.83533 11.119 7.90848C11.197 7.74315 11.3946 7.67246 11.5599 7.75054C11.7253 7.82863 11.7959 8.02619 11.7179 8.19152C10.8637 9.99799 10.5756 11.8933 10.8616 13.8251C10.8882 14.0061 10.7634 14.1744 10.5824 14.2013C10.5661 14.2037 10.5499 14.2049 10.5336 14.2049Z" fill="#D69C47"/>
<path d="M11.0375 16.3216C10.9361 16.3216 10.8361 16.2752 10.771 16.1877C10.5951 15.9502 10.4986 15.6772 10.4847 15.3761C10.4762 15.1933 10.6175 15.0383 10.8003 15.0297C10.9837 15.0203 11.1381 15.1625 11.1467 15.3453C11.1546 15.5151 11.2058 15.6615 11.3037 15.7934C11.4125 15.9404 11.3818 16.1477 11.2348 16.2569C11.175 16.3003 11.1058 16.3216 11.0375 16.3216Z" fill="#D69C47"/>
</svg>
