<svg width="60" height="41" viewBox="0 0 60 41" fill="none" xmlns="http://www.w3.org/2000/svg">
<path d="M10.0248 28.5181C9.80465 28.5181 9.625 28.3384 9.625 28.1178V5.89978C9.625 5.67965 9.80465 5.5 10.0248 5.5H50.0826C50.3027 5.5 50.4823 5.67965 50.4823 5.89978V28.1178C50.4823 28.3384 50.3027 28.5181 50.0826 28.5181H10.0248ZM36.9705 27.718H49.6821L49.6826 6.30015H10.425V27.718H23.1365V24.3047H20.9456C20.7254 24.3047 20.5458 24.1251 20.5458 23.905V21.4705C20.5458 21.2498 20.7254 21.0702 20.9456 21.0702H22.3978L20.9357 16.2935L20.9326 16.2079C20.9295 16.1637 20.9186 16.1274 20.9124 16.1076L21.0962 11.2448C21.1019 11.0745 21.2156 10.9271 21.3781 10.8772C21.4181 10.8648 21.4575 10.8591 21.4975 10.8591C21.6242 10.8591 21.7441 10.9203 21.8189 11.0231L24.7269 14.9934L24.7664 15.0812L26.2928 20.0213L26.8758 19.9341V10.8741C26.8758 10.6535 27.0555 10.4738 27.2756 10.4738H30.8773C31.0985 10.4738 31.2776 10.6535 31.2776 10.8741V21.0701H32.8933L32.7448 20.6693C32.2251 19.2634 32.6991 17.6169 33.1701 16.3403L33.2241 16.1954L33.1363 16.0682C32.5439 15.209 32.3715 13.9588 32.6862 12.8056C32.9639 11.789 33.2609 11.1624 33.5003 10.6582C33.8024 10.0186 34.0013 9.59959 34.0288 8.7642C34.034 8.62298 34.114 8.49369 34.238 8.42671C34.2978 8.39452 34.3632 8.37791 34.4286 8.37791C34.5018 8.37791 34.574 8.39816 34.6373 8.43658C35.9716 9.24653 38.2519 11.5217 37.3299 14.3305C37.197 14.7329 36.9976 15.1285 36.7032 15.5756L36.6191 15.7033L36.6736 15.8456C37.1721 17.1508 37.7619 19.0698 37.1331 20.6642L36.9727 21.0708H39.1663C39.3875 21.0708 39.5666 21.2504 39.5666 21.4711V23.9055C39.5666 24.1257 39.387 24.3053 39.1663 24.3053H36.9711L36.9705 27.718ZM23.9371 27.718H36.1704V24.3047H23.9371V27.718ZM38.7663 23.5047V21.8698L21.3466 21.8703V23.5052L36.5307 23.5037L38.7663 23.5047ZM33.7576 17.0838C33.1631 18.8699 33.1688 20.0599 33.7773 20.9419L33.8661 21.0706H35.9927L36.0815 20.9429C36.7451 19.9876 36.7741 18.6792 36.1724 16.8252L36.0509 16.453L35.7243 16.6684C35.6111 16.737 35.5519 16.7723 35.4948 16.8013L35.4164 16.8382C35.364 16.8626 35.3136 16.8828 35.2643 16.9L35.1885 16.9259C35.1392 16.941 35.0919 16.9524 35.0452 16.9623C34.9216 16.9872 34.8614 16.995 34.8053 16.9981L34.7077 17.0017L34.6008 16.9882C34.5369 16.9841 34.4731 16.9794 34.4097 16.9675C34.3677 16.9597 34.3256 16.9462 34.2825 16.9342L34.1885 16.9098L33.8999 16.8039L33.7576 17.0838ZM27.6768 21.0701H30.4783V19.8822H29.928C29.7079 19.8822 29.5282 19.7026 29.5282 19.4819C29.5282 19.2612 29.7079 19.0816 29.928 19.0816H30.4783V17.0012H29.928C29.7079 17.0012 29.5282 16.8216 29.5282 16.6009C29.5282 16.3803 29.7079 16.2006 29.928 16.2006H30.4783V14.1197H29.928C29.7079 14.1197 29.5282 13.9401 29.5282 13.7194C29.5282 13.4988 29.7079 13.3191 29.928 13.3191H30.4783V11.2725H27.6768V21.0701ZM21.8187 16.4472L23.2345 21.0701H25.7786L24.1395 15.7291L21.8187 16.4472ZM34.648 9.96872C34.5421 10.327 34.392 10.6437 34.2342 10.9786C33.9855 11.5035 33.716 12.073 33.4585 13.0159C33.1247 14.2334 33.4928 15.3315 33.9751 15.8367C34.0545 15.9208 34.3463 16.2007 34.7181 16.2007C35.1158 16.1778 35.4953 15.9099 35.852 15.426C36.0586 15.154 36.3603 14.7147 36.5695 14.0808C37.042 12.6411 36.5327 11.1338 35.136 9.83579L34.7851 9.50922L34.648 9.96872ZM21.7392 15.6342L23.749 15.0122L21.855 12.425L21.7392 15.6342Z" fill="#D69C47"/>
<path d="M3.30447 41C1.80041 41 0.578125 39.7773 0.578125 38.2742V35.1673C0.578125 34.0915 1.45349 33.2161 2.52931 33.2161H5.28423V1.95065C5.28423 0.875401 6.15959 0 7.23541 0H52.8716C53.9474 0 54.8228 0.875361 54.8228 1.95065V33.2161H57.5777C58.6535 33.2161 59.5289 34.0915 59.5289 35.1673V38.2742C59.5289 39.7773 58.3062 41 56.8025 41H3.30447ZM2.52931 34.0168C1.89485 34.0168 1.37877 34.5329 1.37877 35.1673V38.2742C1.37877 39.336 2.24324 40.1999 3.30497 40.1999H56.8017C57.8635 40.1999 58.7279 39.3359 58.7279 38.2742V35.1673C58.7279 34.5329 58.2118 34.0168 57.5774 34.0168H36.755L34.5494 36.5931C34.4731 36.6819 34.3625 36.7333 34.2457 36.7333H25.8617C25.7449 36.7333 25.6343 36.6819 25.558 36.5931L23.3524 34.0168H2.52931ZM26.0445 35.9326H34.0605L35.7012 34.0168H24.4045L26.0445 35.9326ZM7.23448 0.799347C6.60003 0.799347 6.08395 1.31543 6.08395 1.94988V33.2154H54.0209V1.94988C54.0209 1.31543 53.5048 0.799347 52.8703 0.799347H7.23416H7.23448Z" fill="#D69C47"/>
<path d="M4.71085 37.5071C4.48966 37.5071 4.31055 37.3275 4.31055 37.1068C4.31055 36.8867 4.49019 36.707 4.71085 36.707H6.35779C6.57897 36.707 6.75809 36.8867 6.75809 37.1068C6.75809 37.3275 6.57844 37.5071 6.35779 37.5071H4.71085Z" fill="#D69C47"/>
<path d="M9.74939 37.5071C9.52926 37.5071 9.34961 37.3275 9.34961 37.1068C9.34961 36.8867 9.52926 36.707 9.74939 36.707H11.3973C11.6174 36.707 11.797 36.8867 11.797 37.1068C11.797 37.3275 11.6174 37.5071 11.3973 37.5071H9.74939Z" fill="#D69C47"/>
<path d="M29.2284 31.2669C29.0072 31.2669 28.8281 31.0872 28.8281 30.8671C28.8281 30.6464 29.0078 30.4668 29.2284 30.4668H30.8754C31.0966 30.4668 31.2757 30.6464 31.2757 30.8671C31.2757 31.0872 31.096 31.2669 30.8754 31.2669H29.2284Z" fill="#D69C47"/>
<path d="M29.9271 3.5506C29.707 3.5506 29.5273 3.37095 29.5273 3.1503C29.5273 2.92963 29.707 2.75 29.9271 2.75H30.18C30.4001 2.75 30.5797 2.92965 30.5797 3.1503C30.5797 3.37096 30.4001 3.5506 30.18 3.5506H29.9271Z" fill="#D69C47"/>
</svg>
