<svg width="44" height="42" viewBox="0 0 44 42" fill="none" xmlns="http://www.w3.org/2000/svg">
<path d="M4.48077 33.5098C2.31845 33.5098 0.578125 35.2501 0.578125 37.4124C0.578125 39.5747 2.31845 41.3151 4.48077 41.3151C6.64308 41.3151 8.38341 39.5747 8.38341 37.4124C8.38341 35.2501 6.59044 33.5098 4.48077 33.5098ZM4.48077 40.2071C2.89856 40.2071 1.63315 38.9413 1.63315 37.3595C1.63315 35.7773 2.89893 34.5119 4.48077 34.5119C6.06297 34.5119 7.32838 35.7777 7.32838 37.3595C7.32875 38.9417 6.01033 40.2071 4.48077 40.2071Z" fill="#D69C47"/>
<path d="M38.3382 1.12891C36.1759 1.12891 34.4355 2.86923 34.4355 5.03155C34.4355 7.19387 36.1759 8.93419 38.3382 8.93419C40.5005 8.93419 42.2408 7.19387 42.2408 5.03155C42.1882 2.86923 40.4479 1.12891 38.3382 1.12891ZM38.3382 7.82624C36.756 7.82624 35.4906 6.56045 35.4906 4.97862C35.4906 3.39642 36.7564 2.13101 38.3382 2.13101C39.9204 2.13101 41.1858 3.39679 41.1858 4.97862C41.1332 6.56083 39.8678 7.82624 38.3382 7.82624Z" fill="#D69C47"/>
<path d="M17.4017 13.153C17.7181 13.3112 18.0345 13.4168 18.4038 13.3638L18.8784 15.0516C18.6146 14.946 18.4038 14.7352 18.3509 14.4715C18.2453 14.2077 17.9815 14.0495 17.7181 14.1021C17.4544 14.2077 17.2962 14.4715 17.3488 14.7349C17.6125 15.5788 18.4034 16.1589 19.2473 16.1589L19.2999 16.3697C19.3525 16.5805 19.5637 16.739 19.8275 16.739H19.9856C20.2494 16.6334 20.4076 16.3697 20.355 16.1063L20.2498 15.9481C21.0407 15.4735 21.41 14.577 21.1462 13.6806C20.8825 12.7841 20.0386 12.2039 19.1421 12.2566L18.6146 10.5688C18.6672 10.5688 18.7202 10.6214 18.7728 10.6214C18.9836 10.727 19.1421 10.9378 19.2473 11.2015C19.3529 11.4653 19.6167 11.6235 19.8801 11.5709C20.1438 11.4653 20.302 11.2015 20.2494 10.9381C19.9857 10.0417 19.1948 9.51415 18.2982 9.51415L18.2456 9.35596C18.1401 9.0922 17.8763 8.93402 17.6129 8.98662C17.3491 9.0922 17.191 9.35596 17.2436 9.61936L17.2962 9.77754C16.9798 9.93572 16.7686 10.1995 16.6105 10.5158C16.3467 10.9904 16.2941 11.5179 16.4523 12.045C16.5582 12.5199 16.9272 12.9419 17.4017 13.153ZM20.1442 13.944C20.2497 14.2603 20.1442 14.6296 19.9334 14.8404L19.4588 13.3112C19.7752 13.3639 20.0386 13.6276 20.1442 13.944ZM18.0349 12.3092C17.9823 12.3092 17.9293 12.2566 17.8767 12.2566C17.6659 12.151 17.5073 11.9402 17.4021 11.6765C17.3495 11.4127 17.3495 11.2019 17.4547 10.9382C17.5073 10.8856 17.5073 10.8326 17.5603 10.78L18.0349 12.3092Z" fill="#D69C47"/>
<path d="M24.5731 32.2969L24.5205 32.5077C24.4149 32.7714 24.5731 33.0878 24.8898 33.1404H25.048C25.2588 33.1404 25.4699 32.9822 25.5755 32.771L25.6281 32.6129H25.7337C26.0501 32.6129 26.3664 32.5073 26.6828 32.3491C27.1573 32.0853 27.4737 31.6634 27.6319 31.1889C27.79 30.6614 27.7374 30.1342 27.4737 29.6597C27.3155 29.3433 27.0517 29.0796 26.7354 28.8688L27.2629 27.181C27.4737 27.3918 27.5267 27.7611 27.4211 28.0249C27.3155 28.2887 27.4737 28.605 27.7904 28.6576C28.0542 28.7632 28.3706 28.605 28.4232 28.2883C28.6869 27.3918 28.3176 26.4953 27.5793 26.0208L27.6319 25.8626C27.7375 25.5988 27.5793 25.2825 27.2625 25.2299C26.9988 25.1243 26.6824 25.2825 26.6298 25.5992L26.5772 25.7574C26.2608 25.7574 25.8915 25.81 25.5751 25.9682C25.1006 26.2319 24.7842 26.6539 24.626 27.1284C24.4678 27.6559 24.5205 28.183 24.7842 28.6576C24.9424 28.9739 25.2062 29.2377 25.4699 29.3959L24.9424 31.0837C24.9424 31.031 24.8898 31.031 24.8898 30.9781C24.7842 30.7673 24.7316 30.5035 24.8372 30.2398C24.9428 29.976 24.7846 29.6596 24.4678 29.607C24.2041 29.5015 23.8877 29.6596 23.8351 29.9764C23.6769 30.5039 23.7295 31.031 23.9933 31.5056C24.0985 31.8753 24.3097 32.0861 24.5731 32.2969ZM26.5246 30.1876C26.6302 30.3984 26.6828 30.6621 26.5772 30.9259C26.4717 31.2422 26.2079 31.506 25.8915 31.5586L26.3661 30.0294C26.4191 30.0294 26.4717 30.135 26.5246 30.1876ZM25.6808 28.2364C25.5752 28.0256 25.5226 27.7618 25.6282 27.4981C25.6808 27.2343 25.8389 27.0761 26.1027 26.918C26.1553 26.8654 26.2083 26.8654 26.2609 26.8654L25.7863 28.3945C25.7334 28.3416 25.6808 28.289 25.6808 28.2364Z" fill="#D69C47"/>
<path d="M42.6627 24.8606L26.3142 19.9562L35.3324 17.2667C35.5962 17.1611 35.7543 16.8974 35.7017 16.634L30.9026 0.390922C30.85 0.232739 30.797 0.127161 30.6388 0.074556C30.5332 0.0219516 30.375 -0.0310219 30.2169 0.0219516L1.26417 8.67046C1.0004 8.77604 0.842221 9.0398 0.894827 9.3032L5.694 25.4935C5.74661 25.7043 5.95776 25.8628 6.22152 25.8628H6.37971L10.6513 24.597L8.22522 32.6658C8.11964 32.9296 8.27783 33.246 8.59456 33.2986L37.5472 42H37.7054C37.811 42 37.8636 42 37.9692 41.9474C38.0748 41.8948 38.18 41.7892 38.233 41.631L43.0848 25.4407C43.1374 25.2299 42.9792 24.9136 42.6628 24.861L42.6627 24.8606ZM6.59047 24.7024L2.05507 9.51408L30.0058 1.18161L34.5411 16.3699L24.4684 19.3757L22.1478 18.69L31.113 15.9476C31.3768 15.842 31.535 15.5783 31.4824 15.3149C31.4298 15.1567 31.4298 14.9985 31.535 14.8403C31.5876 14.6821 31.7458 14.5766 31.9043 14.5766C32.0625 14.524 32.1681 14.471 32.2207 14.3128C32.2733 14.2072 32.3263 14.049 32.2733 13.8909L29.4782 4.5563C29.3727 4.29254 29.1089 4.13435 28.8455 4.18696C28.5291 4.29254 28.2128 4.08138 28.1072 3.76502C28.0546 3.60683 28.0016 3.50125 27.8434 3.44865C27.6852 3.39604 27.5797 3.34307 27.4215 3.39605L5.48284 9.98856C5.21908 10.0941 5.0609 10.3579 5.1135 10.6213C5.21908 10.9377 5.00793 11.254 4.69156 11.3596C4.4278 11.4652 4.26962 11.7289 4.32222 11.9923L7.11729 21.3269C7.22287 21.5907 7.48663 21.7488 7.75002 21.6962C8.06639 21.5907 8.38275 21.8018 8.48832 22.1182C8.54093 22.2764 8.6465 22.3819 8.75208 22.4345C8.80469 22.4872 8.91027 22.4872 9.01584 22.4872H9.17403L11.4415 21.7488L10.967 23.3836L6.59047 24.7024ZM11.8642 20.536L9.33289 21.3269C9.01652 20.9049 8.54198 20.6412 8.06711 20.6412L5.53582 12.1505C5.95776 11.8341 6.22151 11.3596 6.22151 10.8321L27.2636 4.55624C27.4218 4.76703 27.58 4.92558 27.8438 5.08376C28.1075 5.24195 28.3183 5.29455 28.5821 5.29455L31.1133 13.7852C30.9026 13.9434 30.744 14.1016 30.5858 14.3654C30.4802 14.5761 30.375 14.8399 30.375 15.1037L20.3022 18.1624L13.7101 16.1583C13.4463 16.0527 13.13 16.2109 13.0774 16.5276L11.8642 20.536ZM37.3362 40.8397L9.38553 32.4546L13.9213 17.3191L41.872 25.7042L37.3362 40.8397Z" fill="#D69C47"/>
<path d="M12.075 30.6611C12.3913 30.7666 12.5495 31.083 12.4969 31.3994C12.4443 31.5575 12.4969 31.6631 12.5495 31.8213C12.6021 31.9795 12.7077 32.0321 12.8659 32.0851L34.7518 38.6772H34.91C35.0156 38.6772 35.0682 38.6772 35.1737 38.6246C35.2793 38.572 35.3845 38.4664 35.4375 38.3082C35.4901 38.1501 35.5957 38.0445 35.7013 37.9389C35.8594 37.8863 36.0176 37.8333 36.1758 37.8863C36.4396 37.9919 36.7559 37.8337 36.8085 37.517L39.6036 28.1824C39.7092 27.9186 39.551 27.6023 39.2343 27.5497C38.9179 27.4441 38.7597 27.1277 38.8123 26.8114C38.8649 26.6532 38.8123 26.5476 38.7597 26.3894C38.7071 26.2838 38.6015 26.1786 38.4434 26.1256L16.5584 19.5335C16.4002 19.4809 16.2946 19.5335 16.1364 19.5861C16.0309 19.6387 15.9257 19.7443 15.8727 19.9025C15.8201 20.0607 15.7145 20.1662 15.6089 20.2718C15.4507 20.3244 15.2926 20.3774 15.1344 20.3244C14.9762 20.2718 14.8706 20.3244 14.7124 20.377C14.6068 20.4296 14.5016 20.5352 14.4487 20.6934L11.7062 29.9757C11.601 30.2391 11.7592 30.5558 12.0756 30.661L12.075 30.6611ZM15.3975 21.3794C15.6613 21.3794 15.925 21.3268 16.1358 21.1686C16.3466 21.0631 16.5577 20.8523 16.7159 20.6941L37.758 27.0224C37.758 27.55 38.0218 28.0245 38.4437 28.3409L35.9125 36.8315C35.3849 36.8315 34.9104 37.0953 34.594 37.5172L13.5519 31.1889C13.5519 30.6614 13.2881 30.1868 12.8662 29.8705L15.3975 21.3794Z" fill="#D69C47"/>
</svg>
