<svg width="50" height="46" viewBox="0 0 50 46" fill="none" xmlns="http://www.w3.org/2000/svg">
<path d="M20.8726 32.2523C21.2825 32.2523 21.2825 32.8755 20.8726 32.8755H13.8649C13.4397 32.8755 13.0927 32.5286 13.0927 32.1033V0.786891C13.0927 0.361659 13.4396 0.014714 13.8649 0.014714H37.3821C37.8073 0.014714 38.1542 0.36165 38.1542 0.786891V32.1033C38.1542 32.5282 37.8073 32.8755 37.3821 32.8755H30.2129C29.803 32.8755 29.803 32.2523 30.2129 32.2523H37.3821C37.4631 32.2523 37.531 32.1844 37.531 32.1033V0.786891C37.531 0.705463 37.4631 0.637952 37.3821 0.637952H13.8649C13.7835 0.637952 13.7159 0.70546 13.7159 0.786891V32.1033C13.7159 32.1848 13.7838 32.2523 13.8649 32.2523H20.8726ZM19.7326 8.6282C19.3226 8.6282 19.3226 8.00496 19.7326 8.00496H31.5147C31.9247 8.00496 31.9247 8.6282 31.5147 8.6282H19.7326ZM22.2238 5.99052C21.8138 5.99052 21.8138 5.36728 22.2238 5.36728H29.023C29.4329 5.36728 29.4329 5.99052 29.023 5.99052H22.2238ZM43.4854 19.4136L43.7122 19.1147C43.9176 18.8443 44.3292 19.1565 44.1239 19.4272L43.8901 19.7355C43.6879 20.0021 43.6639 19.9864 44.0567 19.9899C46.2543 20.0076 48.1957 16.9137 47.5585 14.9048C47.4872 14.6797 47.5001 14.7054 47.2579 14.7138C45.2316 14.783 42.7431 17.3018 43.1962 19.3319C43.287 19.739 43.2748 19.6913 43.4854 19.414L43.4854 19.4136ZM43.3886 26.1864L44.1744 25.622C44.4517 25.4222 44.7524 25.8454 44.4761 26.0444L43.7874 26.5389C43.4958 26.7481 43.485 26.7219 43.8796 26.7996C46.0698 27.23 48.5558 24.9618 48.4218 22.7814C48.402 22.4595 48.3895 22.4926 48.0578 22.4317C46.0016 22.0555 43.0041 23.9034 43.1113 26.0493C43.1304 26.4307 43.1221 26.3774 43.3886 26.1864ZM40.9451 31.9726L42.4793 31.7666C42.8169 31.7214 42.8851 32.2395 42.5479 32.2851L41.2106 32.4647C40.7707 32.5238 40.7603 32.5002 41.196 32.7396C43.1158 33.7933 46.0559 33.1655 46.8277 30.9802C46.9356 30.6743 46.9527 30.7067 46.6955 30.5195C44.9375 29.2389 41.7353 29.6794 40.7471 31.6956C40.5589 32.0798 40.5755 32.0224 40.9451 31.9726ZM7.22068 19.8297L6.9228 19.4371C6.71749 19.1668 7.1295 18.8543 7.33447 19.1246L7.62085 19.5019C7.77361 19.7033 7.7503 19.7086 7.83556 19.4337C8.49464 17.3006 6.05149 14.8517 3.92141 14.7153C3.53445 14.6906 3.54037 14.6705 3.44154 15.0466C2.89417 17.1363 4.92915 20.3798 7.15552 20.0399C7.40468 20.0019 7.36084 20.0138 7.22095 19.8297L7.22068 19.8297ZM7.37205 26.6084L6.64894 26.1188C6.36778 25.9281 6.65799 25.5004 6.93916 25.6908L7.70855 26.2117C7.91977 26.3547 7.90307 26.3909 7.9236 26.109C8.08681 23.8697 5.11017 22.0213 2.99791 22.4351C2.64192 22.5046 2.62208 22.5207 2.6193 22.9007C2.60329 25.0697 5.33671 27.6593 7.36612 26.861C7.6619 26.7448 7.60484 26.766 7.37238 26.6084L7.37205 26.6084ZM10.3025 32.3689L8.63392 32.1448C8.29637 32.0996 8.36528 31.5863 8.70282 31.6315L10.3624 31.8542C10.5353 31.8775 10.5141 31.8873 10.4365 31.7095C9.54217 29.6609 6.05401 29.4712 4.36624 30.7925C4.02765 31.0577 4.02799 31.057 4.25558 31.4401C5.32565 33.2406 9.08729 34.0921 10.3589 32.5188C10.4814 32.3675 10.4768 32.3918 10.3028 32.3685L10.3025 32.3689ZM29.2684 35.2115C29.0589 34.8615 29.5934 34.5462 29.8029 34.8966L31.5827 37.8667C31.8016 38.2321 31.8625 38.1809 31.4596 38.2362L30.1549 38.4154C29.8414 38.4586 29.9159 38.4276 29.7467 38.7004L28.8966 40.0694L26.9388 37.013C26.7182 36.6692 27.2416 36.3334 27.4622 36.6772L28.7709 38.7202C28.9115 38.9398 28.8659 38.9395 29.0037 38.7175L29.3987 38.0814C29.5441 37.8472 29.4815 37.8806 29.7526 37.8433L30.4513 37.7473C30.8581 37.686 30.7732 37.7229 30.5457 37.3426L29.2682 35.2112L29.2684 35.2115ZM21.5223 34.8966C21.7318 34.5465 22.2649 34.8653 22.0554 35.2154L20.7125 37.4556C20.5337 37.7542 20.5076 37.6968 20.8531 37.7445L21.5153 37.8353C21.8285 37.8784 21.7676 37.8255 21.9326 38.0914L22.2771 38.6464C22.4615 38.9436 22.4016 38.9575 22.5857 38.6698L23.8625 36.6765C24.0831 36.3327 24.6065 36.6685 24.3858 37.0123L22.6591 39.7082C22.3828 40.1393 22.4726 40.14 22.2022 39.705L21.5494 38.6534C21.3932 38.4018 21.4488 38.453 21.1513 38.4122L19.8833 38.2383C19.4751 38.1822 19.5141 38.2463 19.7281 37.8892L21.522 34.8962L21.5223 34.8966ZM26.972 32.5432C26.972 32.1333 27.5953 32.1333 27.5953 32.5432C27.5953 33.6665 26.6846 34.5772 25.5613 34.5772C25.1514 34.5772 25.1514 33.9539 25.5613 33.9539C26.3405 33.9539 26.972 33.3223 26.972 32.5432ZM27.9269 30.1776C29.2263 31.477 29.2263 33.6094 27.9269 34.9087C26.6276 36.2081 24.4952 36.2081 23.1958 34.9087C21.8964 33.6094 21.8964 31.477 23.1958 30.1776C24.4952 28.8782 26.6276 28.8782 27.9269 30.1776ZM27.4864 30.6181C26.4292 29.561 24.6934 29.561 23.6363 30.6181C22.5791 31.6753 22.5791 33.4111 23.6363 34.4682C24.6934 35.5254 26.4292 35.5254 27.4864 34.4682C28.5435 33.4111 28.5435 31.6753 27.4864 30.6181ZM41.9384 0.778695C40.5465 1.69875 40.4094 4.89186 41.9847 5.57353C42.1117 5.62851 42.1075 5.62468 42.2377 5.57631C43.8979 4.95691 43.6849 1.83133 42.3233 0.800988C42.1308 0.655185 42.1389 0.646459 41.9384 0.778695ZM42.3818 0.103958C44.4898 1.23594 44.7184 5.53663 42.2791 6.21527C42.078 6.2713 42.0846 6.2699 41.8848 6.201C39.5749 5.40482 39.7632 1.02828 41.9228 0.0827419C42.1695 -0.0251294 42.1448 -0.0237398 42.3818 0.103621V0.103958ZM44.937 7.63428C43.0927 8.20323 41.5389 11.1618 42.9299 12.6982C43.0329 12.8119 43.02 12.8088 43.1738 12.8119C45.2321 12.8516 46.2795 9.35924 45.1866 7.738C45.0829 7.58454 45.1072 7.58174 44.937 7.63428ZM45.4715 7.09665C47.2661 9.08464 45.7767 13.7195 42.958 13.4219C42.7284 13.3976 42.7454 13.3924 42.5746 13.225C40.6175 11.3044 42.5718 7.43731 45.0776 6.96062C45.3289 6.91295 45.292 6.89795 45.4715 7.09665ZM48.0372 14.4123C49.2068 17.0395 46.3585 21.2832 43.3565 20.5215C42.9835 20.4268 42.9925 20.4418 42.8161 20.1025C41.5045 17.5782 44.7749 13.931 47.5424 14.0984C47.9123 14.1207 47.8914 14.0852 48.0372 14.4123ZM49.013 22.4497C49.4667 25.3901 45.8606 28.4548 43.0144 27.17C42.6737 27.0162 42.6894 27.0475 42.5902 26.6919C41.7986 23.8551 45.7047 21.1736 48.4085 21.8744C48.9231 22.0077 48.9395 21.9719 49.0133 22.4497L49.013 22.4497ZM47.24 30.1536C47.6332 30.4752 47.6308 30.4167 47.5066 30.8903C46.6725 34.0681 42.2141 34.8041 40.0055 32.6191C39.8701 32.4851 39.8729 32.4499 39.9056 32.2624C40.4571 29.124 44.9297 28.2644 47.24 30.1536ZM9.01692 0.038909C11.2893 0.886245 11.5186 5.44691 9.11922 6.21632C8.95533 6.26887 8.96367 6.26748 8.79699 6.22293C6.27583 5.55132 6.5699 1.08637 8.77715 0.0486389C8.91356 -0.0153899 8.87564 -0.0136361 9.01692 0.038909ZM8.80326 0.745663C7.40474 1.69422 7.10577 4.85464 8.75907 5.55511C8.93167 5.62818 8.93967 5.63375 9.10775 5.55372C10.6664 4.81112 10.4798 1.5895 9.04511 0.737946C8.91288 0.659302 8.92992 0.659711 8.80326 0.745663ZM6.22402 7.00904C8.58999 7.64446 10.364 11.2482 8.59935 13.1398C8.34462 13.4129 8.34566 13.4182 7.97541 13.4338C5.32518 13.5441 3.92701 9.26364 5.4964 7.24358C5.78453 6.87228 5.76852 6.8869 6.22403 7.00939L6.22402 7.00904ZM5.80366 7.903C4.89892 9.55175 5.88613 12.7243 7.80216 12.8106C8.0621 12.8224 8.06663 12.8183 8.23018 12.6175C9.44982 11.1198 8.07846 8.40935 6.35871 7.70781C5.99472 7.55922 5.99575 7.55292 5.80366 7.903ZM3.51153 14.0974C6.38591 13.9088 9.70008 17.4471 8.19644 20.168C8.06143 20.4123 8.07987 20.3977 7.81992 20.5004C4.86555 21.6696 1.82798 17.2223 2.98223 14.4806C3.14196 14.101 3.10718 14.1239 3.51153 14.0974ZM2.55424 21.9003C5.30577 21.0818 9.2397 23.7421 8.45567 26.6951C8.38747 26.9522 8.40904 26.9529 8.20686 27.1022C5.65827 28.9845 1.56283 25.4928 2.02874 22.4998C2.09729 22.0582 2.12653 22.0276 2.55454 21.9002L2.55424 21.9003ZM3.71856 30.5372C5.77515 28.5624 10.4774 28.995 11.1775 31.9636C11.2398 32.2277 11.244 32.2124 11.1278 32.4619C9.93806 35.0126 4.63964 34.0727 3.53518 31.3821C3.33056 30.8835 3.33578 30.9046 3.71856 30.5372Z" fill="#D69C47"/>
<path d="M0.579265 44.991H0.576172V44.9894V44.9879C0.576945 44.9871 0.578105 44.9863 0.579265 44.9863V44.9879H0.577718V44.9894V44.991H0.579265Z" fill="#D69C47"/>
<path d="M0.582321 44.9904C0.582321 44.9893 0.581272 44.9883 0.580223 44.9883V44.9904V44.9925H0.578125V44.9883H0.580223H0.582321V44.9904Z" fill="#D69C47"/>
<path d="M0.588181 44.9904H0.586083V44.9925H0.583984V44.9904L0.586083 44.9883C0.587132 44.9883 0.588181 44.9893 0.588181 44.9904Z" fill="#D69C47"/>
<path d="M0.588036 44.9904V44.9925L0.590134 44.9904H0.588036ZM0.590134 44.9904V44.9925H0.588036H0.585938V44.9904H0.588036V44.9883H0.590134V44.9904Z" fill="#D69C47"/>
<path d="M0.59139 44.9863V44.9879V44.9894V44.991H0.589844V44.9894V44.9863H0.59139Z" fill="#D69C47"/>
<path d="M0.59404 44.9904H0.591942V44.9925H0.589844V44.9904L0.591942 44.9883C0.592991 44.9883 0.59404 44.9893 0.59404 44.9904Z" fill="#D69C47"/>
<path d="M0.596843 44.9879V44.9863V44.991H0.595297H0.59375V44.9894L0.595297 44.9879H0.596843ZM0.595297 44.991L0.596843 44.9894H0.595297V44.991Z" fill="#D69C47"/>
<path d="M0.603109 44.991H0.604656V44.9894C0.604656 44.9886 0.603882 44.9879 0.603109 44.9879V44.9894V44.991ZM0.603109 44.9879H0.604656V44.9894V44.991H0.603109H0.601562V44.9863H0.603109V44.9879Z" fill="#D69C47"/>
<path d="M0.605469 44.9883H0.607015V44.9898L0.608562 44.9883L0.607015 44.9914V44.9929H0.605469V44.9914H0.607015L0.605469 44.9883Z" fill="#D69C47"/>
<path d="M0.610515 44.9879H0.608968V44.9894V44.991H0.610515V44.9894V44.9879ZM0.610515 44.9863V44.9879C0.611288 44.9879 0.612062 44.9886 0.612062 44.9894L0.610515 44.991H0.607422V44.9894V44.9879C0.608195 44.9871 0.609355 44.9863 0.610515 44.9863Z" fill="#D69C47"/>
<path d="M0.613281 44.9863H0.614828V44.991H0.613281V44.9863Z" fill="#D69C47"/>
<path d="M0.619431 44.9904H0.617333V44.9925H0.615234V44.9904L0.617333 44.9883C0.618382 44.9883 0.619431 44.9893 0.619431 44.9904Z" fill="#D69C47"/>
<path d="M0.615234 44.9863H0.616781V44.9894V44.991H0.615234V44.9863Z" fill="#D69C47"/>
<path d="M0.627243 44.9883V44.9904C0.627243 44.9893 0.626194 44.9883 0.625145 44.9883V44.9904H0.627243V44.9925H0.625145V44.9904H0.623047V44.9883H0.625145H0.627243Z" fill="#D69C47"/>
<path d="M0.627098 44.9904V44.9925L0.629196 44.9904H0.627098ZM0.629196 44.9904V44.9925H0.627098H0.625V44.9904H0.627098V44.9883H0.629196V44.9904Z" fill="#D69C47"/>
<path d="M0.633103 44.9904H0.631004V44.9925H0.628906V44.9883H0.631004H0.633103V44.9904Z" fill="#D69C47"/>
<path d="M0.635906 44.9879V44.9863V44.991H0.634359H0.632812V44.9894L0.634359 44.9879H0.635906ZM0.634359 44.991L0.635906 44.9894H0.634359V44.991Z" fill="#D69C47"/>
<path d="M0.640915 44.9904C0.640915 44.9893 0.639866 44.9883 0.638817 44.9883V44.9904V44.9925H0.636719V44.9883H0.638817H0.640915V44.9904Z" fill="#D69C47"/>
<path d="M0.640625 44.9863H0.642172C0.642945 44.9863 0.643718 44.9871 0.643718 44.9879V44.9894H0.642172V44.991H0.640625V44.9863ZM0.642172 44.9879V44.9894H0.643718V44.9879H0.642172Z" fill="#D69C47"/>
<path d="M0.646629 44.9904V44.9925L0.648728 44.9904H0.646629ZM0.648728 44.9904V44.9925H0.646629H0.644531V44.9904H0.646629V44.9883H0.648728V44.9904Z" fill="#D69C47"/>
<path d="M0.650681 44.9904H0.648583V44.9925H0.646484V44.9883H0.648583H0.650681V44.9904Z" fill="#D69C47"/>
<path d="M0.652489 44.9904V44.9925L0.654587 44.9904H0.652489ZM0.654587 44.9904V44.9925H0.652489H0.650391V44.9904H0.652489V44.9883H0.654587V44.9904Z" fill="#D69C47"/>
<path d="M0.654587 44.9883V44.9904C0.654587 44.9893 0.653538 44.9883 0.652489 44.9883V44.9904H0.654587V44.9925H0.652489V44.9904H0.650391V44.9883H0.652489H0.654587Z" fill="#D69C47"/>
<path d="M0.658348 44.9904V44.9925L0.660446 44.9904H0.658348ZM0.658348 44.9883C0.659397 44.9883 0.660446 44.9893 0.660446 44.9904V44.9925H0.658348H0.65625V44.9904L0.658348 44.9883Z" fill="#D69C47"/>
<path d="M0.660156 44.9883H0.662254V44.9904L0.664353 44.9883V44.9925H0.662254L0.660156 44.9883Z" fill="#D69C47"/>
<path d="M0.666306 44.9883V44.9904C0.666306 44.9893 0.665257 44.9883 0.664208 44.9883V44.9904H0.666306V44.9925H0.664208V44.9904H0.662109V44.9883H0.664208H0.666306Z" fill="#D69C47"/>
<path d="M0.667969 44.9863H0.669515V44.9894V44.991H0.667969V44.9863Z" fill="#D69C47"/>
<path d="M0.667969 44.9883H0.669515V44.9898L0.671062 44.9883L0.669515 44.9914V44.9929H0.667969V44.9914H0.669515L0.667969 44.9883Z" fill="#D69C47"/>
<path d="M0.671875 44.9879H0.673422V44.991H0.671875V44.9879ZM0.671875 44.9863H0.673422V44.9879H0.671875V44.9863Z" fill="#D69C47"/>
<path d="M0.579265 44.9961V44.9976H0.577718V45.0007H0.576172V44.9976L0.577718 44.9961H0.579265Z" fill="#D69C47"/>
<path d="M0.582321 44.9982C0.582321 44.9971 0.581272 44.9961 0.580223 44.9961V44.9982V45.0003H0.578125V44.9961H0.580223H0.582321V44.9982Z" fill="#D69C47"/>
<path d="M0.582176 44.9982V45.0003L0.584275 44.9982H0.582176ZM0.582176 44.9961C0.583225 44.9961 0.584275 44.9971 0.584275 44.9982V45.0003H0.582176H0.580078V44.9982L0.582176 44.9961Z" fill="#D69C47"/>
<path d="M0.587078 44.9961H0.588624C0.587464 44.9961 0.587078 44.9969 0.587078 44.9976H0.585531V44.9992H0.583984V44.9961H0.585531H0.587078Z" fill="#D69C47"/>
<path d="M0.59139 44.9961V44.9976V44.9992V45.0007H0.589844V44.9992V44.9961H0.59139Z" fill="#D69C47"/>
<path d="M0.596843 44.9992H0.595297V45.0007H0.59375V44.9961H0.595297V44.9976H0.596843V44.9992Z" fill="#D69C47"/>
<path d="M0.601853 44.9982H0.599754V45.0003H0.597656V44.9982L0.599754 44.9961C0.600804 44.9961 0.601853 44.9971 0.601853 44.9982Z" fill="#D69C47"/>
<path d="M0.601562 44.9961H0.603109L0.604656 44.9992V44.9961H0.606202V45.0007H0.604656L0.603109 44.9976V45.0007H0.601562V44.9961Z" fill="#D69C47"/>
<path d="M0.60952 44.9982V45.0003L0.611618 44.9982H0.60952ZM0.60952 44.9961C0.610569 44.9961 0.611618 44.9971 0.611618 44.9982V45.0003H0.60952H0.607422V44.9982L0.60952 44.9961Z" fill="#D69C47"/>
<path d="M0.607422 44.9982V44.9961H0.60952V44.9982V45.0003L0.611618 44.9982V44.9961V45.0003H0.60952H0.607422V44.9982Z" fill="#D69C47"/>
<path d="M0.617478 44.9982H0.615379V45.0003H0.613281V44.9961H0.615379H0.617478V44.9982Z" fill="#D69C47"/>
<path d="M0.615234 44.9961H0.616781C0.617554 44.9961 0.618328 44.9969 0.618328 44.9976V44.9992H0.616781V45.0007H0.615234V44.9961ZM0.616781 44.9976V44.9992H0.618328V44.9976H0.616781Z" fill="#D69C47"/>
<path d="M0.629196 44.9982C0.629196 44.9971 0.628147 44.9961 0.627098 44.9961V44.9982V45.0003H0.625V44.9961H0.627098H0.629196V44.9982Z" fill="#D69C47"/>
<path d="M0.627098 44.9982V45.0003L0.629196 44.9982H0.627098ZM0.627098 44.9961C0.628147 44.9961 0.629196 44.9971 0.629196 44.9982V45.0003H0.627098H0.625V44.9982L0.627098 44.9961Z" fill="#D69C47"/>
<path d="M0.628906 44.9979H0.630719V45.0015C0.630719 45.0024 0.629813 45.0033 0.628906 45.0033V44.9979ZM0.628906 44.9961H0.630719V44.9979H0.628906V44.9961Z" fill="#D69C47"/>
<path d="M0.635056 44.9982H0.632958V45.0003H0.630859V44.9982L0.632958 44.9961C0.634007 44.9961 0.635056 44.9971 0.635056 44.9982Z" fill="#D69C47"/>
<path d="M0.637009 44.9961V44.9982C0.637009 44.9971 0.63596 44.9961 0.634911 44.9961V44.9982V45.0003H0.632812V44.9982L0.634911 44.9961H0.637009Z" fill="#D69C47"/>
<path d="M0.638265 44.9961V44.9976V44.9992V45.0007H0.636719V44.9992V44.9961H0.638265Z" fill="#D69C47"/>
</svg>
