<svg width="49" height="49" viewBox="0 0 49 49" fill="none" xmlns="http://www.w3.org/2000/svg">
<circle cx="24.1678" cy="24.5122" r="23.8335" fill="white"/>
<path d="M41.6629 14.4249C42.5007 17.6919 42.5007 24.512 42.5007 24.512C42.5007 24.512 42.5007 31.3321 41.6629 34.5991C41.1972 36.4049 39.835 37.8258 38.1098 38.3061C34.9766 39.1788 24.1672 39.1788 24.1672 39.1788C24.1672 39.1788 13.3633 39.1788 10.2246 38.3061C8.4921 37.8184 7.13175 36.3994 6.67158 34.5991C5.83374 31.3321 5.83374 24.512 5.83374 24.512C5.83374 24.512 5.83374 17.6919 6.67158 14.4249C7.13725 12.6191 8.49943 11.1982 10.2246 10.7179C13.3633 9.84521 24.1672 9.84521 24.1672 9.84521C24.1672 9.84521 34.9766 9.84521 38.1098 10.7179C39.8424 11.2056 41.2027 12.6246 41.6629 14.4249ZM20.5005 30.9287L31.5006 24.512L20.5005 18.0953V30.9287Z" fill="#6D9AE4"/>
</svg>
