<svg width="80" height="80" viewBox="0 0 80 80" fill="none" xmlns="http://www.w3.org/2000/svg">
<rect y="-6.10352e-05" width="79.3752" height="79.3752" rx="6.84269" fill="#6D9AE4" fill-opacity="0.7"/>
<path d="M70.3897 29.4452C70.333 29.4771 64.1293 32.5332 58.0665 32.5332C51.8799 32.5332 43.4759 30.4533 43.3918 30.4318C43.0403 30.3438 42.668 30.4404 42.4037 30.688C42.1389 30.9356 42.0184 31.3009 42.0832 31.6575L43.986 42.1332H30.2146L28.6584 28.9067C28.3846 26.5781 29.1188 24.2434 30.6765 22.4905C32.234 20.7382 34.4665 19.7349 36.8111 19.7335H69.7994V17.6002H36.8111C33.8578 17.6016 31.046 18.8644 29.0836 21.0711C27.1212 23.2778 26.1956 26.2182 26.5388 29.151L28.0664 42.1337H27.1331C26.5441 42.1337 26.0664 42.6113 26.0664 43.2003V52.8002H9V54.9335H13.2666V69.8666H9V72H56.9994C57.2822 72 57.5537 71.8876 57.7537 71.6876C57.9537 71.4876 58.066 71.2161 58.066 70.9333H67.6659V68.8H58.066V57.0668H67.6659V54.9335H58.066V53.8669C58.066 53.584 57.9537 53.3126 57.7537 53.1126C57.5537 52.9126 57.2822 52.8002 56.9994 52.8002H48.4662V43.2003C48.4662 42.9175 48.3538 42.646 48.1538 42.446C47.9538 42.246 47.6824 42.1337 47.3995 42.1337H46.1567L44.4725 32.8743C48.9348 33.9128 53.4876 34.5133 58.0659 34.6671C62.6702 34.4795 67.1882 33.3542 71.3424 31.3605L70.3897 29.4452ZM15.4004 54.9327H17.5337V69.8658H15.4004V54.9327ZM55.9332 54.9327V69.8658H42.0143C42.8847 69.3192 43.6919 68.6777 44.4209 67.9534C47.0199 65.3687 48.4766 61.8515 48.4666 58.1859V54.9326L55.9332 54.9327ZM46.3333 58.186C46.3338 61.2836 45.1033 64.255 42.9128 66.4455C40.7223 68.6359 37.7509 69.8663 34.6534 69.8659H19.6666V54.9328H27.1332C27.416 54.9328 27.6875 54.8204 27.8874 54.6204C28.0874 54.4204 28.1998 54.149 28.1998 53.8661V44.2663H46.3329L46.3333 58.186Z" fill="white"/>
<path d="M17.5337 39.9995V37.8662H19.667V35.7329H17.5337V33.5996H15.4004V35.7329H13.2671V37.8662H15.4004V39.9995H17.5337Z" fill="white"/>
<path d="M21.8003 15.4665V13.3332H23.9336V11.1999H21.8003V9.06659H19.667V11.1999H17.5337V13.3332H19.667V15.4665H21.8003Z" fill="white"/>
<path d="M49.5332 14.3999V12.2666H51.6665V10.1332H49.5332V7.99994H47.3999V10.1332H45.2666V12.2666H47.3999V14.3999H49.5332Z" fill="white"/>
<path d="M59.1331 45.3328V43.1995H61.2664V41.0662H59.1331V38.9329H56.9998V41.0662H54.8665V43.1995H56.9998V45.3328H59.1331Z" fill="white"/>
<path d="M39.9333 21.8664H60.1998V23.9997H39.9333V21.8664Z" fill="white"/>
<path d="M62.333 21.8664H64.4663V23.9997H62.333V21.8664Z" fill="white"/>
</svg>
