<svg width="80" height="80" viewBox="0 0 80 80" fill="none" xmlns="http://www.w3.org/2000/svg">
<rect width="79.3752" height="79.3752" rx="6.84269" fill="#6D9AE4" fill-opacity="0.7"/>
<path d="M66.2826 21.1393C65.2451 19.8541 63.3692 19.579 61.9573 20.471L60.9688 21.0429L63.0582 18.7019C64.2795 17.5496 64.4759 15.6646 63.4977 14.3731C62.9503 13.6488 62.1177 13.1848 61.2125 13.0981C60.2993 13.0056 59.3913 13.3081 58.6689 13.9604C57.0286 15.5732 55.8307 16.7507 54.9552 17.613L58.2213 10.9836C59.0409 9.35763 58.4382 7.37328 56.8477 6.46408C56.0173 5.99039 55.0528 5.87512 54.134 6.13763C53.2225 6.3996 52.4754 7.00054 52.0224 7.84688L47.6051 16.3544C47.5714 16.3972 47.5389 16.4428 47.5075 16.4885L48.0742 9.94709C48.0777 8.06427 46.5321 6.52056 44.6306 6.50405C42.8301 6.45554 41.2891 7.87262 41.1499 9.55568L39.8709 17.6975L39.3579 20.6001L39.0913 19.6938C38.7067 17.8819 36.9615 16.6913 35.1112 16.9829C33.2319 17.2791 31.9245 19.0374 32.2041 20.9493L33.8911 30.1833C33.9043 30.2575 33.9237 30.33 33.9494 30.3991L34.3289 31.4611C33.4911 31.5097 32.667 31.803 32.0038 32.3172C31.2619 32.8679 30.7112 33.6658 30.4641 34.5441C30.2306 34.5024 30.0098 34.4893 29.7769 34.4893H29.7358C28.8284 34.4893 27.9204 34.7912 27.1785 35.3551C26.1746 36.0981 25.556 37.2527 25.5012 38.5043C24.6349 38.546 23.8102 38.8347 23.1231 39.3569C22.1324 40.0857 21.5274 41.1986 21.4321 42.4086C21.3768 42.4086 21.3089 42.4086 21.2261 42.3954C20.3735 42.3954 19.534 42.6711 18.8885 43.1659C17.8298 43.9489 17.1975 45.1999 17.1975 46.5205C17.1975 47.4 17.5 48.2812 18.0359 48.9815C18.0439 48.998 20.6166 52.3681 22.8716 55.3106L12.2654 69.8118C11.8169 70.4253 11.9504 71.2859 12.5634 71.7345C13.178 72.1831 14.0369 72.0472 14.4855 71.436L15.0796 70.6233L24.6161 57.5843C25.4185 58.6281 26.0126 59.3974 26.1627 59.5812C28.195 62.0506 31.7957 64.1418 34.4351 65.4624L31.944 69.9556C31.8264 70.1674 31.7779 70.3968 31.7779 70.6233C31.7785 71.1067 32.0284 71.5747 32.4804 71.827C32.6916 71.9434 32.9199 71.9988 33.1459 71.9988C33.6293 71.9988 34.0984 71.7437 34.3495 71.2911L36.6838 67.0816L40.5881 71.5314C40.8489 71.8339 41.2204 71.9994 41.6188 71.9994C41.9486 71.9994 42.2791 71.8761 42.5262 71.6558C42.8332 71.3864 42.9879 71.0069 42.9879 70.624C42.9885 70.3032 42.8823 69.9791 42.6506 69.7166L38.1038 64.5213L37.7414 64.1064L37.2871 63.776C37.2739 63.776 37.2739 63.776 37.246 63.7629C37.1889 63.736 37.1067 63.6984 37.0114 63.6539C36.7335 63.5254 36.2997 63.3217 35.7696 63.0575C35.168 62.7573 34.4455 62.3806 33.6711 61.9332C32.516 61.2877 29.6835 59.5818 28.3087 57.8498C28.1404 57.646 27.3425 56.6136 26.31 55.2702C26.0333 54.9101 25.7405 54.5289 25.4369 54.1339C25.1521 53.7635 24.8599 53.3812 24.5654 52.9965C23.1854 51.193 21.761 49.3269 20.9386 48.2391C20.2366 47.3448 20.2235 47.318 20.2235 47.318C20.0443 47.0709 19.9478 46.8089 19.9478 46.5202C19.9478 46.0659 20.1681 45.6407 20.5391 45.365C20.7303 45.2286 20.9517 45.159 21.2393 45.1447H21.2673C21.7764 45.1447 22.4218 45.4472 22.7243 45.8319L22.7409 45.8399C22.7449 45.8456 22.7472 45.8524 22.7517 45.857V45.8593C22.7534 45.861 22.754 45.861 22.7552 45.8627C22.8117 45.9397 22.8756 46.0117 22.9481 46.0773L25.3006 48.1718C25.5625 48.4058 25.8895 48.5194 26.2143 48.5194C26.5921 48.5194 26.9705 48.3641 27.2421 48.0588C27.7472 47.4921 27.697 46.6223 27.1291 46.1173L24.8817 44.1158L24.4422 43.5086C24.2636 43.2729 24.1814 43.0126 24.1814 42.7107C24.1814 42.2576 24.3874 41.8301 24.7589 41.5545C25.034 41.349 25.3633 41.2389 25.6943 41.2389C26.1486 41.252 26.5327 41.4312 26.7941 41.7748C26.8671 41.8695 26.9539 41.95 27.0469 42.0225L29.7692 45.211C29.8577 45.3149 29.9616 45.3959 30.0706 45.4661C30.2966 45.6116 30.5534 45.6927 30.8159 45.6927C31.1315 45.6927 31.4494 45.5837 31.7079 45.3628C32.2855 44.8703 32.3546 44.0011 31.862 43.4246L31.7017 43.2363L28.5862 39.5866L28.5143 39.4919C28.3356 39.2585 28.2535 38.9977 28.2392 38.6958C28.2529 38.2426 28.4583 37.8283 28.8299 37.5544C29.1055 37.3483 29.4211 37.2376 29.751 37.2376C30.2053 37.2376 30.6036 37.4299 30.8645 37.7604L31.1401 38.1319C31.155 38.1507 31.1755 38.1644 31.1909 38.1827L33.3705 40.9553L33.395 40.9861C33.6667 41.3314 34.0702 41.5112 34.4765 41.5112C34.5444 41.5112 34.6123 41.5049 34.6797 41.4946C34.9079 41.4609 35.1311 41.3702 35.3263 41.2172C35.7315 40.8999 35.9021 40.4 35.8285 39.9234C35.7931 39.6986 35.7081 39.4783 35.5568 39.286L35.0563 38.6496L33.3037 36.4192L33.298 36.4129C33.1473 36.1921 33.0646 35.9455 33.0646 35.6699C33.0646 35.2156 33.2706 34.7887 33.6558 34.5148C33.9297 34.3087 34.2334 34.198 34.5769 34.198C34.8925 34.198 35.1728 34.2962 35.4073 34.4691C35.5095 34.5445 35.6071 34.6295 35.6904 34.7339L37.693 37.3724L38.5605 38.5155L44.0912 45.8029L44.1049 45.816C44.3297 46.1185 44.6744 46.2966 45.0357 46.3388C45.3804 46.3799 45.7411 46.2977 46.0299 46.0763C46.0984 46.0215 46.1674 45.9656 46.2222 45.8976L46.237 45.8839C46.237 45.8708 46.2502 45.8708 46.2502 45.8577L46.2781 45.8292C46.3746 45.7059 46.4436 45.5683 46.4984 45.4308C46.5943 45.142 46.5943 44.8264 46.4984 44.5376C46.5058 44.3345 46.568 43.911 46.6571 43.4162C46.7313 43.0053 46.8249 42.5476 46.9247 42.1167C47.0212 41.7332 47.1718 41.1003 47.379 40.3434C47.3927 40.3166 47.3927 40.3035 47.3927 40.3035C47.4892 39.9599 47.4475 39.6015 47.282 39.299C46.1275 37.1549 45.4398 35.5181 45.4946 35.037C45.5077 34.9673 45.5077 34.9137 45.5077 34.8857C45.5494 34.8726 45.6042 34.8441 45.6875 34.775C46.168 34.5279 46.636 34.3766 46.9516 34.3766C47.2684 34.3903 47.3642 34.4052 47.6798 34.775L50.1555 37.9521C50.4221 38.2826 50.6195 38.649 50.7496 39.0365C50.8746 39.4069 50.9386 39.7972 50.9386 40.1945C50.9403 40.3491 50.9408 40.5112 50.9403 40.6778C50.938 41.1943 50.9231 41.7628 50.8952 42.3494C50.7913 44.5535 50.5008 47.0276 49.9626 48.0444L49.8668 48.3332C49.8668 48.3469 49.4267 50.2166 49.4125 52.5405C49.4256 54.2042 49.6316 55.5922 50.0728 56.8169C50.3199 57.5183 51.1314 57.9036 51.8329 57.6416C51.8785 57.6262 51.9179 57.6022 51.9613 57.5817C52.5891 57.2872 52.9029 56.551 52.6581 55.8821C52.2455 54.7543 52.1633 53.448 52.1633 52.5406C52.1633 51.4271 52.2866 50.2577 52.5206 49.061C53.6072 46.5459 53.662 42.572 53.6888 40.194C53.6888 40.0764 53.6808 39.9594 53.674 39.8424C54.1311 39.2306 54.5706 38.5069 54.9535 37.6446L56.9459 33.1669L60.9916 29.2781L65.495 25.8606C66.2729 25.3704 66.8065 24.572 66.9561 23.6697C67.1056 22.7759 66.8602 21.852 66.2832 21.1398L66.2826 21.1393ZM64.2429 23.223C64.2303 23.2984 64.1858 23.4388 63.9319 23.606L59.2668 27.1387C59.224 27.1712 59.1835 27.2061 59.1441 27.2437L54.8461 31.3756C54.7177 31.4989 54.6144 31.6456 54.5425 31.8082L52.4714 36.4635C52.4228 36.3973 52.3783 36.3282 52.3275 36.2637L49.8672 33.1013C49.1932 32.1939 48.1065 31.6295 47.0347 31.6295H46.952C46.1684 31.6295 45.3574 31.8498 44.4362 32.3309C43.4187 32.7709 42.6905 33.954 42.7453 35.0252C42.8006 36.5655 43.5288 37.9951 44.547 39.9761L44.6023 40.0994C44.5196 40.443 44.3815 40.9241 44.2588 41.4737L37.8656 33.0716C37.8462 33.0465 37.824 33.0248 37.8052 33.0003L36.5804 29.5777L34.9214 20.5017C34.8666 20.1205 35.1457 19.7598 35.5446 19.6959C35.9481 19.6468 36.3242 19.8814 36.431 20.3642L38.3782 26.9839C38.558 27.5957 39.1315 28.0061 39.7742 27.9684C40.4116 27.933 40.9401 27.4633 41.0514 26.835L42.5878 18.1476L43.8827 9.88426C43.913 9.52585 44.2394 9.30441 44.611 9.25191C45.0076 9.25419 45.3295 9.56352 45.3341 9.82205L44.5984 18.2451C44.5819 18.4306 44.6041 18.6172 44.6612 18.7936C44.6783 18.8461 44.6863 18.8969 44.684 18.9488L44.5459 23.2674C44.5254 23.9254 44.9722 24.5053 45.6137 24.652C46.2552 24.8009 46.9086 24.4722 47.1763 23.8706L49.8067 18.0066C49.8763 17.9267 49.9362 17.8371 49.9859 17.7423L54.4579 9.12919C54.5806 8.89919 54.7849 8.81073 54.8974 8.77992C55.0138 8.74739 55.2466 8.71143 55.4863 8.84954C55.8111 9.03502 55.9332 9.41968 55.7637 9.75469L51.5297 18.349L49.0882 23.838C48.8148 24.4515 49.0259 25.174 49.587 25.5445C50.1474 25.9149 50.8933 25.8236 51.3516 25.3316L54.6063 21.8263C54.8283 21.5963 58.3103 18.1681 60.5519 15.964C60.6986 15.8322 60.8663 15.8265 60.9497 15.8345C61.0513 15.8436 61.1951 15.887 61.3058 16.0314C61.4399 16.2088 61.3732 16.5199 61.1586 16.7122C61.1209 16.7459 61.0849 16.7818 61.0507 16.8195L56.5581 21.8561L52.7828 26.666C52.3485 27.2191 52.4021 28.0112 52.9072 28.5014C53.4129 28.9933 54.2073 29.0202 54.7466 28.5699C55.8824 27.6191 57.5774 26.21 57.6824 26.1203L63.3804 22.8216C63.6372 22.6607 63.995 22.6795 64.1446 22.8656C64.2519 22.9997 64.2576 23.1344 64.2427 23.2228L64.2429 23.223ZM65.2108 69.6761C65.4585 69.9512 65.596 70.2947 65.5824 70.6668C65.5824 71.0372 65.4169 71.3682 65.156 71.6279C64.8952 71.8613 64.5653 72 64.2075 72C63.836 72 63.4645 71.8476 63.2185 71.5731L62.3225 70.6246L57.5394 65.5641C57.2923 65.2901 57.1547 64.9465 57.1678 64.575C57.1815 64.2058 57.3322 63.8765 57.5919 63.6151C57.5936 63.6145 57.5936 63.6128 57.5942 63.6117C58.1306 63.1174 59.0381 63.1443 59.5465 63.6813L65.2108 69.6761ZM55.7645 59.6807C56.0122 59.9409 56.1497 60.2851 56.136 60.6566C56.1229 61.027 55.9716 61.3711 55.7108 61.6194C55.7102 61.6199 55.7085 61.6211 55.7085 61.6217C55.4477 61.8671 55.1184 61.9898 54.7617 61.9898C54.3771 61.9898 54.0198 61.8385 53.7578 61.5646C53.2505 61.015 53.2636 60.1367 53.8258 59.6281C53.8258 59.6276 53.8263 59.6264 53.8275 59.6259C54.3491 59.1168 55.2565 59.1431 55.7645 59.6807Z" fill="white"/>
</svg>
