<svg width="80" height="80" viewBox="0 0 80 80" fill="none" xmlns="http://www.w3.org/2000/svg">
<rect width="79.3752" height="79.3752" rx="4.13412" fill="#6D9AE4" fill-opacity="0.7"/>
<path d="M62.8374 24.7905H51.3258V23.5115C51.3258 19.399 49.1319 15.5983 45.5699 13.5421C42.008 11.486 37.6202 11.486 34.0583 13.5421C30.4963 15.5983 28.3024 19.399 28.3024 23.5115V24.7905H16.7907C13.3983 24.7905 10.1453 26.1381 7.74645 28.537C5.34763 30.9358 4 34.1889 4 37.5813V55.4883C4 58.5416 5.21284 61.4697 7.37179 63.6282C9.53028 65.7873 12.4584 67 15.5117 67H64.1165C67.1698 67 70.0979 65.7872 72.2564 63.6282C74.4155 61.4697 75.6282 58.5416 75.6282 55.4883V37.5813C75.6282 34.1889 74.2806 30.9358 71.8817 28.537C69.4829 26.1382 66.2298 24.7905 62.8374 24.7905ZM30.8606 23.5115C30.8606 20.3126 32.5674 17.357 35.3373 15.7576C38.1073 14.1583 41.5209 14.1583 44.2909 15.7576C47.0608 17.357 48.7676 20.3126 48.7676 23.5115V24.7905H30.8606V23.5115ZM73.07 55.4883C73.07 57.8632 72.1267 60.1404 70.4474 61.8192C68.7687 63.4986 66.4915 64.4419 64.1165 64.4419H15.5117C13.1368 64.4419 10.8596 63.4985 9.18076 61.8192C7.50145 60.1405 6.55815 57.8633 6.55815 55.4883V37.5813C6.55815 34.8673 7.63623 32.2646 9.55542 30.346C11.474 28.4268 14.0768 27.3487 16.7907 27.3487H62.8374C65.5514 27.3487 68.1542 28.4268 70.0728 30.346C71.992 32.2646 73.07 34.8673 73.07 37.5813V55.4883ZM47.4885 46.5348C47.4885 46.874 47.3538 47.1995 47.114 47.4393C46.8741 47.6791 46.5487 47.8139 46.2095 47.8139H41.0932V52.9302C41.0932 53.6365 40.5204 54.2093 39.8141 54.2093C39.1078 54.2093 38.535 53.6365 38.535 52.9302V47.8139H33.4187C32.7124 47.8139 32.1396 47.2411 32.1396 46.5348C32.1396 45.8285 32.7124 45.2557 33.4187 45.2557H38.535V40.1394C38.535 39.4331 39.1078 38.8604 39.8141 38.8604C40.5204 38.8604 41.0932 39.4331 41.0932 40.1394V45.2557H46.2095C46.5487 45.2557 46.8741 45.3905 47.114 45.6303C47.3538 45.8701 47.4885 46.1956 47.4885 46.5348ZM39.8141 32.465C36.0826 32.465 32.5039 33.9474 29.8652 36.5859C27.2265 39.2246 25.7443 42.8031 25.7443 46.5348C25.7443 50.2665 27.2267 53.845 29.8652 56.4837C32.5039 59.1224 36.0824 60.6046 39.8141 60.6046C43.5458 60.6046 47.1243 59.1222 49.763 56.4837C52.4017 53.845 53.8839 50.2665 53.8839 46.5348C53.8839 42.8031 52.4015 39.2246 49.763 36.5859C47.1243 33.9472 43.5458 32.465 39.8141 32.465ZM39.8141 58.0465C36.7608 58.0465 33.8327 56.8336 31.6742 54.6747C29.5151 52.5162 28.3024 49.5881 28.3024 46.5348C28.3024 43.4815 29.5153 40.5534 31.6742 38.3949C33.8327 36.2358 36.7608 35.0231 39.8141 35.0231C42.8674 35.0231 45.7955 36.236 47.954 38.3949C50.1131 40.5534 51.3258 43.4815 51.3258 46.5348C51.3258 49.5881 50.1129 52.5162 47.954 54.6747C45.7955 56.8338 42.8674 58.0465 39.8141 58.0465Z" fill="white"/>
</svg>
