<svg width="80" height="80" viewBox="0 0 80 80" fill="none" xmlns="http://www.w3.org/2000/svg">
<rect width="79.3752" height="79.3752" rx="6.84269" fill="#6D9AE4" fill-opacity="0.7"/>
<path d="M32.2512 45.4935C32.7312 45.8197 33.3847 45.695 33.7109 45.2155C34.0367 44.7355 33.9125 44.0821 33.4325 43.7558C31.9151 42.7231 30.2446 41.9361 28.4815 41.4247C31.1539 39.7555 32.7767 36.8268 32.7762 33.6758V21.6014C32.7762 20.3485 32.2784 19.1466 31.3925 18.2601C30.5061 17.3742 29.3042 16.8764 28.0512 16.8764H19.1262C17.8733 16.8764 16.6714 17.3742 15.7849 18.2601C14.899 19.1465 14.4012 20.3484 14.4012 21.6014V33.6758C14.4106 36.8169 16.0376 39.7316 18.7062 41.3882C15.0167 42.4223 11.771 44.6456 9.47412 47.7126C7.17672 50.7796 5.9562 54.5193 6.0012 58.3508C6.0012 58.9306 6.47136 59.4008 7.0512 59.4008C7.63104 59.4008 8.1012 58.9306 8.1012 58.3508C8.08198 54.5774 9.44412 50.9272 11.9304 48.0884C14.4172 45.2497 17.8559 43.4187 21.5993 42.941C25.3422 42.4629 29.1312 43.3709 32.2512 45.4935ZM16.5012 21.6003C16.5012 20.9042 16.7778 20.2362 17.27 19.744C17.7622 19.2517 18.4301 18.9752 19.1263 18.9752H28.0513C28.7474 18.9752 29.4153 19.2518 29.9075 19.744C30.3998 20.2362 30.6763 20.9041 30.6763 21.6003V25.2753H16.5019L16.5012 21.6003ZM16.5012 33.6747V27.3747H30.6756V33.6747C30.6981 35.5464 29.9664 37.3487 28.6445 38.6743C27.3226 40 25.5231 40.7373 23.651 40.72C21.7694 40.7312 19.96 39.9962 18.6198 38.6753C17.2792 37.3548 16.5174 35.5563 16.5006 33.6747H16.5012Z" fill="white"/>
<path d="M54.354 43.8399C56.4127 42.7842 58.1367 41.1755 59.333 39.195C60.5293 37.2145 61.1504 34.9397 61.1264 32.626V15.3004C61.1447 13.6241 60.487 12.0107 59.3016 10.8252C58.1161 9.63974 56.5027 8.98213 54.8264 9.00037H42.2264C38.5514 9.00037 35.4014 11.8878 35.4014 15.3004V32.626C35.4244 34.9791 36.1083 37.2784 37.374 39.2616C38.6401 41.2453 40.4377 42.8335 42.5625 43.845C37.0809 45.1879 32.2074 48.3291 28.7205 52.7668C25.2335 57.2044 23.3341 62.6823 23.3262 68.326C23.3262 68.9058 23.7963 69.376 24.3762 69.376C24.956 69.376 25.4262 68.9058 25.4262 68.326C25.428 64.0529 26.6149 59.8641 28.8551 56.2252C31.0952 52.5863 34.301 49.6402 38.1152 47.7145C37.7763 49.0013 37.5513 50.3152 37.4435 51.6413C34.5349 52.2296 32.2511 55.0594 32.2511 58.351V66.226C32.3209 67.0378 32.6753 67.7991 33.2519 68.3752C33.828 68.9517 34.5893 69.3061 35.4011 69.3759C35.9809 69.3759 36.4511 68.9058 36.4511 68.326C36.4511 67.7461 35.9809 67.276 35.4011 67.276C34.8934 67.1302 34.4968 66.7336 34.3511 66.226V58.3509C34.3511 55.7887 36.2725 53.6259 38.5511 53.6259C40.8296 53.6259 42.7511 55.7887 42.7511 58.3509V66.226C42.6053 66.7336 42.2087 67.1302 41.7011 67.276C41.1212 67.276 40.6511 67.7461 40.6511 68.326C40.6511 68.9058 41.1212 69.3759 41.7011 69.3759C42.5129 69.3061 43.2741 68.9517 43.8503 68.3752C44.4268 67.7991 44.7812 67.0378 44.851 66.226V58.351C44.851 55.0224 42.5096 52.1611 39.5536 51.6258C39.6797 50.2608 40.0158 48.1032 40.7138 46.7068L47.476 55.92C47.6738 56.191 47.9888 56.3508 48.324 56.3508C48.6592 56.3508 48.9742 56.191 49.172 55.92L55.9183 46.696C57.5509 49.5099 58.2179 53.82 58.4434 55.7363C56.9608 56.1169 55.7612 57.2044 55.2381 58.6431C54.715 60.0811 54.9358 61.6853 55.8283 62.9293C56.7203 64.1729 58.1687 64.8963 59.6992 64.8616C61.2292 64.8274 62.6439 64.0394 63.4792 62.7569C64.315 61.4743 64.4631 59.8624 63.8758 58.4487C63.2889 57.0349 62.0416 56.0027 60.5434 55.6896C60.2607 52.9719 59.6471 50.299 58.7161 47.7303C62.4657 49.7037 65.6031 52.6667 67.7865 56.298C69.9699 59.929 71.1165 64.0891 71.101 68.3256C71.101 68.9055 71.5711 69.3756 72.151 69.3756C72.7308 69.3756 73.201 68.9055 73.201 68.3256C73.201 56.4817 65.1526 46.5216 54.3538 43.8396L54.354 43.8399ZM59.0265 26.9667C53.3199 26.7304 49.6341 25.0139 47.6181 23.7013H59.0265V26.9667ZM37.5009 15.3013C37.5009 13.0649 39.7111 11.1013 42.2259 11.1013H54.8259C55.9439 11.0887 57.0197 11.527 57.81 12.3173C58.6003 13.1076 59.0385 14.1834 59.0259 15.3013V21.6013H37.5003L37.5009 15.3013ZM37.5009 32.6269V23.7019H44.2683C45.0661 24.5419 49.5183 28.7053 59.0259 29.0673V32.6269C59.0559 35.4207 57.9591 38.109 55.9833 40.0843C54.008 42.0601 51.3198 43.1569 48.5259 43.1269C42.4463 43.1269 37.5009 38.4019 37.5009 32.6269ZM48.3108 53.5273L42.7509 45.957C44.6372 45.4695 46.5779 45.2243 48.5259 45.2272C50.3385 45.2286 52.1437 45.4526 53.9021 45.8937L48.3108 53.5273ZM62.1343 60.2262C62.1357 60.9007 61.8695 61.5477 61.3932 62.0253C60.9174 62.5029 60.271 62.7715 59.5969 62.7724C58.9229 62.7734 58.276 62.5067 57.7984 62.0304C57.3212 61.5542 57.0531 60.9078 57.0526 60.2332C57.0521 59.5591 57.3193 58.9122 57.796 58.4356C58.2728 57.9584 58.9192 57.6907 59.5936 57.6907C60.2663 57.6907 60.9117 57.9575 61.3885 58.4332C61.8647 58.9085 62.1329 59.5536 62.1343 60.2262Z" fill="white"/>
<path d="M51.1513 15.3009H49.5763V13.7259C49.5763 13.1461 49.1062 12.6759 48.5263 12.6759C47.9465 12.6759 47.4763 13.1461 47.4763 13.7259V15.3009H45.9013C45.3215 15.3009 44.8513 15.7711 44.8513 16.3509C44.8513 16.9307 45.3215 17.4009 45.9013 17.4009H47.4763V18.9759C47.4763 19.5557 47.9465 20.0259 48.5263 20.0259C49.1062 20.0259 49.5763 19.5557 49.5763 18.9759V17.4009H51.1513C51.7312 17.4009 52.2013 16.9307 52.2013 16.3509C52.2013 15.7711 51.7312 15.3009 51.1513 15.3009Z" fill="white"/>
</svg>
