<svg width="64" height="44" viewBox="0 0 64 44" fill="none" xmlns="http://www.w3.org/2000/svg">
<path d="M52.1246 28.8311C52.0185 28.8311 51.9133 28.8108 51.8182 28.7722C51.5729 28.6718 49.5261 26.8794 50.211 25.5303L52.7986 20.4266C53.4368 19.168 55.9976 19.0465 56.5047 19.0349C56.6973 19.0216 56.8761 19.0895 57.0085 19.1985C57.0295 19.2156 59.1247 20.981 58.4378 22.3349L55.8489 27.4386C55.2108 28.6972 52.65 28.8186 52.1428 28.8303C52.1381 28.8311 52.1317 28.8311 52.1246 28.8311ZM56.2336 20.1693C55.3593 20.233 54.257 20.477 54.0653 20.855L51.4777 25.9588C51.2865 26.3348 51.8539 27.1439 52.4165 27.6957C53.2923 27.6309 54.3936 27.3868 54.5839 27.0104L57.1728 21.9066C57.3645 21.5282 56.7972 20.7196 56.2336 20.1693Z" fill="#D69C47" stroke="#D69C47"/>
<path d="M42.9649 28.8684C42.7895 28.8684 42.6145 28.8142 42.4802 28.7048C41.505 27.9094 40.9678 26.8508 40.9678 25.7238C40.9678 24.5969 41.5051 23.5383 42.4802 22.7429C43.4539 21.9467 44.7498 21.5078 46.128 21.5078C47.508 21.5078 48.8049 21.9467 49.7786 22.7433C50.7533 23.5383 51.2905 24.5969 51.2905 25.7234C51.2905 26.8504 50.7532 27.909 49.7781 28.7044C49.51 28.9227 49.0764 28.9227 48.8092 28.704C48.542 28.485 48.542 28.1308 48.8097 27.9125C49.5253 27.3287 49.9196 26.5509 49.9196 25.7238C49.9196 24.8963 49.5257 24.1188 48.8097 23.535C48.0941 22.9493 47.1423 22.6275 46.128 22.6275C45.116 22.6275 44.1648 22.9501 43.4491 23.535C42.7321 24.1188 42.3382 24.8966 42.3382 25.7245C42.3382 26.5523 42.7321 27.3294 43.4482 27.9132C43.7163 28.1315 43.7163 28.4861 43.4486 28.7047C43.3158 28.8133 43.1403 28.8684 42.9649 28.8684Z" fill="#D69C47" stroke="#D69C47"/>
<path d="M62.1027 42.9996H58.0453C57.6672 42.9996 57.3599 42.7489 57.3599 42.4396V11.5033C57.3599 11.1945 57.6667 10.9434 58.0453 10.9434H62.1027C62.4808 10.9434 62.7882 11.1941 62.7882 11.5033V42.4396C62.7877 42.7485 62.4809 42.9996 62.1027 42.9996ZM58.7303 41.8797H61.4172V12.063H58.7303V41.8797Z" fill="#D69C47" stroke="#D69C47"/>
<path d="M58.0449 42.9995H40.4611C40.083 42.9995 39.7756 42.7488 39.7756 42.4395L39.7761 28.6283C39.7761 28.3195 40.083 28.0684 40.4616 28.0684H58.0441C58.4222 28.0684 58.7296 28.3191 58.7296 28.6283V42.4395C58.7301 42.7484 58.4232 42.9995 58.0446 42.9995H58.0449ZM41.1464 41.8796H57.3584V29.188H41.1464V41.8796Z" fill="#D69C47" stroke="#D69C47"/>
<path d="M58.0449 39.6844H40.4611C40.083 39.6844 39.7756 39.4337 39.7756 39.1244C39.7756 38.8155 40.0825 38.5645 40.4611 38.5645H58.0436C58.4218 38.5645 58.7291 38.8151 58.7291 39.1244C58.7291 39.4337 58.4232 39.6844 58.0446 39.6844H58.0449Z" fill="#D69C47" stroke="#D69C47"/>
<path d="M40.46 42.9997H1.91253C1.53443 42.9997 1.22705 42.749 1.22705 42.4398L1.22753 26.9711C1.22753 26.9141 1.23852 26.8579 1.2586 26.8044C1.51626 24.5669 3.71989 22.771 6.4614 22.5684C6.52259 22.5531 6.58521 22.5449 6.64735 22.5449H40.4614C40.8395 22.5449 41.1469 22.7956 41.1469 23.1049V42.4412C41.1459 42.7489 40.8395 43 40.4605 43L40.46 42.9997ZM2.59782 41.8798H39.7747V23.6641H6.77808C6.74462 23.6708 6.71116 23.6755 6.67722 23.677C4.51232 23.8 2.76606 25.2273 2.61554 26.9954C2.61267 27.0254 2.60741 27.0551 2.59929 27.0844L2.59881 41.8803L2.59782 41.8798Z" fill="#D69C47" stroke="#D69C47"/>
<path d="M35.0507 42.9987C34.6726 42.9987 34.3652 42.748 34.3652 42.4387V38.5717C34.3652 38.2628 34.6721 38.0117 35.0507 38.0117C35.4288 38.0117 35.7362 38.2624 35.7362 38.5717V42.4387C35.7357 42.7476 35.4288 42.9987 35.0507 42.9987Z" fill="#D69C47" stroke="#D69C47"/>
<path d="M35.0507 34.713C34.6726 34.713 34.3652 34.4623 34.3652 34.1531V23.1049C34.3652 22.796 34.6721 22.5449 35.0507 22.5449C35.4288 22.5449 35.7362 22.7956 35.7362 23.1049L35.7357 34.1531C35.7357 34.4627 35.4288 34.713 35.0507 34.713Z" fill="#D69C47" stroke="#D69C47"/>
<path d="M13.2564 37.0988C13.081 37.0988 12.9055 37.0442 12.7717 36.9348C12.5035 36.7158 12.5035 36.362 12.7717 36.1433L21.9936 28.6096C22.2617 28.3905 22.6948 28.3905 22.9625 28.6096C23.2307 28.8287 23.2307 29.1825 22.9625 29.4011L13.7406 36.9348C13.6063 37.0446 13.4318 37.0988 13.2564 37.0988Z" fill="#D69C47" stroke="#D69C47"/>
<path d="M17.8672 37.0988C17.6918 37.0988 17.5164 37.0442 17.3825 36.9348C17.1144 36.7158 17.1144 36.362 17.3825 36.1433L26.6044 28.6096C26.8726 28.3905 27.3057 28.3905 27.5734 28.6096C27.8415 28.8287 27.8415 29.1825 27.5734 29.4011L18.352 36.9348C18.2181 37.0446 18.0427 37.0988 17.8672 37.0988Z" fill="#D69C47" stroke="#D69C47"/>
<path d="M39.7842 14.2727H24.2294C23.8513 14.2727 23.5439 14.022 23.5439 13.7128V1.55997C23.5439 1.25109 23.8508 1 24.2294 1H39.783C40.1611 1 40.4685 1.25069 40.4685 1.55997V13.7128C40.4695 14.0224 40.1621 14.2727 39.784 14.2727H39.7842ZM24.9147 13.1532H39.0977V2.11903H24.9147V13.1532Z" fill="#D69C47" stroke="#D69C47"/>
<path d="M32.3466 11.511C31.9685 11.511 31.6611 11.2603 31.6611 10.951L31.6616 4.32168C31.6616 4.01281 31.9685 3.76172 32.3471 3.76172C32.7252 3.76172 33.0326 4.01241 33.0326 4.32168V10.951C33.0321 11.2599 32.7252 11.511 32.3466 11.511Z" fill="#D69C47" stroke="#D69C47"/>
<path d="M36.4048 8.1961H28.2885C27.9104 8.1961 27.603 7.94541 27.603 7.63614C27.603 7.32726 27.9099 7.07617 28.2885 7.07617H36.4038C36.7819 7.07617 37.0893 7.32686 37.0893 7.63614C37.0893 7.94541 36.7829 8.1961 36.4048 8.1961Z" fill="#D69C47" stroke="#D69C47"/>
<path d="M35.0497 36.9252C34.8714 36.9252 34.6936 36.8635 34.5631 36.7573C34.4398 36.6565 34.3643 36.5109 34.3643 36.3652C34.3643 36.2196 34.4398 36.0743 34.5631 35.9677C34.8236 35.7608 35.2825 35.7608 35.5364 35.9677C35.6597 36.0739 35.7352 36.2141 35.7352 36.3652C35.7352 36.5109 35.6597 36.6562 35.5364 36.7628C35.4063 36.8635 35.2347 36.9252 35.0497 36.9252Z" fill="#D69C47" stroke="#D69C47"/>
</svg>
