<svg width="74" height="43" viewBox="0 0 74 43" fill="none" xmlns="http://www.w3.org/2000/svg">
<path d="M27.333 22.5259H23.0451C22.7167 22.5259 22.4498 22.7584 22.4498 23.0446C22.4498 23.3316 22.7167 23.5637 23.0451 23.5637H25.295C23.2032 24.663 21.3367 25.7364 20.9279 25.9722C20.9258 25.9737 20.9247 25.9755 20.9231 25.9765C20.8923 25.9939 20.8643 26.015 20.8395 26.0385C20.8341 26.0446 20.8292 26.0512 20.8239 26.0559C20.8168 26.0634 20.8109 26.07 20.8055 26.0779C20.7818 26.1061 20.7624 26.1371 20.7467 26.1696C20.7462 26.1738 20.743 26.1775 20.7408 26.1818C20.7262 26.2189 20.7192 26.2565 20.716 26.2955C20.7155 26.3049 20.716 26.3128 20.716 26.3232C20.716 26.3354 20.7144 26.3462 20.7155 26.3584L20.9209 28.3278C20.9436 28.5406 21.1469 28.7041 21.3923 28.7069L21.7698 28.7111C21.7789 28.8445 21.8032 28.9751 21.8463 29.1006H21.3987C21.1415 29.1006 20.9301 29.2772 20.9193 29.5013L20.7823 32.491C20.7769 32.6042 20.8249 32.7146 20.9155 32.7968C21.0061 32.8781 21.1307 32.9246 21.2617 32.9246H47.4893C47.7466 32.9246 47.9579 32.7475 47.9677 32.5239L48.1046 29.5337C48.11 29.4205 48.062 29.3106 47.9714 29.2288C47.8808 29.1466 47.7557 29.101 47.6268 29.101H47.0897C47.0455 29.0587 46.9921 29.023 46.9322 28.9986L47.6209 29.0066H47.6279C47.876 29.0066 48.0847 28.8394 48.1052 28.6228L48.3106 26.4294C48.3112 26.4251 48.3101 26.4219 48.3106 26.4172C48.3112 26.3988 48.3106 26.3796 48.309 26.3612C48.3085 26.3533 48.3085 26.3457 48.3069 26.3378C48.302 26.3115 48.2961 26.2851 48.2869 26.2612C48.2864 26.2584 48.2837 26.256 48.2831 26.2523C48.2729 26.2306 48.2621 26.209 48.2492 26.1888C48.2443 26.1813 48.2373 26.1747 48.233 26.1682C48.2211 26.1527 48.2092 26.1372 48.1952 26.1235C48.1915 26.1202 48.1893 26.117 48.1861 26.1127C48.1812 26.1085 48.1769 26.1062 48.1731 26.1024C48.1586 26.0897 48.1429 26.078 48.1267 26.0667C48.1181 26.0606 48.1095 26.0545 48.1014 26.0498C48.0841 26.039 48.0653 26.031 48.0459 26.0221C48.0372 26.0188 48.0297 26.0141 48.021 26.0108C48.0189 26.0103 48.0162 26.0089 48.0135 26.0075C47.245 25.7355 43.3579 24.3627 39.541 23.1075C40.4518 22.5964 41.0579 21.7067 41.0579 20.6951L41.0563 13.0582C41.0563 12.7721 40.7893 12.5391 40.4604 12.5391C40.132 12.5391 39.865 12.7721 39.865 13.0582V20.6936C39.865 21.7037 38.9213 22.5263 37.7608 22.5263H37.7516C37.6109 22.4816 37.4718 22.4365 37.3332 22.3928C37.6325 22.0226 37.811 21.5651 37.811 21.069C37.811 20.3868 37.4755 19.7756 36.9503 19.3692L37.4135 18.5678C37.5316 18.3615 37.4367 18.1107 37.201 18.0073C36.9643 17.9035 36.6763 17.9866 36.5571 18.1924L36.1209 18.9488C35.896 18.8849 35.6587 18.8506 35.4117 18.8506C34.0872 18.8506 33.0103 19.8465 33.0103 21.0699C33.0103 21.0905 33.0124 21.1117 33.0135 21.1323C32.3944 20.9801 31.9247 20.8932 31.6691 20.8932C30.9087 20.8918 29.1846 21.619 27.3322 22.5257L27.333 22.5259ZM21.7596 32.0895L21.8572 30.3705C21.8572 30.5974 22.0653 30.7825 22.3258 30.7882L24.7558 30.8328C25.8565 31.0536 27.2662 31.171 28.9945 31.1851C29.0603 31.1856 29.125 31.1865 29.1903 31.1865C30.2408 31.1865 31.1533 31.1123 31.9233 30.9648L34.7685 31.0179C34.899 31.0198 35.0247 31.063 35.1212 31.1405L36.3205 32.089L21.7599 32.0885L21.7596 32.0895ZM22.7281 28.7211L33.9552 28.8484C33.9164 28.956 33.8619 29.0654 33.78 29.173C33.361 29.7245 32.1881 30.3784 29.0047 30.3503C24.3782 30.3104 23.1606 29.5136 22.8462 29.0419C22.781 28.9433 22.7432 28.8357 22.7281 28.7211ZM35.7651 30.5227C35.4977 30.3112 35.1514 30.1905 34.7896 30.1839L34.0163 30.1698C34.1209 30.0965 34.2136 30.0162 34.3015 29.9349H41.6778C42.1097 30.0078 42.5778 30.0604 43.088 30.0782C43.1759 30.0815 43.2643 30.0829 43.3496 30.0829C43.8203 30.0829 44.248 30.0317 44.6336 29.9349H46.2708L46.2761 30.1215L39.9693 30.0994C39.2736 30.0961 38.5914 30.3127 38.0592 30.7082L36.9973 31.4965L35.7651 30.5227ZM41.014 28.9286L44.8331 28.9723C44.3893 29.1762 43.8198 29.2674 43.1263 29.2429C42.2317 29.2105 41.5387 29.0846 41.014 28.9286ZM47.0867 30.8501L47.0301 32.0895H37.6774L38.68 31.3439C39.0353 31.0794 39.4889 30.9343 39.9564 30.9343H39.965L46.7659 30.9587H46.768C46.8867 30.9578 46.9983 30.9183 47.0867 30.8501ZM47.1854 28.1648L21.8358 27.8759L21.7167 26.739L47.3119 26.809L47.1854 28.1648ZM35.4131 19.6841C35.5053 19.6841 35.5948 19.6935 35.6822 19.7095L35.433 20.1408C35.3149 20.347 35.4093 20.5979 35.6466 20.7012C35.7156 20.7318 35.7889 20.7459 35.8617 20.7459C36.037 20.7459 36.2064 20.6618 36.2899 20.5157L36.497 20.1581C36.7197 20.402 36.8551 20.7205 36.8551 21.0695C36.8551 21.8334 36.208 22.454 35.4131 22.454C34.6177 22.454 33.9706 21.833 33.9706 21.0695C33.9701 20.3056 34.6171 19.6841 35.4131 19.6841ZM33.2656 22.0561C33.4086 22.3206 33.6065 22.5551 33.8454 22.7463L32.7744 24.5996C32.6552 24.8058 32.7506 25.0567 32.9868 25.1605C33.0559 25.1901 33.1298 25.2042 33.202 25.2042C33.3773 25.2042 33.5461 25.1206 33.6302 24.9745L34.6683 23.1761C34.9023 23.2471 35.1515 23.2861 35.4114 23.2861C35.8175 23.2861 36.1998 23.1916 36.5353 23.0267C39.1718 23.8564 42.4462 24.9604 45.34 25.9666L32.2437 25.9309L22.7951 25.9065C26.1133 24.0461 30.6049 21.7253 31.6711 21.7253C31.924 21.7253 32.4847 21.8476 33.2656 22.0561Z" fill="#D69C47"/>
<path d="M67.5313 25.8389C67.6683 25.1647 67.3054 24.5418 66.5617 24.1726C66.5347 24.1585 66.5067 24.1472 66.4792 24.1336C66.4646 23.6394 66.1783 23.1301 65.6891 22.7557C65.4465 22.5697 65.0776 22.4668 64.6516 22.4668C64.0751 22.4668 63.264 22.6721 62.7647 23.2358L62.2766 22.9206C62.0161 22.7534 61.6478 22.7999 61.4548 23.0258L59.8299 24.9191C59.8293 24.9177 59.8293 24.9163 59.8277 24.9144C59.4189 24.1359 58.7346 23.6703 57.9996 23.6703C57.442 23.6703 56.9356 23.9395 56.6428 24.3915C56.4945 24.6217 56.4017 24.8664 56.3629 25.1088C56.2238 25.037 56.0636 24.9407 55.8819 24.8138C55.4645 24.5216 54.9942 24.368 54.5218 24.368C53.5986 24.368 52.6677 24.9867 52.6677 26.3711C52.6677 26.8461 52.9935 27.2562 53.4357 27.5564L53.4195 27.5639C53.1682 27.6757 53.0409 27.9398 53.1186 28.1878L54.1318 31.4025C54.1982 31.6139 54.3956 31.7568 54.6172 31.7788C53.9614 32.0974 53.5985 32.6141 53.6066 33.2314C53.6195 34.0075 54.2187 34.7643 55.0324 35.0298C55.3182 35.1233 55.5695 35.1693 55.8025 35.1693H55.803C56.1147 35.1693 56.3504 35.088 56.5505 34.9818C56.8681 35.4404 57.5098 35.9477 58.3248 35.9477C58.5383 35.9477 58.7529 35.9116 58.9611 35.8406C59.4659 35.6687 59.7759 35.4178 59.9075 35.0641C60.305 35.625 60.992 35.9599 61.7568 35.9599C62.5053 35.9599 63.2112 35.6419 63.702 35.0875H64.2423C65.392 35.0875 66.4404 34.5783 67.0439 33.7266C67.6414 32.8852 67.6996 31.8583 67.2062 30.9694C67.2455 30.8782 67.2795 30.7866 67.2995 30.6946C67.4052 30.2266 67.2509 29.7752 66.8659 29.4251C66.6168 29.1996 66.3369 28.9939 66.0635 28.8088C66.0813 28.6739 66.078 28.5339 66.0489 28.3921C65.9685 27.9899 65.7119 27.6367 65.3327 27.3731C65.4665 27.3332 65.6283 27.2975 65.8246 27.2679C66.6993 27.1368 67.3842 26.5636 67.5313 25.8387L67.5313 25.8389ZM64.6505 23.0183C64.9185 23.0183 65.1456 23.0737 65.2712 23.1705C65.6903 23.4904 65.906 23.9301 65.8358 24.3187C65.7668 24.6931 65.4406 25.0003 64.8921 25.2052C64.746 25.2596 64.602 25.2878 64.4645 25.2878C64.06 25.2878 63.7602 25.0496 63.5736 24.8392L63.8179 24.5103C63.9867 24.2848 63.9236 23.9842 63.6739 23.8235L63.2727 23.5646C63.6162 23.1902 64.1943 23.0183 64.6505 23.0183ZM60.2296 28.6718C60.1908 28.9574 59.9778 29.142 59.5933 29.2195C59.4773 29.243 59.3646 29.2552 59.2584 29.2552C58.3761 29.2552 58.0499 28.3828 57.9981 28.2222C58.0035 28.1386 58.1108 27.8614 58.3535 27.6472C58.6635 27.3719 59.0421 27.3301 59.4843 27.5203C59.9454 27.72 60.2873 28.2475 60.2296 28.6718ZM57.0818 30.5129L56.9481 30.1958C57.1854 30.0295 57.4798 29.9379 57.7861 29.9379C58.2391 29.9379 58.7504 30.1549 58.869 30.6398C58.9817 31.0969 58.9014 31.5023 58.6425 31.7814C58.3734 32.0707 57.9242 32.2173 57.3073 32.2173C56.6472 32.2168 56.3322 31.771 56.2282 31.5793C56.191 31.5108 56.164 31.444 56.1424 31.3773L56.7221 31.2068C57.0371 31.1152 57.201 30.7967 57.0818 30.5129ZM58.5217 26.918C58.6647 26.8819 58.8038 26.8278 58.937 26.7607L59.0648 26.8574C59.034 26.856 59.0028 26.8523 58.972 26.8523C58.8167 26.8513 58.6668 26.8753 58.5217 26.918ZM57.1919 24.663C57.3736 24.3821 57.6675 24.2214 57.9981 24.2214C58.4797 24.2214 58.9483 24.5667 59.253 25.1446C59.3172 25.2658 59.3258 25.4086 59.2821 25.5561L58.8453 26.0654C58.8102 26.1062 58.7865 26.1504 58.7671 26.196C58.5498 26.3388 58.3001 26.4262 58.0714 26.4262C57.9771 26.4262 57.8865 26.4121 57.8018 26.3839C57.4292 26.2585 57.1671 26.0348 57.0441 25.7365C56.9087 25.41 56.9632 25.0187 57.1919 24.663ZM54.0755 27.2727C53.651 27.0585 53.2984 26.7306 53.2984 26.3716C53.2984 25.4889 53.7783 24.9195 54.5209 24.9195C54.8423 24.9195 55.1847 25.0346 55.4857 25.2442C55.8098 25.4711 56.1112 25.6355 56.3884 25.7407C56.4046 25.8027 56.4245 25.8633 56.4488 25.9235C56.6338 26.3698 57.0334 26.716 57.5754 26.8974C57.7318 26.95 57.8995 26.9768 58.0715 26.9768C58.2209 26.9768 58.3713 26.9566 58.5196 26.919C58.2274 27.0054 57.962 27.1727 57.749 27.416C57.515 27.6829 57.3068 28.0996 57.3834 28.3495C57.4961 28.7178 57.7345 29.1204 58.0996 29.4084C57.9982 29.3943 57.8941 29.3877 57.7873 29.3877C57.4077 29.3877 57.0388 29.4845 56.7233 29.6607L55.6814 27.1873C55.5617 26.9016 55.2053 26.771 54.907 26.903L54.0755 27.2727ZM56.548 33.3795C56.3221 33.6684 56.2487 34.0292 56.3247 34.4539C56.163 34.5535 56.0157 34.6197 55.8022 34.6197C55.649 34.6197 55.4646 34.5845 55.2543 34.5159C54.6929 34.3327 54.2469 33.7656 54.2393 33.2249C54.234 32.8914 54.3871 32.4371 55.1469 32.1674C55.2823 32.1195 55.3621 31.9978 55.34 31.872L55.2969 31.6281L55.546 31.5553C55.5767 31.6427 55.6134 31.731 55.6598 31.8175C55.9839 32.4141 56.6008 32.7697 57.3094 32.7697C57.4259 32.7697 57.5375 32.765 57.6416 32.7561C57.1347 32.8858 56.7729 33.091 56.548 33.3795ZM58.7305 35.3277C58.5962 35.3732 58.4582 35.3972 58.3244 35.3972C57.584 35.3972 57.0269 34.7244 56.9638 34.4496C56.8883 34.1264 56.9229 33.8769 57.0706 33.689C57.2529 33.4546 57.6325 33.2916 58.1961 33.2042C58.2694 33.192 58.3406 33.1868 58.4058 33.1868C58.7267 33.1868 59.1204 33.3137 59.3156 34.2979C59.4445 34.9523 59.2088 35.1646 58.7305 35.3277ZM66.0301 33.1807C65.6435 33.7256 64.9758 34.0502 64.2414 34.0502H64.1664C64.1642 33.9225 64.1416 33.8092 64.1071 33.7167C64.0089 33.4531 63.8002 33.2286 63.4907 33.0411C63.7452 32.9298 63.9237 32.7085 63.9237 32.4464V31.8394C63.9831 31.8662 64.0451 31.8953 64.1071 31.9235C64.4382 32.079 64.8502 32.2726 65.3145 32.2726C65.5162 32.2726 65.7136 32.2364 65.9007 32.1636C66.0474 32.1072 66.1865 32.033 66.3192 31.9508C66.392 32.3708 66.2965 32.8048 66.0301 33.1807ZM65.4261 28.4856C65.4952 28.8304 65.3372 29.1456 64.9926 29.3509C64.7585 29.4909 64.5277 29.5619 64.3093 29.5619H64.3088C63.9092 29.5619 63.4945 29.326 63.0771 28.8628C62.9412 28.7111 62.9563 28.4297 63.1159 28.1455C63.2922 27.8312 63.6703 27.492 64.0877 27.492C64.1432 27.492 64.2004 27.4986 64.2554 27.5108C65.0087 27.6837 65.3544 28.1271 65.4261 28.4856ZM64.6668 27.0485C64.5854 27.0232 64.5024 26.9987 64.4155 26.9785C64.3071 26.9541 64.1977 26.9424 64.0877 26.9424C63.4794 26.9424 62.8748 27.3201 62.5475 27.905C62.2752 28.3917 62.2876 28.8769 62.581 29.203C63.1235 29.8067 63.7048 30.113 64.3089 30.113H64.3094C64.6583 30.113 65.0083 30.0101 65.3502 29.8067C65.5573 29.6826 65.7223 29.5314 65.8436 29.3604C66.0416 29.4999 66.2362 29.6493 66.4093 29.8067C66.6542 30.0298 66.7458 30.2929 66.679 30.5879C66.5814 31.0215 66.1548 31.4627 65.643 31.6609C65.5357 31.7027 65.4279 31.7234 65.3135 31.7234C65.0083 31.7234 64.702 31.5792 64.4059 31.4397C64.2404 31.3631 64.0813 31.2889 63.9227 31.2395V30.9116C63.9227 30.5123 63.5075 30.2013 63.0346 30.2464L61.118 30.4263C60.7777 30.4578 60.5005 30.6673 60.425 30.9468L60.1311 32.056C60.0297 32.4394 60.3414 32.8138 60.8063 32.865L61.9112 32.9881C62.0218 33.067 62.1755 33.1403 62.389 33.1976C63.0135 33.3649 63.3996 33.6035 63.5064 33.8887C63.6164 34.1818 63.412 34.5074 63.2211 34.7301C62.8506 35.1623 62.3168 35.4103 61.7554 35.4103C61.2043 35.4103 60.7076 35.166 60.4282 34.7545C60.2961 34.56 60.1327 34.3956 59.9456 34.2607C59.9424 34.2424 59.9402 34.2246 59.9364 34.2053C59.8593 33.8182 59.6263 32.6376 58.4048 32.6376C58.3585 32.6376 58.3105 32.6405 58.2619 32.6437C58.6917 32.5164 58.9646 32.3125 59.1339 32.1293C59.5152 31.7192 59.6409 31.1493 59.4872 30.5259C59.4154 30.2328 59.2466 29.9819 59.0115 29.7907C59.0919 29.801 59.1733 29.8076 59.258 29.8076C59.4117 29.8076 59.5718 29.7907 59.7352 29.7578C60.3786 29.6277 60.7868 29.2556 60.8569 28.7374C60.8871 28.5096 60.8478 28.2719 60.7566 28.0445C60.9799 28.0788 61.2182 28.0022 61.352 27.8223L63.2135 25.3235C63.5667 25.6561 64.003 25.8408 64.4646 25.8408C64.6879 25.8408 64.9155 25.7985 65.1419 25.7134C65.7465 25.487 66.165 25.1384 66.358 24.7161C66.7894 24.9693 66.9906 25.339 66.9086 25.7463C66.825 26.1583 66.4238 26.6225 65.7174 26.7277C65.3566 26.7785 64.971 26.8761 64.6668 27.0485Z" fill="#D69C47"/>
<path d="M73.2538 32.7506L62.8398 11.8543C62.1825 10.536 60.8488 9.59928 59.2827 9.29248L60.1116 3.41916C60.1423 3.30594 60.1596 3.19131 60.1596 3.07433C60.1596 3.06165 60.1574 3.0499 60.1574 3.03816C60.1574 3.02735 60.1574 3.01796 60.1553 3.00762C60.0674 1.28817 56.5642 0 51.9362 0C47.2489 0 43.7118 1.32149 43.7118 3.07389C43.7118 3.2463 43.7474 3.41401 43.8137 3.57703L44.6107 9.17928H39.37C39.108 7.82304 38.429 6.79175 37.3731 6.2431C36.5577 5.81888 35.7844 5.68546 34.9415 5.82263C34.3731 5.91612 33.8339 6.12283 33.3112 6.3239C32.8992 6.48222 32.4414 6.65839 31.9345 6.7857C32.107 6.15337 32.552 5.63989 33.2633 5.25844C33.5054 5.12925 33.5803 4.8516 33.431 4.64161C33.3199 4.48423 33.1052 4.40107 32.8965 4.43489C32.8345 4.44523 32.7757 4.46543 32.7213 4.49409C31.5424 5.12642 31.0717 5.96314 30.9039 6.6697C30.4062 6.11207 29.8356 5.69442 29.2009 5.42387C27.9886 4.90709 26.6339 4.97945 25.7118 5.12978C24.9342 5.25709 24.3885 5.45018 24.3285 5.47179C24.0891 5.55823 23.9607 5.78749 24.0287 6.005C24.0427 6.05011 24.3711 7.0766 25.1881 8.03775C25.1466 8.07392 25.1083 8.10915 25.0727 8.14486C24.7713 8.44506 24.5539 8.7941 24.411 9.17934H22.3213L22.571 8.70062C22.6562 8.5376 22.6152 8.34546 22.4674 8.21955C22.3197 8.09412 22.098 8.06311 21.9131 8.14204C21.5566 8.29284 18.4094 9.64729 17.4452 10.6799C17.2753 10.8626 17.3066 11.13 17.5153 11.2784C17.7251 11.4264 18.032 11.3996 18.2024 11.2173C18.6818 10.7048 20.0073 9.99688 21.093 9.47589L15.5227 20.1219C15.5082 20.1501 15.4974 20.1796 15.4904 20.2102C15.4704 20.2924 13.4665 28.4968 12.8473 29.8244C12.5674 30.4238 12.1873 30.8199 11.7467 30.9679C11.4662 31.0628 11.1642 31.0491 10.8763 30.9293C10.6341 30.8283 10.3418 30.9171 10.2254 31.1299C10.1094 31.3413 10.2124 31.5955 10.4556 31.6979C10.7485 31.8196 11.0586 31.8807 11.367 31.8807C11.6151 31.8807 11.8632 31.8407 12.0994 31.7609C12.5858 31.5974 13.2674 31.1835 13.7528 30.1439C14.3859 28.7862 16.2562 21.1663 16.4358 20.4319L21.78 10.2164H24.2229C24.2137 10.6608 24.2795 11.1386 24.431 11.6469C25.4487 15.059 27.7853 17.7716 29.8691 17.9548C30.2488 17.9886 30.5821 17.9802 30.8889 17.9304C31.5668 17.819 31.9448 17.5254 32.2511 17.29C32.4598 17.1289 32.5984 17.0218 32.7947 16.9809C32.8254 16.9743 32.8556 16.9687 32.8858 16.9649C33.4122 16.8785 33.842 17.01 34.3402 17.1627C34.8304 17.3135 35.387 17.4831 36.0179 17.3798C37.6293 17.1157 38.8404 14.6649 39.2837 12.4991C39.4509 11.684 39.5151 10.9197 39.4886 10.2168H44.7611L45.8153 17.6198V17.6395C45.8153 19.0761 48.9696 19.8509 51.9378 19.8509C54.79 19.8509 57.8148 19.1335 58.045 17.8002C58.0768 17.7532 58.0984 17.6997 58.106 17.6428L58.2909 16.333L60.261 19.9011C60.5765 20.4728 60.5333 21.1343 60.1456 21.6713C59.7584 22.2082 59.0924 22.5282 58.3644 22.5282L45.2411 22.5244C44.9116 22.5244 44.6452 22.757 44.6452 23.0431C44.6452 23.3301 44.9121 23.5622 45.2411 23.5622H58.3644C59.505 23.5622 60.5463 23.0604 61.1529 22.22C61.7591 21.3796 61.827 20.3441 61.3331 19.4492L58.559 14.4234L59.1366 10.3292C60.2863 10.588 61.2603 11.2875 61.7483 12.2657L72.1623 33.162C72.6886 34.218 72.5689 35.4241 71.8446 36.3875C71.1193 37.351 69.8963 37.9256 68.575 37.9256L5.33638 37.9261C4.01462 37.9261 2.79149 37.351 2.0667 36.388C1.34138 35.4249 1.22274 34.2185 1.74907 33.1624L4.37693 27.8882L6.95468 34.3036C6.90453 34.2224 6.86139 34.1378 6.83389 34.0476L5.11842 34.0481C4.79001 34.0481 4.52306 34.2806 4.52306 34.5667C4.52306 34.8538 4.78893 35.0858 5.11842 35.0858H7.26848L7.77648 36.3514C7.84065 36.5116 8.00945 36.6234 8.20467 36.6356C8.21545 36.6356 8.22624 36.6361 8.23703 36.6361C8.4193 36.6361 8.58864 36.5464 8.67221 36.4026L9.43906 35.0858H13.2048C14.6807 35.0858 15.9863 34.2205 16.38 32.9812L22.6663 13.1961C22.7542 12.9199 22.5687 12.6343 22.2522 12.5582C21.9345 12.4816 21.6072 12.6432 21.5198 12.919L15.2335 32.7052C14.9817 33.4958 14.148 34.0488 13.2058 34.0488H10.0441L10.8573 32.6521C10.9797 32.4426 10.8837 32.1866 10.6421 32.0804C10.4027 31.9738 10.1088 32.0583 9.98582 32.2669L8.47909 34.8531C8.42948 34.8635 8.37986 34.8729 8.32755 34.8776C8.29142 34.8808 8.25636 34.8804 8.22023 34.8823L2.20465 19.9079L3.32742 19.2446C3.47679 19.1562 3.55014 19.0087 3.53827 18.8626L6.26264 26.6324C6.32735 26.8156 6.52095 26.9335 6.72965 26.9335C6.77656 26.9335 6.82564 26.9274 6.87256 26.9148C7.13087 26.8462 7.27594 26.6089 7.19721 26.3839L3.7377 16.5188L19.4469 4.46451L18.0993 8.76824C18.0281 8.99515 18.1818 9.22957 18.4428 9.29066C18.7043 9.35267 18.9707 9.21878 19.0419 8.99233L20.8177 3.31961C20.8743 3.13687 20.7875 2.94519 20.6042 2.84606C20.4219 2.74694 20.1851 2.76385 20.0234 2.88835L2.85492 16.0623C2.71039 16.1727 2.65485 16.3461 2.71039 16.5053L3.47345 18.6828C3.46752 18.6724 3.46267 18.6626 3.45566 18.6532C3.30465 18.4591 3.00104 18.4089 2.77834 18.5399L1.34492 19.3879C1.16157 19.4964 1.08499 19.6984 1.15778 19.8803L3.79697 26.4493L0.655679 32.752C-0.0308236 34.1309 0.123949 35.7032 1.06984 36.9594C1.93107 38.1029 3.32938 38.825 4.87448 38.9457C5.15653 40.8831 7.05699 42.3864 9.35642 42.3864H64.5519C66.8519 42.3864 68.7513 40.8831 69.0339 38.9457C70.5784 38.8245 71.9777 38.1034 72.8389 36.9594C73.7848 35.7037 73.9391 34.1312 73.252 32.7525L73.2538 32.7506ZM25.1847 6.16568C25.3777 6.11635 25.621 6.0628 25.8992 6.01629C26.6725 5.88944 27.7943 5.82414 28.7488 6.23099C30.0134 6.7689 30.7209 8.03546 30.997 8.64052C30.804 8.69032 30.5607 8.74481 30.2836 8.79085C29.5102 8.9177 28.3881 8.983 27.433 8.57664C26.169 8.03825 25.4613 6.77218 25.1847 6.16568ZM38.267 12.3402C37.7768 14.7403 36.6189 16.3667 35.8273 16.4964C35.4671 16.5556 35.1198 16.4495 34.6813 16.3146C34.1237 16.1427 33.4933 15.9501 32.6951 16.0802C32.6493 16.0882 32.6024 16.0962 32.5555 16.1056C32.1063 16.2 31.8194 16.4213 31.5659 16.6181C31.313 16.814 31.0951 16.9827 30.6977 17.048C30.4922 17.0818 30.2555 17.0856 29.9723 17.0607C28.1561 16.9009 26.2001 14.0084 25.4295 11.4208C25.0849 10.2623 25.2262 9.35928 25.8507 8.73642C25.8582 8.72844 25.8669 8.72092 25.876 8.71199C26.2185 8.99198 26.5895 9.21795 26.981 9.38426C28.1933 9.90103 29.548 9.82868 30.4701 9.67835C31.2461 9.55103 31.7934 9.35794 31.8549 9.33633C32.0938 9.24942 32.2221 9.01969 32.1531 8.80312C32.1456 8.77963 32.1084 8.66454 32.0356 8.48883C32.0409 8.4301 32.0339 8.37279 32.0129 8.31829C31.9795 8.22856 31.9083 8.01387 31.8738 7.72824C32.5953 7.58072 33.2182 7.34254 33.7284 7.14617C34.2396 6.94933 34.6807 6.77973 35.1256 6.70786C35.7199 6.61015 36.2511 6.70598 36.8459 7.01511C38.5193 7.88422 38.6784 10.3365 38.267 12.3402ZM58.8951 5.30409C58.7754 5.1904 58.6352 5.08329 58.4766 4.98134C58.6567 4.89396 58.8255 4.80235 58.9781 4.70746L58.8951 5.30409ZM51.9369 0.822729C56.2268 0.822729 59.2155 2.00895 59.2155 3.07448C59.2155 3.56493 58.5808 4.07936 57.4802 4.49374C56.0382 3.94596 53.9646 3.66127 51.9623 3.66127C49.9475 3.66127 47.8616 3.95018 46.4186 4.50313C45.3012 4.08831 44.6584 3.56778 44.6584 3.07449C44.6584 2.00853 47.647 0.82274 51.937 0.82274L51.9369 0.822729ZM51.9369 6.14776C54.1016 6.14776 56.0186 5.86494 57.4574 5.38999C58.0873 5.68079 58.4286 5.9993 58.4286 6.27742C58.4286 7.02721 55.9685 8.073 51.9633 8.073C47.958 8.073 45.4979 7.02724 45.4979 6.27742C45.4979 6.00259 45.8312 5.68737 46.4481 5.39938C47.8832 5.86964 49.7878 6.14776 51.9369 6.14776ZM47.8707 4.9202C48.9315 4.65946 50.3158 4.48377 51.9628 4.48377C53.5963 4.48377 54.9725 4.65759 56.0311 4.91503C54.8938 5.16778 53.5025 5.32516 51.9376 5.32516C50.3839 5.32422 49.0033 5.16919 47.8709 4.9202H47.8707ZM45.4262 4.9949C45.2698 5.09731 45.1323 5.20583 45.0147 5.31905L44.9312 4.72758C45.0832 4.8206 45.2488 4.90939 45.4262 4.9949ZM57.1942 17.3595C57.143 17.4253 57.1123 17.5056 57.1123 17.592C57.1123 17.6061 57.1128 17.6202 57.1155 17.6343C57.1155 18.2028 55.0987 19.0263 51.9379 19.0263C48.7768 19.0263 46.7603 18.2046 46.7603 17.6437L46.7609 17.6235C46.7614 17.6122 46.7625 17.6019 46.7625 17.5911C46.7625 17.5596 46.7576 17.5286 46.7501 17.4995L45.3243 7.49198C46.6201 8.41042 49.3499 8.89621 51.9627 8.89621C54.5637 8.89621 57.2816 8.41514 58.5845 7.50425L57.1942 17.3595ZM64.5532 41.349H9.35909C7.72563 41.349 6.36497 40.3188 6.08348 38.9644H67.8297C67.5471 40.3178 66.1871 41.349 64.5536 41.349H64.5532Z" fill="#D69C47"/>
<path d="M48.1681 34.0507H20.0713C19.7429 34.0507 19.476 34.2832 19.476 34.5693C19.476 34.8564 19.7418 35.0884 20.0713 35.0884H48.1681C49.1399 35.0884 50.0567 34.7173 50.6839 34.0709C51.3116 33.4244 51.5786 32.575 51.4162 31.7407L50.2374 25.649C50.1835 25.3666 49.8766 25.1773 49.5509 25.2238C49.2268 25.2708 49.0084 25.5391 49.0628 25.8214L50.2428 31.9136C50.3463 32.4464 50.1748 32.9885 49.7752 33.4014C49.3751 33.8144 48.7894 34.0507 48.1687 34.0507H48.1681Z" fill="#D69C47"/>
<path d="M7.24317 28.4079C7.11428 28.703 6.726 29.7262 7.16336 30.5267C7.36721 30.8997 7.7269 31.1684 8.20146 31.3046C8.40153 31.361 8.59783 31.3897 8.79142 31.3897C9.78046 31.3897 10.6552 30.6521 11.2014 29.3207C11.3864 28.8702 11.8345 27.4134 12.4029 25.5685C13.241 22.8461 14.6086 18.4052 15.1165 17.4562C15.4843 17.4689 15.8284 17.3815 16.1471 17.1955C17.3772 16.4795 17.828 14.4683 18.157 13.0002C18.2374 12.6413 18.3069 12.3308 18.3706 12.132C18.4439 11.9056 18.2918 11.6707 18.0319 11.6082C17.772 11.5443 17.5023 11.6768 17.4295 11.9033C17.3551 12.1344 17.2829 12.4604 17.1976 12.8381C16.935 14.0089 16.4966 15.9693 15.6041 16.4893C15.417 16.5978 15.2244 16.6293 14.9979 16.5898C14.3557 16.4761 14.0839 17.2001 13.2366 19.729C12.6753 21.3992 12.0297 23.4977 11.4603 25.3487C10.9205 27.1024 10.4535 28.6171 10.282 29.0361C10.0647 29.5655 9.45851 30.7682 8.50674 30.4967C8.28186 30.4328 8.13572 30.3271 8.0462 30.1622C7.84452 29.793 7.9556 29.1681 8.15675 28.7129C8.33094 28.3164 8.79202 27.4378 9.37605 26.3268C12.4769 20.4258 13.9632 17.2641 13.4854 16.3654C13.3921 16.1902 13.2292 16.0671 13.0275 16.0173C12.8954 15.9844 12.8178 15.9271 12.7622 15.8171C12.5745 15.4479 12.5389 14.3415 14.4081 11.0844C14.5294 10.8744 14.4307 10.6189 14.1891 10.5141C13.947 10.4084 13.6547 10.4939 13.5345 10.7039C11.9285 13.5025 11.3989 15.236 11.8693 16.161C12.0203 16.4593 12.2753 16.6749 12.6124 16.7919C12.7461 17.8668 9.77577 23.5207 8.488 25.9721C7.89587 27.0963 7.4294 27.9856 7.24336 28.4079L7.24317 28.4079Z" fill="#D69C47"/>
<path d="M15.3204 10.8172C15.0632 10.7458 14.7887 10.8688 14.7067 11.0925L13.4691 14.4679C13.3871 14.692 13.5284 14.9311 13.7862 15.0034C13.8347 15.0175 13.8854 15.0231 13.9345 15.0231C14.141 15.0231 14.3335 14.908 14.3999 14.7277L15.6375 11.3523C15.7195 11.1282 15.5782 10.8886 15.3204 10.8172Z" fill="#D69C47"/>
<path d="M15.2832 15.3264C15.3301 15.3391 15.3776 15.3438 15.4239 15.3438C15.6343 15.3438 15.8284 15.2245 15.8915 15.0408L17.0207 11.7588C17.0989 11.5338 16.9517 11.2961 16.6929 11.2294C16.4356 11.1608 16.1628 11.2895 16.0846 11.515L14.9553 14.796C14.8782 15.021 15.0254 15.2592 15.2832 15.3264Z" fill="#D69C47"/>
</svg>
