<svg width="49" height="49" viewBox="0 0 49 49" fill="none" xmlns="http://www.w3.org/2000/svg">
<circle cx="24.5005" cy="24.5122" r="23.8335" fill="white"/>
<path d="M23.5832 8.01172C27.8172 8.01172 28.3455 8.0273 30.0067 8.10522C31.6664 8.18314 32.7962 8.44338 33.7904 8.82985C34.8189 9.22567 35.6853 9.76174 36.5518 10.6266C37.3442 11.4056 37.9573 12.348 38.3485 13.388C38.7335 14.3807 38.9953 15.512 39.0732 17.1717C39.1464 18.8329 39.1667 19.3612 39.1667 23.5952C39.1667 27.8292 39.1511 28.3575 39.0732 30.0187C38.9953 31.6783 38.7335 32.8081 38.3485 33.8023C37.9585 34.843 37.3452 35.7855 36.5518 36.5637C35.7725 37.3559 34.8303 37.969 33.7904 38.3605C32.7977 38.7454 31.6664 39.0072 30.0067 39.0851C28.3455 39.1584 27.8172 39.1786 23.5832 39.1786C19.3492 39.1786 18.8209 39.1631 17.1597 39.0851C15.5001 39.0072 14.3703 38.7454 13.376 38.3605C12.3356 37.9701 11.3931 37.3568 10.6147 36.5637C9.8221 35.7849 9.20893 34.8425 8.81789 33.8023C8.43142 32.8097 8.17117 31.6783 8.09326 30.0187C8.02001 28.3575 7.99976 27.8292 7.99976 23.5952C7.99976 19.3612 8.01534 18.8329 8.09326 17.1717C8.17117 15.5105 8.43142 14.3822 8.81789 13.388C9.20784 12.3473 9.82116 11.4047 10.6147 10.6266C11.3933 9.83379 12.3357 9.22057 13.376 8.82985C14.3703 8.44338 15.4985 8.18314 17.1597 8.10522C18.8209 8.03198 19.3492 8.01172 23.5832 8.01172ZM23.5832 15.8034C21.5167 15.8034 19.5349 16.6244 18.0736 18.0856C16.6124 19.5468 15.7915 21.5287 15.7915 23.5952C15.7915 25.6617 16.6124 27.6435 18.0736 29.1048C19.5349 30.566 21.5167 31.3869 23.5832 31.3869C25.6497 31.3869 27.6316 30.566 29.0928 29.1048C30.554 27.6435 31.3749 25.6617 31.3749 23.5952C31.3749 21.5287 30.554 19.5468 29.0928 18.0856C27.6316 16.6244 25.6497 15.8034 23.5832 15.8034ZM33.7125 15.4139C33.7125 14.8972 33.5072 14.4018 33.1419 14.0365C32.7766 13.6712 32.2812 13.4659 31.7645 13.4659C31.2479 13.4659 30.7524 13.6712 30.3871 14.0365C30.0218 14.4018 29.8166 14.8972 29.8166 15.4139C29.8166 15.9305 30.0218 16.426 30.3871 16.7913C30.7524 17.1566 31.2479 17.3618 31.7645 17.3618C32.2812 17.3618 32.7766 17.1566 33.1419 16.7913C33.5072 16.426 33.7125 15.9305 33.7125 15.4139ZM23.5832 18.9201C24.8231 18.9201 26.0122 19.4127 26.889 20.2894C27.7657 21.1662 28.2583 22.3553 28.2583 23.5952C28.2583 24.8351 27.7657 26.0242 26.889 26.9009C26.0122 27.7777 24.8231 28.2702 23.5832 28.2702C22.3433 28.2702 21.1542 27.7777 20.2775 26.9009C19.4007 26.0242 18.9082 24.8351 18.9082 23.5952C18.9082 22.3553 19.4007 21.1662 20.2775 20.2894C21.1542 19.4127 22.3433 18.9201 23.5832 18.9201Z" fill="#6D9AE4"/>
</svg>
