<svg width="32" height="43" viewBox="0 0 32 43" fill="none" xmlns="http://www.w3.org/2000/svg">
<path d="M17.1862 26.9349L16.8985 31.6414C16.8823 31.9063 16.9207 32.2336 17.053 32.4799C17.1371 32.6362 17.2621 32.7563 17.4392 32.7886C17.5827 32.8148 17.7436 32.7469 17.8896 32.5884C18.0509 32.4134 18.1877 32.1388 18.2688 31.7654L18.6138 26.5262L17.1862 26.9352L17.1862 26.9349ZM24.1314 10.9029L20.2582 9.1815L20.082 12.0627L24.1314 10.9029ZM20.296 8.56392L24.9995 10.6545L27.3866 9.97083L27.2065 6.35417V6.34381C27.2007 5.87291 27.1248 5.25176 26.8746 4.75192C26.7072 4.41726 26.4597 4.13747 26.0986 4.0055L26.0983 4.00611L20.6868 2.1661L20.2957 8.56391L20.296 8.56392ZM25.6636 22.0733L19.634 19.3936L19.3597 23.8789L25.6636 22.0733ZM19.6718 18.7758L26.5317 21.8246L27.9566 21.4165L27.5061 12.3694L19.9306 14.5392L19.6715 18.7754L19.6718 18.7758ZM12.0256 25.8222C12.0256 25.8168 12.0256 25.8116 12.0259 25.8061L11.5327 15.9038C11.522 15.912 11.5114 15.92 11.5007 15.9276C11.2959 16.0751 11.0539 16.1571 10.8085 16.1605C10.6689 16.1626 10.529 16.1394 10.3949 16.0885L10.3791 16.0818L4.43203 13.4101C4.23148 16.7308 4.03123 20.0511 3.82976 23.3716L11.1566 26.6046C11.219 26.6268 11.2836 26.6369 11.3477 26.6359C11.4729 26.6341 11.5988 26.5905 11.7076 26.5122C11.8195 26.4317 11.9124 26.3138 11.9685 26.166C12.0069 26.0645 12.0279 25.9493 12.0261 25.8219L12.0256 25.8222ZM12.0832 26.956C12.071 26.9655 12.0588 26.9746 12.0466 26.9835C11.8418 27.131 11.5998 27.213 11.3544 27.2163C11.2148 27.2185 11.0749 27.1953 10.9408 27.1444L10.9259 27.1386L3.79228 23.9907C3.49663 28.8549 3.19824 33.719 2.89194 38.5824L2.88736 38.6034C2.78343 39.0968 2.59294 39.4717 2.36282 39.7217C2.0751 40.0341 1.72368 40.1615 1.38234 40.0996C1.00349 40.0307 0.748689 39.7966 0.586559 39.4952C0.398196 39.145 0.342119 38.7 0.363756 38.3474L0.672199 33.3302L2.18239 8.65686H2.1827C2.19032 8.47429 2.21379 8.29812 2.25219 8.13231C2.25828 7.93877 2.28267 7.75712 2.32259 7.58735C2.52589 6.72508 3.1233 6.11796 3.83645 5.7315C4.52772 5.35691 5.33416 5.19111 5.98459 5.20483C6.19824 5.20909 6.39483 5.23195 6.56582 5.27249L6.57862 5.27554L12.4339 7.26645L12.4385 7.26858C12.963 7.45786 13.3129 7.84463 13.5424 8.30336C13.8371 8.89282 13.9277 9.60148 13.9356 10.1367H13.9359L14.1215 13.7703L17.4827 12.8075C17.4748 12.7779 17.4717 12.7468 17.4736 12.7148L18.0728 3.45159H18.0731C18.081 3.26933 18.1042 3.09377 18.1426 2.92827C18.1487 2.73473 18.173 2.55308 18.213 2.38331C18.4163 1.52104 19.0137 0.913922 19.7268 0.52746C20.4181 0.152873 21.2245 -0.0129325 21.875 0.000784442C22.0886 0.00505152 22.2852 0.027911 22.4562 0.0684478L22.469 0.0714956L28.3243 2.06241L28.3289 2.06454C28.8534 2.25381 29.2033 2.64059 29.4328 3.09932C29.7275 3.68878 29.818 4.39744 29.826 4.93262H29.8263L31.3198 34.1853C31.3743 35.107 31.2939 35.7266 31.1238 36.1478C30.9318 36.6239 30.6319 36.8604 30.2795 36.9826C29.9467 37.0981 29.5572 37.1533 29.2085 36.8266C28.9195 36.5556 28.6906 35.9979 28.6291 34.9167V34.9146L28.0765 23.817L19.2081 26.3571L18.8466 31.8442L18.8423 31.8649C18.7384 32.3584 18.5479 32.7333 18.3178 32.9832C18.0301 33.2953 17.6786 33.423 17.3373 33.3611C16.9585 33.2923 16.7036 33.0582 16.5415 32.7567C16.3532 32.4065 16.2971 31.9616 16.3187 31.6089L16.5939 27.1063L14.828 27.6119L15.4293 39.3907C15.4839 40.3123 15.4034 40.932 15.2333 41.3532C15.0413 41.8296 14.7414 42.0658 14.3891 42.188C14.0563 42.3035 13.6668 42.3587 13.318 42.032C13.0291 41.761 12.8002 41.2032 12.7386 40.1221V40.12L12.0833 26.9578L12.0832 26.956ZM3.22332 23.7399L2.58112 23.4564C2.43422 23.3918 2.36747 23.2199 2.43208 23.073C2.49669 22.9261 2.66859 22.8593 2.81551 22.924L3.2608 23.1205L3.86428 13.1551L3.26294 12.8847C3.11664 12.8195 3.0508 12.6476 3.11603 12.5013C3.18126 12.355 3.35316 12.2892 3.49946 12.3544L3.90178 12.5351L4.2212 7.26292C4.22242 7.24128 4.22607 7.22056 4.23156 7.20075C4.17548 7.19252 4.12184 7.18734 4.07002 7.18551C3.73567 7.17179 3.4635 7.27664 3.25871 7.46012C3.04536 7.65092 2.89723 7.93041 2.82073 8.25505C2.78811 8.39403 2.7683 8.5385 2.76251 8.6851V8.6909L1.25232 33.3643L0.943876 38.3814C0.927722 38.6463 0.966126 38.9736 1.09841 39.2199C1.18253 39.3762 1.30749 39.4963 1.48457 39.5286C1.62812 39.5548 1.78905 39.4869 1.93505 39.3284C2.09628 39.1534 2.23283 38.8791 2.31421 38.5061L2.66776 32.9123L3.22339 23.7404L3.22332 23.7399ZM12.0551 14.7068C12.0584 14.7236 12.0603 14.7413 12.0603 14.7589C12.0606 14.7766 12.0606 14.7943 12.0603 14.812L13.3187 40.0885C13.3702 40.9949 13.5251 41.4277 13.7159 41.6066C13.8472 41.7298 14.0338 41.695 14.1996 41.6377C14.4016 41.5676 14.576 41.4262 14.6936 41.1351C14.8332 40.7892 14.8978 40.2519 14.8488 39.4228V39.4207L13.3553 10.1657V10.1544C13.3495 9.68349 13.2736 9.06234 13.0234 8.5625C12.856 8.22784 12.6085 7.94805 12.2474 7.81608L12.2471 7.81669L6.42134 5.83584C6.28754 5.80536 6.13606 5.78799 5.97299 5.78464C5.41157 5.77305 4.71303 5.91722 4.11168 6.24304C3.89315 6.3616 3.68833 6.50425 3.50941 6.67218C3.68802 6.62037 3.88247 6.59629 4.09278 6.60482C4.23329 6.61061 4.37837 6.63012 4.5268 6.66517L4.5396 6.66822L10.3949 8.65913L10.3995 8.66126C10.924 8.85054 11.2739 9.23731 11.5034 9.69604C11.7984 10.2858 11.8889 10.995 11.8966 11.5306H11.8969L12.0551 14.7068ZM4.46947 12.79L10.6039 15.5459C10.6686 15.5697 10.7356 15.5807 10.8018 15.5797C10.927 15.5779 11.0529 15.5343 11.1617 15.456C11.2736 15.3755 11.3665 15.2576 11.4226 15.1098C11.4549 15.0241 11.475 14.9287 11.4793 14.8248L11.3166 11.5578V11.5474C11.3108 11.0765 11.2349 10.4554 10.9846 9.95552C10.8173 9.62086 10.5698 9.34107 10.2086 9.20909L10.2083 9.2097L4.79685 7.36969C4.68744 9.17646 4.57832 10.983 4.46921 12.7898L4.46947 12.79ZM14.1517 14.3664L14.2133 15.5712L27.4769 11.7723L27.4169 10.5668L14.1517 14.366L14.1517 14.3664ZM14.2438 16.168L14.7055 25.2112L16.7455 24.6269L17.3164 15.2872L14.2438 16.1671L14.2438 16.168ZM14.736 25.8081L14.7976 27.0129L28.0464 23.218L27.9863 22.0125L14.736 25.8078L14.736 25.8081ZM17.338 24.4573L18.7671 24.048L19.338 14.7083L17.9089 15.1176L17.338 24.4573ZM18.061 12.6411L19.4898 12.2318L20.1118 2.05796C20.1131 2.03632 20.1167 2.01559 20.1222 1.99547C20.0661 1.98724 20.0125 1.98206 19.9607 1.98023C19.6263 1.96652 19.3541 2.07137 19.1494 2.25485C18.936 2.44564 18.7879 2.72513 18.7114 3.04977C18.6788 3.18875 18.6589 3.33323 18.6532 3.47983V3.48654L18.061 12.6405V12.6411ZM20.0025 1.03863C19.7839 1.15719 19.5791 1.29984 19.4002 1.46777C19.5788 1.41596 19.7733 1.39188 19.9836 1.40042C20.1241 1.40621 20.2692 1.42571 20.4176 1.46076L20.4304 1.46381L26.2857 3.45472L26.2903 3.45686C26.8145 3.64613 27.1647 4.03291 27.3942 4.49164C27.6892 5.0814 27.7797 5.79061 27.7874 6.32618H27.7877L29.2095 34.8837C29.261 35.7901 29.4159 36.2229 29.6067 36.4018C29.738 36.525 29.9246 36.4902 30.0904 36.4329C30.2924 36.3628 30.4668 36.2214 30.5844 35.9303C30.724 35.5844 30.7886 35.0471 30.7396 34.218V34.2159L29.2461 4.96086V4.94958C29.2403 4.47868 29.1644 3.85753 28.9142 3.3577C28.7468 3.02304 28.4993 2.74324 28.1382 2.61127L28.1379 2.61188L22.3121 0.631036C22.1783 0.600557 22.0269 0.583184 21.8638 0.579831C21.3024 0.568249 20.6038 0.712413 20.0025 1.03823L20.0025 1.03863Z" fill="#D69C47"/>
</svg>
