<svg width="42" height="41" viewBox="0 0 42 41" fill="none" xmlns="http://www.w3.org/2000/svg">
<path d="M24.511 15.4165H6.77432C6.11792 15.3852 5.52399 15.0167 5.20462 14.4423C4.88492 13.8682 4.88492 13.1694 5.20462 12.595C5.52404 12.0209 6.11795 11.6524 6.77432 11.6211H24.511C25.1674 11.6523 25.7614 12.0209 26.0807 12.595C26.4004 13.1694 26.4004 13.8682 26.0807 14.4423C25.7613 15.0167 25.1674 15.3852 24.511 15.4165ZM6.77432 12.4789C6.41864 12.5018 6.09923 12.7046 5.9277 13.0171C5.75614 13.3295 5.75614 13.7081 5.9277 14.0205C6.09926 14.3327 6.41868 14.5358 6.77432 14.5586H24.511C24.8667 14.5358 25.1858 14.3327 25.3574 14.0205C25.529 13.7081 25.529 13.3295 25.3574 13.0171C25.1859 12.7046 24.8667 12.5018 24.511 12.4789H6.77432Z" fill="#D69C47"/>
<path d="M10.7893 12.4795C10.5784 12.4826 10.3965 12.3314 10.3605 12.1236L8.88537 3.33664C8.8173 2.92907 8.60808 2.55807 8.2948 2.28855C7.98125 2.01907 7.58344 1.86787 7.17001 1.86145H0.42877C0.191928 1.86145 0 1.66952 0 1.43268C0 1.19583 0.191928 1.00391 0.42877 1.00391H7.14852C7.76642 1.00642 8.36372 1.22736 8.83427 1.62768C9.30517 2.02772 9.61927 2.58143 9.72168 3.19103L11.2055 11.9822H11.2052C11.244 12.2152 11.0866 12.4358 10.8537 12.4752L10.7893 12.4795Z" fill="#D69C47"/>
<path d="M12.1994 20.8378C11.9883 20.8409 11.8064 20.69 11.7704 20.4819L10.8613 15.0616C10.8228 14.8284 10.9798 14.6077 11.2131 14.5684C11.4463 14.5296 11.6669 14.6869 11.7063 14.9199L12.6241 20.336H12.6238C12.6439 20.4487 12.6179 20.5648 12.5518 20.6582C12.4857 20.7517 12.385 20.8147 12.2723 20.8334L12.1994 20.8378Z" fill="#D69C47"/>
<path d="M6.9641 12.4789C6.7546 12.4823 6.57299 12.3336 6.53533 12.1271L4.59291 1.50911C4.57227 1.39529 4.59793 1.27812 4.66377 1.18328C4.7296 1.08843 4.83059 1.02343 4.94441 1.00307C5.18125 0.960387 5.40777 1.118 5.45045 1.35485L7.39737 11.9729C7.41857 12.0847 7.3943 12.2008 7.33014 12.2951C7.2657 12.3891 7.16639 12.4538 7.05424 12.4744L6.9641 12.4789Z" fill="#D69C47"/>
<path d="M8.6681 21.7611C8.45832 21.7645 8.27699 21.6158 8.23933 21.4096L7.07719 15.0629C7.03534 14.8311 7.18878 14.6087 7.42032 14.5655C7.65214 14.5236 7.8742 14.6768 7.91771 14.9086L9.08406 21.2554V21.2551C9.10415 21.3672 9.07876 21.4824 9.01349 21.5759C8.94849 21.6691 8.8489 21.7327 8.73675 21.7525L8.6681 21.7611Z" fill="#D69C47"/>
<path d="M29.3632 22.3828C29.1263 22.3828 28.9341 22.1909 28.9341 21.954V14.9899C28.9344 14.7101 28.8222 14.442 28.6233 14.2453C28.4242 14.0487 28.1547 13.9401 27.8751 13.9435H25.9795C25.7427 13.9435 25.5508 13.7515 25.5508 13.5147C25.5508 13.2779 25.7427 13.0859 25.9795 13.0859H27.8751C28.3792 13.0871 28.8624 13.2879 29.2186 13.645C29.5746 14.0021 29.7746 14.4855 29.7746 14.9899V21.954C29.7748 22.1844 29.5933 22.3736 29.3632 22.3828Z" fill="#D69C47"/>
<path d="M33.0399 32.6811C32.803 32.6811 32.6111 32.4889 32.6111 32.2521V23.2466C32.6111 23.0193 32.5207 22.8011 32.3598 22.6401C32.1991 22.4792 31.9809 22.3891 31.7533 22.3891H17.9366C17.6997 22.3891 17.5078 22.1969 17.5078 21.96C17.5078 21.7232 17.6997 21.5312 17.9366 21.5312H31.7319C32.1869 21.5312 32.6231 21.712 32.9448 22.0337C33.2664 22.3553 33.4472 22.7916 33.4472 23.2466V32.2521C33.4475 32.4808 33.2684 32.6697 33.0399 32.6811Z" fill="#D69C47"/>
<path d="M12.9852 40.9975C10.227 40.9986 7.5816 39.9042 5.63082 37.9548C3.67976 36.0054 2.5831 33.3608 2.58203 30.6026C2.58092 27.8448 3.67533 25.1991 5.62468 23.2483C7.5741 21.2972 10.2187 20.2006 12.9769 20.1992C15.7347 20.1981 18.3804 21.2927 20.3312 23.2422C22.2823 25.1916 23.3792 27.8362 23.3803 30.5944C23.3778 33.3513 22.2823 35.9948 20.3337 37.9451C18.3849 39.8954 15.7422 40.9934 12.9858 40.9978L12.9852 40.9975ZM12.9852 21.0612C10.4539 21.0601 8.02573 22.0649 6.23557 23.8545C4.44518 25.6438 3.43923 28.0713 3.43923 30.6026C3.43923 33.134 4.44518 35.5616 6.23557 37.3511C8.02566 39.1404 10.4538 40.1452 12.9852 40.1441C15.5165 40.143 17.9435 39.1359 19.7323 37.345C21.521 35.5537 22.5245 33.1253 22.5222 30.594C22.5177 28.0665 21.5112 25.6438 19.7236 23.857C17.936 22.0699 15.5126 21.0645 12.9852 21.0612Z" fill="#D69C47"/>
<path d="M12.9832 38.3456C10.9284 38.3456 8.95775 37.5293 7.5046 36.0765C6.05115 34.6237 5.23466 32.653 5.23438 30.5982C5.23409 28.5434 6.0498 26.5725 7.50238 25.119C8.95525 23.6656 10.9256 22.8485 12.9804 22.8477C15.0353 22.8471 17.0065 23.6625 18.4601 25.1148C19.9138 26.5671 20.7312 28.5375 20.7323 30.5923C20.7323 32.648 19.916 34.6195 18.4629 36.0731C17.0098 37.5271 15.0389 38.3445 12.9832 38.3456V38.3456ZM12.9832 23.7098C11.1551 23.7098 9.40189 24.4362 8.10941 25.7292C6.81694 27.0222 6.09136 28.7758 6.09193 30.6039C6.09277 32.4322 6.82001 34.185 8.11362 35.4771C9.40688 36.769 11.1608 37.4937 12.9891 37.4924C14.8172 37.491 16.57 36.7628 17.8613 35.469C19.1526 34.1749 19.8769 32.4207 19.8746 30.5924C19.8645 28.7708 19.1342 27.0269 17.8432 25.7415C16.5521 24.456 14.8052 23.7335 12.9833 23.7313L12.9832 23.7098Z" fill="#D69C47"/>
<path d="M12.9819 33.417C12.234 33.417 11.5165 33.1199 10.9873 32.591C10.4581 32.0621 10.1607 31.3448 10.1602 30.5966C10.1599 29.8484 10.4567 29.131 10.9854 28.6014C11.5137 28.0719 12.2309 27.7743 12.9791 27.7734C13.7273 27.7726 14.4451 28.0691 14.9748 28.5972C15.5043 29.1256 15.8025 29.8428 15.8036 30.5907C15.8047 31.34 15.5079 32.0586 14.9787 32.5889C14.4495 33.1189 13.7311 33.4169 12.9818 33.4169L12.9819 33.417ZM12.9819 28.6355C12.4605 28.6355 11.9606 28.8428 11.5921 29.2116C11.2239 29.5806 11.0172 30.0808 11.018 30.6022C11.0188 31.1236 11.2267 31.6235 11.5963 31.9912C11.9656 32.3591 12.4664 32.565 12.9877 32.5633C13.5091 32.5619 14.0085 32.3533 14.3759 31.9831C14.7433 31.6132 14.9483 31.1122 14.9461 30.5908C14.9439 30.0713 14.7358 29.5743 14.3678 29.2077C13.9996 28.8411 13.5013 28.6355 12.9819 28.6355Z" fill="#D69C47"/>
<path d="M33.043 29.6661H22.8585C22.6216 29.6661 22.4297 29.4742 22.4297 29.2374C22.4297 29.0005 22.6216 28.8086 22.8585 28.8086H33.043C33.2798 28.8086 33.4718 29.0005 33.4718 29.2374C33.4718 29.4742 33.2798 29.6661 33.043 29.6661Z" fill="#D69C47"/>
<path d="M33.0425 25.8068H21.4639C21.2271 25.8068 21.0352 25.6148 21.0352 25.378C21.0352 25.1411 21.2271 24.9492 21.4639 24.9492H33.0425C33.2793 24.9492 33.4713 25.1411 33.4713 25.378C33.4713 25.6148 33.2793 25.8068 33.0425 25.8068Z" fill="#D69C47"/>
<path d="M33.0421 40.9971C31.8247 40.9982 30.6567 40.5156 29.7953 39.6553C28.9338 38.7949 28.4498 37.6274 28.4492 36.4101C28.4489 35.1927 28.9324 34.025 29.7933 33.1641C30.6542 32.3032 31.8219 31.8197 33.0393 31.8203C34.2567 31.8206 35.4239 32.3049 36.2843 33.1663C37.1446 34.0275 37.6275 35.1955 37.6264 36.413C37.6241 37.6282 37.1404 38.7928 36.2812 39.652C35.422 40.5112 34.2573 40.9949 33.0421 40.9971ZM33.0421 32.6822C32.0524 32.6808 31.1028 33.0731 30.4023 33.7724C29.7018 34.4715 29.3079 35.4203 29.3071 36.4101C29.3062 37.3999 29.6987 38.3492 30.3981 39.0494C31.0977 39.7499 32.0468 40.1435 33.0362 40.1438C34.026 40.144 34.9753 39.7513 35.6752 39.0516C36.3754 38.3517 36.7685 37.4026 36.7685 36.4129C36.7674 35.4245 36.3746 34.4769 35.6761 33.7778C34.9776 33.0784 34.0305 32.6845 33.0421 32.6823L33.0421 32.6822Z" fill="#D69C47"/>
<path d="M33.0432 38.2457C32.5547 38.2471 32.0861 38.0538 31.7401 37.709C31.3942 37.3642 31.1995 36.896 31.1992 36.4076C31.1989 35.9191 31.3925 35.4507 31.7379 35.1054C32.0833 34.76 32.5519 34.5661 33.0404 34.5664C33.5286 34.567 33.997 34.7614 34.3418 35.1073C34.6866 35.4532 34.8796 35.9219 34.8785 36.4104C34.8774 36.8969 34.6838 37.363 34.3398 37.707C33.9959 38.0509 33.5297 38.2446 33.0432 38.2457ZM33.0432 35.4284C32.6456 35.4268 32.286 35.665 32.1329 36.0315C31.9795 36.3984 32.0623 36.8215 32.343 37.1033C32.6233 37.3851 33.0463 37.4699 33.4136 37.3181C33.781 37.1664 34.0209 36.8079 34.0209 36.4104C34.0209 35.8698 33.5838 35.4309 33.0432 35.4284Z" fill="#D69C47"/>
<path d="M40.7406 36.8419H37.1983C36.9615 36.8419 36.7695 36.65 36.7695 36.4131C36.7695 36.1763 36.9615 35.9844 37.1983 35.9844H40.7406C40.9775 35.9844 41.1694 36.1763 41.1694 36.4131C41.1694 36.65 40.9775 36.8419 40.7406 36.8419Z" fill="#D69C47"/>
</svg>
