<svg width="39" height="41" viewBox="0 0 39 41" fill="none" xmlns="http://www.w3.org/2000/svg">
<path d="M20.5018 6.55538C20.418 6.55538 20.3345 6.52335 20.2707 6.459L18.8903 5.06735C18.7636 4.9398 18.7645 4.7336 18.8923 4.60719C19.0196 4.48049 19.2258 4.48135 19.3525 4.60919L20.7329 6.00084C20.8596 6.12839 20.8587 6.33459 20.7309 6.461C20.6674 6.52392 20.5848 6.55538 20.5018 6.55538ZM13.1365 25.4372C13.0744 25.4461 13.0127 25.4504 12.9509 25.4504C12.6709 25.4504 12.3998 25.3597 12.1718 25.1875C11.5993 24.7546 11.4826 23.9329 11.9119 23.3557L14.2541 20.2067C14.5024 19.8732 14.8822 19.6819 15.2959 19.6819C15.7101 19.6819 16.0899 19.8732 16.3378 20.2067L18.6803 23.3557C19.1093 23.9329 18.9929 24.7543 18.4204 25.1873C18.1427 25.3975 17.8 25.4858 17.4557 25.4369C17.1105 25.3877 16.8054 25.2059 16.5966 24.925L15.8159 23.8754C15.692 23.7087 15.5024 23.6129 15.2962 23.6129C15.09 23.6129 14.9004 23.7087 14.7763 23.8754L13.9955 24.925C13.7867 25.2061 13.4816 25.388 13.1364 25.4372H13.1365ZM13.0444 24.7932C13.2166 24.7686 13.3687 24.6776 13.4734 24.5372L14.2542 23.4876C14.5024 23.1541 14.8822 22.9628 15.296 22.9628C15.7101 22.9628 16.0899 23.1541 16.3378 23.4876L17.1186 24.5372C17.2233 24.6779 17.3754 24.7689 17.5476 24.7932C17.7186 24.8175 17.8893 24.7734 18.0277 24.6688C18.3163 24.4505 18.3749 24.0359 18.1582 23.7447L15.8156 20.5957C15.6918 20.4289 15.5022 20.3331 15.296 20.3331C15.0898 20.3331 14.9001 20.4289 14.776 20.5957L12.4338 23.7447C12.217 24.0359 12.2756 24.4506 12.5642 24.6688C12.7026 24.7734 12.8734 24.8175 13.0444 24.7932ZM7.99867 12.9962C11.2009 12.2289 15.1922 12.1931 19.5738 12.8887C19.3304 12.2346 19.2 11.5357 19.2 10.8244V9.93839C17.6853 9.39701 16.5972 7.93958 16.5972 6.22996C16.5972 4.06101 18.3486 2.29619 20.5012 2.29619C22.1983 2.29619 23.6454 3.39352 24.1822 4.92046H28.6347C28.8718 4.92046 29.0938 4.98567 29.2854 5.09749L29.2857 3.27659C29.2545 3.28203 29.2236 3.28775 29.1921 3.29175C28.6682 3.35667 28.1488 3.20138 27.769 2.86534C27.7407 2.84017 27.7132 2.81443 27.6869 2.78783C27.2233 2.32053 27.0952 1.64585 27.3526 1.02785C27.6126 0.403533 28.2114 0 28.8781 0H34.2482C34.9148 0 35.5137 0.403533 35.7737 1.02814C36.0311 1.64617 35.9029 2.32051 35.4391 2.78842C35.413 2.81473 35.3856 2.84076 35.357 2.86592C34.9775 3.20139 34.4586 3.35697 33.9341 3.29205C33.9027 3.28805 33.8715 3.28233 33.8403 3.27689V5.08893L36.3096 7.04484C37.6349 8.09502 38.3953 9.67168 38.3953 11.3708V31.1055C38.3953 33.0511 37.0915 34.7614 35.2245 35.2644C34.0256 35.5876 32.7936 35.7515 31.5629 35.7515C30.3306 35.7515 29.1 35.5879 27.9057 35.2653C27.5885 35.1798 27.2854 35.0591 26.9988 34.9055C26.9925 35.0211 26.9825 35.132 26.9693 35.2401C26.5644 38.5239 23.784 41 20.5013 41C18.8712 41 17.3086 40.3857 16.1013 39.2703C15.0515 38.3005 14.3537 37.0279 14.0957 35.6374C11.4651 35.136 9.32299 33.0188 8.36125 30.2181C4.71689 29.4207 2.13464 27.7334 0.889053 25.3302C-0.296351 23.0434 -0.296351 20.0882 0.889053 17.8016C2.08991 15.4851 4.54828 13.8235 7.99848 12.9964L7.99867 12.9962ZM17.2199 15.1995C17.445 15.3969 17.6558 15.6291 17.8477 15.897C18.468 16.7636 18.8281 17.9001 18.8698 19.1147C21.2853 20.6682 22.7788 23.6314 22.7788 26.8966C22.7788 26.9095 22.7782 26.9221 22.7779 26.9347C23.315 26.8037 23.8598 26.6612 24.4053 26.5094V19.3499C24.4053 18.3226 23.9188 17.3413 23.1042 16.7253L22.2345 16.0675C20.4943 15.6637 18.8201 15.3743 17.22 15.1993L17.2199 15.1995ZM22.5631 29.0003C23.1728 28.8613 23.7897 28.7089 24.4054 28.5447V27.1846C23.8509 27.337 23.2981 27.4791 22.7533 27.6098C22.7213 28.0806 22.6572 28.5453 22.5631 29.0003ZM20.9615 32.6825C19.8679 34.1811 18.3851 35.2001 16.7566 35.5819C17.2505 37.2154 18.7605 38.3803 20.5013 38.3803C22.4727 38.3803 24.1428 36.8914 24.3862 34.9169C24.3991 34.8134 24.4051 34.6959 24.4051 34.558V29.218C23.7304 29.3953 23.0557 29.5589 22.3908 29.7059C22.0848 30.7909 21.6023 31.8042 20.9615 32.6824L20.9615 32.6825ZM7.81308 26.8963C7.81308 23.6308 9.30649 20.6677 11.722 19.1144C11.7638 17.9001 12.1239 16.7633 12.7442 15.8967C13.005 15.5324 13.3007 15.2321 13.6208 14.9996C12.7937 15.0019 11.9909 15.0388 11.2155 15.1131C7.14646 15.5026 4.29881 16.8877 3.19716 19.0126C2.40558 20.5395 2.40558 22.5918 3.19716 24.1187C3.95361 25.5781 5.54916 26.7012 7.82538 27.383C7.81737 27.222 7.81308 27.0598 7.81308 26.8965L7.81308 26.8963ZM13.8661 34.9183C13.345 34.1999 13.0607 33.3314 13.0607 32.4354V30.2895C13.0607 30.1774 13.1182 30.0733 13.2132 30.0138C13.6527 29.7382 14.3735 29.4095 15.3112 29.4095C15.8288 29.4095 16.613 29.5145 17.4092 30.0138C17.5042 30.0733 17.5616 30.1774 17.5616 30.2895V32.4354C17.5616 33.3262 17.2805 34.191 16.7646 34.9075C19.853 34.091 22.1281 30.7441 22.1281 26.8964C22.1281 23.7886 20.6915 20.983 18.379 19.5751C18.2829 19.5164 18.2237 19.4123 18.2228 19.2999C18.2037 16.9757 16.8904 15.0847 15.2958 15.0847C13.7011 15.0847 12.3881 16.9757 12.3687 19.2999C12.3678 19.4126 12.3086 19.5164 12.2125 19.5751C9.89999 20.9833 8.46375 23.7886 8.46375 26.8964C8.46375 30.7871 10.7497 34.1218 13.8661 34.9185L13.8661 34.9183ZM21.8032 10.8244C21.8032 11.8517 22.2897 12.833 23.1042 13.449L24.6686 14.6318C24.6897 14.6478 24.7103 14.6644 24.7312 14.6807V11.3707C24.7312 9.92014 25.2866 8.5602 26.2732 7.53952H24.1826C23.7902 8.65603 22.9111 9.54229 21.8032 9.93845L21.8032 10.8244ZM25.3818 15.2713C25.6712 15.577 25.9266 15.9119 26.144 16.27C27.93 16.5743 29.7523 16.7296 31.5635 16.7296C33.6338 16.7296 35.7118 16.5279 37.7449 16.1313V12.8581C35.7107 13.2468 33.6332 13.4438 31.5635 13.4438C29.494 13.4438 27.4166 13.2468 25.382 12.8581L25.3818 15.2713ZM29.9365 17.3387V31.0824C30.4765 31.1361 31.0193 31.1636 31.5633 31.1636C32.1092 31.1636 32.6517 31.1367 33.19 31.0838V17.3401C32.6478 17.367 32.1056 17.3807 31.5633 17.3807C31.0216 17.3807 30.479 17.3656 29.9365 17.3387ZM33.8409 31.0055C35.1758 30.8196 36.482 30.4695 37.7449 29.9579L37.7446 16.7948C36.4562 17.041 35.1507 17.2095 33.8406 17.3007L33.8409 31.0055ZM26.5158 16.9902C26.8356 17.7269 27.0083 18.5299 27.0083 19.3493V30.5196C27.7571 30.7349 28.5178 30.8965 29.2856 31.004V17.2999C28.3582 17.2355 27.433 17.1323 26.5158 16.9902ZM37.7446 31.1043V30.6579C35.7664 31.4247 33.6895 31.8139 31.5632 31.8139C30.0242 31.8139 28.4945 31.6054 27.0085 31.1953V34.1522C27.3354 34.3704 27.6937 34.5331 28.0758 34.6361C30.3523 35.2507 32.7666 35.2518 35.0557 34.6349C36.639 34.2082 37.7446 32.7565 37.7446 31.1043ZM29.9935 2.10875C30.0547 2.01923 30.1556 1.96718 30.262 1.96718C30.2792 1.96718 30.2964 1.96861 30.3138 1.97147C30.4382 1.99149 30.5397 2.08129 30.5746 2.20226C30.7022 2.64326 31.1089 2.95124 31.5633 2.95124C32.0177 2.95124 32.4244 2.64323 32.552 2.20197C32.5872 2.081 32.6887 1.99119 32.8128 1.97118C32.9372 1.95144 33.0619 2.00464 33.1331 2.10845C33.3359 2.40503 33.657 2.60036 34.0142 2.6444C34.3534 2.68644 34.6863 2.58863 34.9263 2.37642C34.944 2.36098 34.9606 2.34496 34.9769 2.32866C35.2566 2.04639 35.3301 1.65315 35.1731 1.2768C35.047 0.973935 34.7375 0.649906 34.2485 0.649906H28.8784C28.3893 0.649906 28.0799 0.973936 27.9535 1.27737C27.7965 1.65402 27.87 2.04699 28.1494 2.32894C28.166 2.34581 28.1828 2.36154 28.2003 2.37699C28.4402 2.58919 28.7728 2.687 29.1123 2.64496C29.4692 2.60063 29.7907 2.40532 29.9935 2.10875ZM29.9366 3.03395V6.22907C29.9366 6.9512 29.3529 7.53865 28.6351 7.53865H27.24L27.2205 7.55409C26.052 8.47988 25.3816 9.87065 25.3816 11.3698V12.1943C27.415 12.591 29.493 12.7926 31.563 12.7926C33.6333 12.7926 35.7113 12.591 37.7445 12.1943V11.3698C37.7445 9.87057 37.0741 8.4798 35.9056 7.55409L33.841 5.91791V6.5571C33.841 6.7367 33.6954 6.88256 33.5156 6.88256C33.336 6.88256 33.1901 6.73699 33.1901 6.5571V3.03398C33.106 2.98365 33.0257 2.92759 32.9502 2.86496C32.6419 3.31539 32.1253 3.60222 31.5634 3.60222C31.0017 3.60222 30.485 3.31537 30.1769 2.86496C30.1014 2.92759 30.0207 2.98365 29.9367 3.03398L29.9366 3.03395ZM24.35 5.57044C24.386 5.78493 24.4058 6.00458 24.4058 6.22908C24.4058 6.45358 24.386 6.67351 24.35 6.88772H28.6353C28.9939 6.88772 29.2859 6.59228 29.2859 6.22908C29.2859 5.86587 28.9939 5.57044 28.6353 5.57044H24.35ZM20.5017 9.51227C22.2958 9.51227 23.7552 8.03943 23.7552 6.22907C23.7552 4.41871 22.2958 2.94616 20.5017 2.94616C18.7077 2.94616 17.2483 4.41901 17.2483 6.22907C17.2483 8.03943 18.7077 9.51227 20.5017 9.51227ZM19.8511 10.1074V10.8235C19.8511 12.4671 20.6293 14.037 21.9332 15.0225L23.4975 16.2053C24.4739 16.9438 25.0568 18.1189 25.0568 19.349V34.557C25.0568 34.722 25.049 34.8653 25.0327 34.9957C24.749 37.2956 22.8012 39.0301 20.5017 39.0301C18.2123 39.0301 16.266 37.3053 15.9736 35.0179C15.9619 34.9267 15.9893 34.8346 16.0497 34.7648C16.6054 34.1179 16.9114 33.2902 16.9114 32.4346V30.4744C16.3 30.1344 15.7109 30.0597 15.3116 30.0597C14.6286 30.0597 14.0838 30.2685 13.712 30.4744V32.4346C13.712 33.2945 14.0203 34.1248 14.5802 34.7729C14.6248 34.8246 14.652 34.889 14.658 34.9571C14.9257 37.98 17.4925 40.348 20.5016 40.348C23.456 40.348 25.9589 38.1173 26.3238 35.1593C26.3467 34.9742 26.3579 34.7772 26.3579 34.5575V19.3488C26.3579 17.7053 25.5797 16.1354 24.2758 15.1499L22.7114 13.967C21.7351 13.2286 21.1522 12.0535 21.1522 10.8234V10.1073C20.9406 10.1433 20.7232 10.163 20.5016 10.163C20.2799 10.1628 20.0626 10.1433 19.851 10.1073L19.8511 10.1074ZM1.46712 18.1002C0.376088 20.2051 0.376088 22.9248 1.46712 25.0297C2.58107 27.1784 4.88415 28.717 8.14502 29.4998C8.02462 29.039 7.93596 28.5632 7.88048 28.0758C5.30284 27.3517 3.48619 26.0896 2.61941 24.4174C1.73484 22.7112 1.73484 20.4184 2.61941 18.7122C3.82597 16.3842 6.85695 14.8756 11.1539 14.4643C14.1151 14.1806 17.4481 14.412 21.0759 15.149C20.5965 14.7002 20.1979 14.1749 19.893 13.5992C15.4296 12.8465 11.3717 12.8556 8.151 13.6281C4.88984 14.4097 2.57878 15.956 1.46739 18.1001L1.46712 18.1002Z" fill="#D69C47"/>
</svg>
