<svg width="62" height="40" viewBox="0 0 62 40" fill="none" xmlns="http://www.w3.org/2000/svg">
<path d="M59.1005 35.2566C57.4393 32.7615 56.1282 30.7909 56.1282 26.5294C56.1282 25.7278 56.9988 24.2125 57.9198 22.6083C59.4939 19.8662 61.4538 16.4541 61.4538 13.0159C61.4538 6.54788 57.355 0 49.5206 0C41.3454 0 36.8418 4.31012 36.8396 12.1369C36.8396 12.6901 36.2699 13.5572 35.767 14.323C35.0427 15.4252 34.3586 16.4663 34.664 17.3975C34.8098 17.8456 35.1602 18.1766 35.6959 18.3883C35.6998 18.3901 35.7016 18.3932 35.7056 18.3945L36.8334 18.8961C36.7764 18.9999 36.6553 19.1564 36.3976 19.3592C36.3742 19.3778 36.3623 19.4034 36.3419 19.4246C36.3216 19.4463 36.2951 19.4595 36.2765 19.4843C36.2681 19.4958 36.2668 19.5095 36.2602 19.521C36.2363 19.5585 36.2209 19.597 36.2063 19.6381C36.1921 19.6756 36.1771 19.7101 36.17 19.7481C36.1625 19.7888 36.1643 19.8285 36.1652 19.8696C36.1665 19.9094 36.1656 19.9483 36.174 19.9868C36.1824 20.0261 36.1988 20.0614 36.2147 20.099C36.2306 20.1383 36.2469 20.1763 36.2712 20.2117C36.2796 20.2232 36.2814 20.2369 36.2898 20.2484C36.3048 20.2678 36.3291 20.2758 36.3464 20.2934C36.3698 20.3182 36.3861 20.3478 36.4149 20.369C36.5408 20.4614 36.589 20.5255 36.6062 20.5316C36.5815 20.5714 36.5156 20.6351 36.467 20.6651C36.4378 20.6815 36.4206 20.7089 36.3954 20.7296C36.372 20.7486 36.3433 20.7592 36.3225 20.7827C36.315 20.7911 36.3128 20.8012 36.3061 20.8101C36.2765 20.8463 36.2575 20.8856 36.2363 20.9267C36.2191 20.9603 36.1996 20.9912 36.1886 21.0262C36.1758 21.0659 36.1745 21.1079 36.17 21.1499C36.1661 21.1892 36.1599 21.2259 36.163 21.2652C36.1661 21.305 36.1793 21.3417 36.1908 21.381C36.2027 21.4221 36.2125 21.4628 36.2319 21.5012C36.2377 21.5114 36.2368 21.5229 36.2434 21.533C36.2752 21.5861 36.3137 21.6325 36.3574 21.6731C36.3587 21.6749 36.3592 21.6771 36.3614 21.6789C36.5368 21.8406 36.7335 22.0678 36.7936 22.1769C36.7936 22.5892 36.8042 23.3356 36.992 24.113C34.7943 24.6729 32.6143 25.0229 30.7296 25.0229C28.8448 25.0229 26.6647 24.6733 24.4671 24.113C24.6554 23.3356 24.666 22.5901 24.6655 22.1769C24.7265 22.0678 24.9223 21.8406 25.0982 21.6789C25.1145 21.6639 25.122 21.6422 25.1366 21.6258C25.1614 21.598 25.1866 21.5715 25.2069 21.5383C25.2109 21.5322 25.21 21.5255 25.214 21.5198C25.2458 21.4632 25.2648 21.4044 25.278 21.343C25.2825 21.324 25.2895 21.3063 25.2913 21.2873C25.2988 21.2259 25.2931 21.1662 25.2829 21.1057C25.2798 21.0867 25.2789 21.0672 25.2741 21.0487C25.2599 20.9957 25.2343 20.9479 25.2065 20.8998C25.1919 20.8732 25.1791 20.8476 25.1609 20.8237C25.1508 20.8109 25.1477 20.7959 25.1371 20.784C25.1141 20.7592 25.0845 20.7473 25.0584 20.727C25.0368 20.7093 25.0231 20.6859 24.9988 20.6704C24.936 20.6306 24.8542 20.5559 24.845 20.567C24.845 20.5665 24.8737 20.4941 25.0438 20.3694C25.073 20.3478 25.0893 20.3173 25.1141 20.2921C25.1304 20.2749 25.1534 20.2682 25.168 20.2492C25.1764 20.2386 25.1782 20.2254 25.1857 20.2139C25.2118 20.1772 25.2277 20.1379 25.2445 20.0972C25.2595 20.0606 25.2754 20.0261 25.2838 19.9881C25.2926 19.9483 25.2922 19.909 25.2926 19.8683C25.2931 19.8277 25.2953 19.7883 25.2882 19.7486C25.282 19.7105 25.2666 19.6752 25.2528 19.6385C25.2378 19.5979 25.2224 19.5581 25.1985 19.5205C25.191 19.509 25.1897 19.4953 25.1821 19.4843C25.1645 19.4595 25.1384 19.4463 25.1176 19.4255C25.0973 19.4047 25.0854 19.3787 25.0619 19.3601C24.8043 19.1573 24.6823 19.0008 24.6253 18.897L25.7536 18.3954C25.7566 18.394 25.7593 18.391 25.7624 18.3892C26.2984 18.1775 26.648 17.8461 26.7952 17.3984C27.0992 16.4677 26.4156 15.426 25.6917 14.3239C25.1892 13.5585 24.6191 12.6905 24.6191 12.1377C24.6174 4.31078 20.1133 0.00088471 11.9381 0.00088471C4.10018 9.19712e-07 0.000375067 6.54752 0.000375067 13.0156C0.000375067 16.4539 1.95983 19.8664 3.53441 22.608C4.45626 24.2122 5.32597 25.728 5.32597 26.5292C5.32597 30.7911 4.01432 32.7621 2.35364 35.2564C1.59707 36.393 0.814816 37.5681 0.065766 39.0857C-0.08935 39.3994 0.039251 39.7795 0.353462 39.9342C0.443615 39.9783 0.539067 40 0.632764 40C0.86654 40 1.09148 39.871 1.20107 39.6465C1.9139 38.2031 2.6736 37.0621 3.40761 35.959C5.11613 33.3915 6.59251 31.1743 6.59251 26.5292C6.59251 25.3895 5.72767 23.8834 4.63215 21.9765C3.13405 19.3657 1.26782 16.1157 1.26782 13.0156C1.26782 7.17699 4.93184 1.26684 11.9341 1.26684C17.14 1.26684 23.3457 3.15299 23.348 12.1373C23.348 13.0693 23.9994 14.0601 24.6291 15.0187C25.056 15.6692 25.7017 16.6521 25.5872 17.0029C25.5532 17.1067 25.3548 17.1903 25.2712 17.2221C25.265 17.2247 25.2606 17.2305 25.254 17.2327C25.2478 17.2353 25.2412 17.234 25.235 17.2371L23.7722 17.8872C23.7647 17.8903 23.7607 17.8969 23.7536 17.9004C23.7152 17.919 23.6838 17.9482 23.6489 17.9747C23.6153 18.0008 23.58 18.0233 23.5526 18.0551C23.5477 18.0609 23.5393 18.0639 23.5349 18.0697C23.4695 18.151 23.2613 18.4528 23.3161 18.9275C23.3537 19.2505 23.5163 19.5674 23.7793 19.8767C23.6082 20.148 23.5689 20.403 23.5791 20.5988C23.591 20.8432 23.6794 21.0487 23.7899 21.2188C23.568 21.4964 23.3957 21.8066 23.3957 22.1045C23.3957 22.1177 23.4027 22.1292 23.4032 22.1425L23.3957 22.1429C23.3957 22.4823 23.3913 23.1399 23.2432 23.7798C19.6137 22.7294 16.0734 21.1597 13.8757 19.6509C17.3506 17.1771 19.2602 14.088 19.0184 11.2654C18.8924 9.79381 18.1257 8.62187 16.9688 8.12952C15.7398 7.60672 14.2337 7.91165 12.7794 8.9453C11.3241 7.91121 9.81665 7.60717 8.58724 8.12952C7.42989 8.62183 6.66308 9.79471 6.53761 11.2663C6.29897 14.0589 8.16921 17.1112 11.5755 19.5714C8.99248 20.9829 8.00031 21.3651 7.99103 21.3674C7.66268 21.4898 7.49607 21.8544 7.61848 22.1823C7.7135 22.4368 7.95479 22.5946 8.21199 22.5946C8.28535 22.5946 8.36003 22.5818 8.43295 22.5548C8.48244 22.5363 9.63498 22.0988 12.732 20.3796C14.9455 22.0147 18.7532 23.7572 22.7009 24.9239C22.6611 24.969 22.6275 25.0203 22.5824 25.0609C22.2059 25.3972 21.6836 25.5227 20.9884 25.4454L19.1314 25.0773C19.1111 25.0728 19.0917 25.079 19.0718 25.0768C19.0523 25.0751 19.0355 25.0649 19.0161 25.0649C18.9719 25.0644 18.9312 25.0737 18.8875 25.0755C18.8849 25.0759 18.8818 25.0759 18.8787 25.0768C18.4014 25.102 17.9798 25.2965 17.6465 25.6522C16.5492 26.8255 16.7211 29.4492 16.7437 29.7444C16.7437 29.7462 16.745 29.7484 16.745 29.7502C16.7636 31.1573 17.5047 32.9148 18.2913 34.7766C19.0041 36.463 19.7417 38.2068 19.7417 39.3647C19.7417 39.7152 20.0254 39.9985 20.3754 39.9985C20.7249 39.9985 21.0091 39.7152 21.0091 39.3647C21.0091 37.9492 20.2565 36.1683 19.4589 34.2831C18.746 32.5967 18.0085 30.8529 18.0085 29.695C18.0085 29.6861 18.0041 29.6799 18.0036 29.6711C18.0032 29.6623 18.0076 29.6552 18.0067 29.6464C17.9378 28.7435 18.0297 27.0969 18.5719 26.518C18.6873 26.3952 18.8097 26.3426 18.9684 26.3373L20.7829 26.6965C20.7957 26.6992 20.8067 26.6983 20.8196 26.7005C20.8253 26.701 20.8297 26.7049 20.8346 26.7054C21.0158 26.7257 21.1908 26.7359 21.3605 26.7359C22.1904 26.7359 22.8834 26.4915 23.4265 26.0067C23.662 25.7959 23.8415 25.5462 23.9961 25.285C26.3569 25.9006 28.7053 26.2878 30.7271 26.2878C32.748 26.2878 35.0973 25.9006 37.4585 25.285C37.6122 25.5462 37.7917 25.7955 38.0272 26.0067C38.5695 26.4919 39.2628 26.7359 40.0932 26.7359C40.2629 26.7359 40.4379 26.7257 40.6182 26.7054C40.624 26.7049 40.6284 26.701 40.6333 26.7005C40.6461 26.6988 40.6571 26.6992 40.6699 26.6965L42.4801 26.3381C42.6422 26.347 42.7647 26.3938 42.8809 26.518C43.4231 27.0969 43.5155 28.7445 43.4465 29.6463C43.4461 29.6552 43.4496 29.6623 43.4496 29.6711C43.4492 29.6799 43.4448 29.6861 43.4448 29.695C43.4448 30.8532 42.7072 32.5966 41.9944 34.283C41.1967 36.1683 40.4442 37.9488 40.4442 39.3647C40.4442 39.7152 40.7274 39.9984 41.0779 39.9984C41.4283 39.9984 41.7116 39.7152 41.7116 39.3647C41.7116 38.2065 42.4492 36.4631 43.162 34.7766C43.9495 32.9153 44.6902 31.1573 44.7092 29.7502C44.7092 29.7484 44.7105 29.7462 44.7105 29.7444C44.7335 29.4492 44.9049 26.825 43.8076 25.6522C43.4422 25.262 42.9972 25.0472 42.4385 25.0649C42.4191 25.0649 42.4018 25.075 42.3828 25.0768C42.3625 25.0795 42.3431 25.0728 42.3227 25.0772L40.4653 25.4454C39.7715 25.5227 39.2478 25.3972 38.8713 25.0609C38.8262 25.0211 38.7926 24.969 38.752 24.9239C42.6997 23.7568 46.5073 22.0147 48.7213 20.3796C51.8179 22.0982 52.9712 22.5358 53.0199 22.5548C53.0919 22.5813 53.1671 22.5946 53.2404 22.5946C53.4972 22.5946 53.7384 22.4373 53.8339 22.1836C53.9563 21.8561 53.791 21.4911 53.4631 21.3682C53.4525 21.3643 52.4595 20.9829 49.8774 19.5714C53.2837 17.1107 55.154 14.0584 54.9153 11.2659C54.7894 9.79422 54.0231 8.62228 52.8657 8.12903C51.6358 7.60579 50.1292 7.91027 48.674 8.94481C47.2188 7.91072 45.714 7.60623 44.4846 8.12903C43.3273 8.62133 42.5614 9.79332 42.435 11.2649C42.1928 14.0875 44.1023 17.1766 47.5777 19.6504C45.3799 21.1596 41.8397 22.7289 38.2102 23.7798C38.0621 23.1399 38.0568 22.4823 38.0577 22.1429V22.1044C38.0577 21.8061 37.8854 21.4954 37.6635 21.2188C37.7744 21.0482 37.8619 20.8432 37.8743 20.5988C37.884 20.4026 37.8447 20.1476 37.6737 19.8767C37.9371 19.5682 38.1001 19.2514 38.1373 18.9274C38.1916 18.4528 37.9835 18.1505 37.9181 18.0697C37.9132 18.0635 37.9052 18.0608 37.9004 18.0551C37.873 18.0228 37.8372 17.9998 37.8036 17.9738C37.7696 17.9477 37.7382 17.9194 37.7015 17.9008C37.694 17.8969 37.6887 17.8902 37.6821 17.8867L36.2193 17.2366C36.2131 17.234 36.206 17.2353 36.2007 17.2322C36.1936 17.2296 36.1901 17.2238 36.1835 17.2216C36.1 17.1907 35.9015 17.1063 35.8675 17.0024C35.7522 16.6515 36.3983 15.6687 36.826 15.0182C37.4558 14.0596 38.1062 13.0689 38.1062 12.1368C38.1089 3.15251 44.3148 1.26636 49.5202 1.26636C56.5229 1.26636 60.1864 7.17663 60.1864 13.0152C60.1864 16.1157 58.3206 19.3652 56.8203 21.9765C55.7248 23.8834 54.8599 25.3895 54.8599 26.5292C54.8599 31.1743 56.336 33.3909 58.0448 35.959C58.7793 37.062 59.5381 38.2031 60.2509 39.6464C60.3609 39.8705 60.5854 40 60.8192 40C60.9129 40 61.0092 39.9792 61.0985 39.9341C61.4123 39.7795 61.5413 39.3994 61.3862 39.0856C60.6385 37.5681 59.8563 36.393 59.0997 35.2563L59.1005 35.2566ZM7.79947 11.3743C7.88609 10.3632 8.35364 9.60528 9.08285 9.29553C9.97863 8.91459 11.1811 9.25266 12.3796 10.2231C12.3955 10.2364 12.4159 10.2395 12.4327 10.251C12.4693 10.2748 12.5056 10.2938 12.5462 10.3106C12.5838 10.3252 12.6196 10.3371 12.6589 10.3447C12.6987 10.3522 12.7376 10.3553 12.7783 10.3553C12.8189 10.3553 12.8582 10.3526 12.898 10.3447C12.9373 10.3371 12.9736 10.3252 13.0103 10.3106C13.05 10.2947 13.0876 10.2757 13.1243 10.251C13.1415 10.2395 13.1618 10.2364 13.1773 10.2231C14.3754 9.25178 15.5761 8.91373 16.4723 9.29509C17.201 9.60488 17.6686 10.3628 17.7552 11.373C17.9187 13.2812 16.68 16.224 12.7787 18.8641C8.87613 16.2249 7.6369 13.2825 7.79947 11.3743ZM43.6987 11.373C43.7853 10.3623 44.2528 9.60487 44.9811 9.29511C45.8756 8.91417 47.0776 9.25224 48.2761 10.2231C48.292 10.2364 48.3128 10.2395 48.3291 10.251C48.3658 10.2757 48.4025 10.2939 48.4427 10.3106C48.4807 10.3257 48.517 10.3372 48.5563 10.3456C48.5961 10.3531 48.635 10.3562 48.6756 10.3562C48.7163 10.3562 48.7547 10.3535 48.7949 10.3456C48.8343 10.338 48.8705 10.3261 48.9085 10.3106C48.9483 10.2947 48.985 10.2757 49.0221 10.251C49.0384 10.2395 49.0596 10.2364 49.0751 10.2231C50.2732 9.2518 51.4743 8.9142 52.3715 9.29555C53.1002 9.60578 53.5682 10.3637 53.6544 11.3744C53.8179 13.283 52.5787 16.2249 48.6761 18.8645C44.773 16.224 43.5347 13.2812 43.6987 11.373Z" fill="#D69C47"/>
</svg>
