<svg width="40" height="40" viewBox="0 0 40 40" fill="none" xmlns="http://www.w3.org/2000/svg">
<path d="M3.04446 11.576C2.26539 11.4983 1.48491 11.7588 0.908463 12.2839C0.33096 12.8088 0 13.5565 0 14.3369V24.6714C0 25.8773 0.434868 27.0431 1.22441 27.9547L6.15793 33.647C6.43482 33.9668 6.58722 34.3755 6.58722 34.7979V39.4984C6.58722 39.7746 6.81075 39.9985 7.0873 39.9985H15.6131C15.8893 39.9985 16.1132 39.7749 16.1132 39.4984L16.1128 29.355C16.1128 28.6188 15.8262 27.9258 15.3051 27.4055L9.28327 21.3837C8.75948 20.8599 8.0627 20.5711 7.32199 20.5711C6.66567 20.5711 6.04491 20.7971 5.54764 21.2121V14.4345C5.54764 12.9653 4.44813 11.7096 3.04446 11.5759L3.04446 11.576ZM9.87401 28.4062L6.06794 24.5994C5.37606 23.9075 5.37606 22.7822 6.06794 22.0903C6.73715 21.4204 7.90611 21.4204 8.57639 22.0903L14.5986 28.1122C14.9306 28.4442 15.1133 28.8857 15.1133 29.3547L15.113 38.9982H7.58702V34.797C7.58702 34.1344 7.34779 33.4934 6.91362 32.9916L1.98009 27.2989C1.34785 26.5693 0.999854 25.6365 0.999854 24.6705V14.3369C0.999854 13.8379 1.21188 13.3595 1.58084 13.0236C1.95537 12.684 2.44011 12.5253 2.94996 12.571C3.84584 12.6564 4.54781 13.4752 4.54781 14.4346V23.315C4.54781 23.3293 4.54816 23.3429 4.5492 23.3565C4.55199 24.0634 4.82261 24.7689 5.3607 25.307L9.16676 29.1138C9.36205 29.3091 9.67835 29.3091 9.87364 29.1138C10.0693 28.9182 10.0693 28.6019 9.87399 28.4066L9.87401 28.4062Z" fill="#D69C47"/>
<path d="M36.9515 11.5754C35.5478 11.7093 34.4483 12.9647 34.4483 14.434V21.2126C33.9514 20.7973 33.3303 20.571 32.674 20.571C31.9333 20.571 31.2365 20.8594 30.7127 21.3835L24.6905 27.405C24.1695 27.9253 23.8828 28.6183 23.8828 29.3544L23.8832 39.4979C23.8832 39.7741 24.1067 39.998 24.3832 39.998H32.909C33.1852 39.998 33.4091 39.7744 33.4091 39.4979V34.7966C33.4091 34.3743 33.5615 33.9656 33.8384 33.6465L38.7719 27.9538C39.5611 27.0426 39.996 25.8764 39.996 24.6705V14.3369C39.996 13.5568 39.665 12.8088 39.0875 12.284C38.5104 11.7584 37.7281 11.4983 36.9515 11.576L36.9515 11.5754ZM38.9961 24.6702C38.9961 25.6358 38.6481 26.5691 38.0159 27.2983L33.0823 32.9914C32.6482 33.4929 32.4089 34.1339 32.4089 34.7965V38.9979H24.883V29.3544C24.883 28.8854 25.0657 28.4439 25.3977 28.1119L31.4199 22.09C32.0902 21.4201 33.2592 21.4201 33.9284 22.09C34.6202 22.7819 34.6202 23.9072 33.9284 24.5991L30.1219 28.4059C29.9266 28.6012 29.9266 28.9175 30.1219 29.1128C30.3172 29.308 30.6335 29.308 30.8288 29.1128L34.6349 25.306C35.173 24.7679 35.4432 24.062 35.4464 23.3555C35.4474 23.3419 35.4478 23.3283 35.4478 23.314L35.4481 14.4339C35.4481 13.4745 36.1501 12.6557 37.046 12.5703C37.5565 12.5249 38.0409 12.6829 38.4151 13.0229C38.784 13.3587 38.9961 13.8372 38.9961 14.3362L38.9961 24.6702Z" fill="#D69C47"/>
<path d="M15.3245 18.3126C13.6046 20.3604 13.7779 23.4843 15.719 25.4257C16.5249 26.2316 17.8378 26.2326 18.6448 25.4257L19.2774 24.7931L20.0425 25.6572C20.333 25.9721 20.7284 26.1503 21.157 26.1591C21.1678 26.1594 21.179 26.1594 21.1898 26.1594C21.6058 26.1594 21.9957 25.9979 22.2907 25.7029L23.3721 24.6215C23.6748 24.3188 23.837 23.9161 23.8282 23.4878C23.8195 23.0592 23.6413 22.6638 23.3191 22.3664L22.4623 21.6082L23.0949 20.9756C23.9015 20.169 23.9015 18.8564 23.0949 18.0498L23.0146 17.9696C21.9841 16.9384 20.5623 16.3808 19.0991 16.4467C17.6219 16.5105 16.2814 17.1738 15.3245 18.3127L15.3245 18.3126ZM22.3079 18.6763L22.3881 18.7565C22.8052 19.1736 22.8052 19.8516 22.3881 20.2687L21.3796 21.2772C21.2819 21.3749 21.2293 21.5081 21.2331 21.6458C21.2376 21.7839 21.2987 21.914 21.4015 22.005L22.649 23.1084C22.7616 23.2123 22.8258 23.3546 22.8293 23.5077C22.8321 23.6615 22.7742 23.8058 22.6657 23.9143L21.5843 24.9957C21.4759 25.1041 21.3514 25.1578 21.1777 25.1592C21.0243 25.1557 20.8823 25.0919 20.785 24.9862L19.6746 23.7315C19.5833 23.6286 19.4535 23.5676 19.3155 23.5631H19.3005C19.1683 23.5631 19.0406 23.6157 18.9468 23.7095L17.9383 24.7181C17.5219 25.1351 16.8436 25.1351 16.4262 24.7181C14.8481 23.14 14.7007 20.6094 16.0903 18.9556C16.8645 18.0332 17.949 17.4969 19.1431 17.4449C20.3278 17.4006 21.4743 17.8428 22.3078 18.6763L22.3079 18.6763Z" fill="#D69C47"/>
<path d="M20.4668 15.5323C20.5645 15.63 20.6925 15.6788 20.8204 15.6788C20.9484 15.6788 21.0764 15.6299 21.174 15.5323L22.3405 14.3658L25.9537 15.5288C26.2711 15.631 26.5937 15.6791 26.911 15.6791C28.0165 15.6791 29.054 15.0894 29.5373 14.1025C29.7403 13.6886 29.8435 13.2436 29.8435 12.7798C29.8435 12.7554 29.8432 12.7314 29.8425 12.7069C31.1073 12.663 32.2484 11.901 32.7059 10.782C32.8576 10.4095 32.9294 10.0242 32.9197 9.63115C34.558 9.61197 35.9051 8.37398 35.9941 6.79702C36.0356 6.06573 35.8096 5.35219 35.3668 4.78208C36.1137 3.61383 35.9676 2.04455 34.9612 1.03779C33.9544 0.0310382 32.3854 -0.114748 31.2169 0.632217C30.6467 0.189332 29.9367 -0.0366502 29.2019 0.0048538C27.625 0.0937798 26.387 1.44058 26.3678 3.07931C25.9776 3.06362 25.5902 3.14138 25.217 3.29308C24.0986 3.75061 23.3359 4.892 23.292 6.15649C22.8017 6.14707 22.3323 6.24785 21.8967 6.46163C20.627 7.08412 20.0143 8.62477 20.4708 10.0452L21.6337 13.6585L20.4673 14.8249C20.2716 15.0209 20.2716 15.3372 20.4669 15.5325L20.4668 15.5323ZM21.4223 9.73915C21.1162 8.78855 21.5099 7.76537 22.3367 7.35944C22.7444 7.15961 23.196 7.09928 23.6758 7.21053C23.8226 7.24505 23.9799 7.21018 24.1002 7.11532C24.2198 7.02047 24.2896 6.87644 24.2896 6.7237V6.27175C24.2896 5.36328 24.8144 4.53856 25.5952 4.21913C25.9698 4.06639 26.3495 4.03814 26.7544 4.1323C26.9036 4.16752 27.0592 4.13195 27.1788 4.03709C27.298 3.94224 27.3678 3.79786 27.3678 3.64547V3.11784C27.3678 2.011 28.2159 1.06246 29.2586 1.00345C29.8466 0.971711 30.4185 1.19665 30.8259 1.62349C31.0114 1.81738 31.3155 1.83063 31.5167 1.65487C32.3087 0.962643 33.5108 1.00205 34.2542 1.74554C34.9974 2.48903 35.0375 3.69111 34.3449 4.48307C34.1688 4.68464 34.1824 4.98874 34.3763 5.17391C34.8031 5.58088 35.0291 6.15246 34.996 6.74078C34.9371 7.78351 33.9882 8.63163 32.8816 8.63163H32.354C32.2016 8.63163 32.0572 8.70137 31.9623 8.82064C31.8675 8.94025 31.8326 9.09648 31.8671 9.24504C31.9613 9.65062 31.933 10.03 31.7803 10.4042C31.4609 11.1853 30.6365 11.7098 29.7277 11.7098H29.2757C29.123 11.7098 28.979 11.7796 28.8841 11.8992C28.7889 12.0188 28.7544 12.175 28.7889 12.3236C28.8252 12.4788 28.8437 12.6326 28.8437 12.7804C28.8437 13.0901 28.7753 13.3869 28.6396 13.6627C28.2344 14.4903 27.2102 14.8844 26.2606 14.5771L23.1357 13.571L30.6459 6.06069C30.8412 5.8654 30.8412 5.5491 30.6459 5.35381C30.4506 5.15852 30.1343 5.15852 29.939 5.35381L22.4284 12.8637L21.4223 9.73915Z" fill="#D69C47"/>
<path d="M12.0296 1.85938C8.60994 1.85938 5.82812 4.64119 5.82812 8.06087C5.82812 11.4806 8.60994 14.2627 12.0296 14.2627C15.4493 14.2627 18.2315 11.4802 18.2315 8.06087C18.2315 4.64154 15.4493 1.85938 12.0296 1.85938ZM12.0296 13.2625C9.1613 13.2625 6.82792 10.9287 6.82792 8.06042C6.82792 5.1921 9.1613 2.85908 12.0296 2.85908C14.8979 2.85908 17.2317 5.19246 17.2317 8.06078C17.2317 10.9287 14.8979 13.2625 12.0296 13.2625Z" fill="#D69C47"/>
<path d="M12.0298 5.01562C10.3504 5.01562 8.98438 6.38234 8.98438 8.06178C8.98438 9.74123 10.3504 11.1079 12.0298 11.1079C13.7093 11.1079 15.076 9.74123 15.076 8.06178C15.076 6.38198 13.7093 5.01562 12.0298 5.01562ZM12.0298 10.1078C10.902 10.1078 9.98417 9.18995 9.98417 8.06178C9.98417 6.93361 10.902 6.01577 12.0298 6.01577C13.158 6.01577 14.0758 6.93361 14.0758 8.06178C14.0758 9.18995 13.158 10.1078 12.0298 10.1078Z" fill="#D69C47"/>
</svg>
