<svg width="44" height="40" viewBox="0 0 44 40" fill="none" xmlns="http://www.w3.org/2000/svg">
<path d="M43.3421 11.6076C43.3421 12.3129 42.9685 12.9304 42.3429 13.2573L39.8259 14.5866V28.1935C39.8259 30.1558 38.7904 31.875 37.0556 32.7948L24.6016 39.375C23.8138 39.7916 22.9877 40 22.1628 40C21.338 40 20.5134 39.7909 19.7319 39.374L9.79876 34.1255C9.46658 33.9505 9.33988 33.5386 9.51549 33.2064C9.69044 32.8742 10.1017 32.7459 10.4336 32.9228L20.3692 38.1713C21.5249 38.7888 22.8014 38.7881 23.9654 38.1713L36.4202 31.5924C37.7204 30.9035 38.4668 29.665 38.4668 28.1935L38.4664 14.1775C38.4664 13.9254 38.6056 13.6943 38.8288 13.5755L41.7104 12.0541C41.8916 11.9589 41.9825 11.8096 41.9825 11.6077C41.9825 11.4062 41.8916 11.2568 41.7124 11.162L38.8288 9.6396C38.6057 9.52209 38.4665 9.28936 38.4665 9.03827V2.80203C38.4665 2.15343 38.2193 1.51697 37.9672 1.51697H33.6351C33.4162 1.51697 33.235 1.96174 33.1687 2.40029C33.1112 2.77153 32.7669 3.0246 32.3927 2.97011C32.0218 2.91332 31.7668 2.5667 31.8229 2.19513C32.0179 0.917973 32.6954 0.156079 33.6354 0.156079H37.9675C39.245 0.156079 39.8267 1.52744 39.8267 2.80166V8.62825L42.3456 9.9586C42.9686 10.2862 43.3425 10.9033 43.3425 11.608L43.3421 11.6076ZM7.91532 31.5931C6.6148 30.9031 5.86846 29.6647 5.86846 28.1932V14.1771C5.86846 13.9243 5.72862 13.6923 5.50575 13.5751L2.61918 12.0567C2.44456 11.9625 2.35297 11.8069 2.35297 11.6073C2.35297 11.4078 2.44489 11.2525 2.61589 11.1609L20.2284 1.85048C21.4797 1.1894 22.8533 1.18875 24.0974 1.85048L35.2918 7.76437C35.6246 7.9413 36.0342 7.81328 36.2099 7.4811C36.3855 7.14893 36.2588 6.73764 35.9266 6.56199L24.7339 0.649104C23.1042 -0.215809 21.2309 -0.216817 19.5923 0.648776L1.97558 9.9609C1.35882 10.2921 0.992188 10.9072 0.992188 11.6074C0.99186 12.3075 1.3585 12.9233 1.97987 13.2571L4.50957 14.5878V28.193C4.50957 30.1552 5.54414 31.8745 7.27926 32.7943C7.38035 32.8474 7.48966 32.8734 7.59732 32.8734C7.84153 32.8734 8.07721 32.7417 8.19866 32.511C8.3736 32.1795 8.24723 31.7685 7.91538 31.5932L7.91532 31.5931ZM16.0504 26.9278C15.6745 26.9278 15.3703 26.6238 15.3703 26.2487L15.3706 14.0157C15.3706 13.6402 15.6745 13.3356 16.0507 13.3356H28.2837C28.6592 13.3356 28.9631 13.6402 28.9631 14.0157V26.2478C28.9631 26.623 28.6592 26.9269 28.2837 26.9269H16.0507L16.0504 26.9278ZM16.7305 25.5689H27.603L27.6027 14.6963H16.7302L16.7305 25.5689ZM14.0603 29.362C14.0603 29.7372 14.3642 30.0411 14.7407 30.0411H29.5828C29.9583 30.0411 30.2623 29.7372 30.2623 29.362C30.2623 28.9862 29.9583 28.6816 29.5828 28.6816H14.7416C14.3651 28.6816 14.0605 28.9865 14.0605 29.362H14.0603Z" fill="#D69C47"/>
</svg>
