<svg width="26" height="40" viewBox="0 0 26 40" fill="none" xmlns="http://www.w3.org/2000/svg">
<path d="M15.4072 17.9727H11.0262V22.5922H6.40625V26.9728H11.0257V31.5927H15.4068L15.4072 26.9732H20.0271V22.5922H15.4072L15.4072 17.9727ZM19.2299 23.3895V26.1756L14.61 26.176V30.7959H11.8235L11.8231 26.176H7.20364V23.3899H11.8231V18.77H14.6096V23.3895L19.2299 23.3895Z" fill="#D69C47"/>
<path d="M20.3277 9.56641H6.10848C3.25112 9.56641 0.925781 11.8913 0.925781 14.7491V34.8152C0.925781 37.6726 3.25072 39.9979 6.10848 39.9979H20.3277C23.185 39.9979 25.5104 37.673 25.5104 34.8152V14.7491C25.5104 11.8917 23.1854 9.56681 20.3281 9.56681L20.3277 9.56641ZM24.7127 34.8145C24.7127 37.2324 22.7452 39.1999 20.3273 39.1999H6.10807C3.69012 39.1999 1.72265 37.2324 1.72265 34.8145L1.72305 14.7484C1.72305 12.3304 3.69051 10.363 6.10847 10.363H20.3277C22.7456 10.363 24.7131 12.3304 24.7131 14.7484L24.7127 34.8145Z" fill="#D69C47"/>
<path d="M17.2991 6.63792C17.4643 6.63792 17.5983 6.50392 17.5983 6.33878V2.61554C17.5983 2.45041 17.4643 2.31641 17.2991 2.31641C17.134 2.31641 17 2.45041 17 2.61554V6.33878C17.0004 6.50392 17.1344 6.63792 17.2991 6.63792Z" fill="#D69C47"/>
<path d="M15.2913 6.63832C15.4565 6.63832 15.5905 6.50432 15.5905 6.33919V2.61554C15.5905 2.45041 15.4565 2.31641 15.2913 2.31641C15.1262 2.31641 14.9922 2.45041 14.9922 2.61554V6.33919C14.9926 6.50432 15.1266 6.63832 15.2913 6.63832Z" fill="#D69C47"/>
<path d="M13.2835 6.63792C13.4486 6.63792 13.5826 6.50392 13.5826 6.33878V2.61554C13.5826 2.45041 13.4486 2.31641 13.2835 2.31641C13.1184 2.31641 12.9844 2.45041 12.9844 2.61554V6.33878C12.9848 6.50392 13.1188 6.63792 13.2835 6.63792Z" fill="#D69C47"/>
<path d="M21.3187 6.63792C21.4838 6.63792 21.6178 6.50392 21.6178 6.33878V2.61554C21.6178 2.45041 21.4838 2.31641 21.3187 2.31641C21.1535 2.31641 21.0195 2.45041 21.0195 2.61554V6.33878C21.0199 6.50392 21.1535 6.63792 21.3187 6.63792Z" fill="#D69C47"/>
<path d="M19.3109 6.63792C19.476 6.63792 19.61 6.50392 19.61 6.33878V2.61554C19.61 2.45041 19.476 2.31641 19.3109 2.31641C19.1457 2.31641 19.0117 2.45041 19.0117 2.61554V6.33878C19.0121 6.50392 19.1461 6.63792 19.3109 6.63792Z" fill="#D69C47"/>
<path d="M9.26788 6.63792C9.43302 6.63792 9.56702 6.50392 9.56702 6.33878V2.61554C9.56702 2.45041 9.43302 2.31641 9.26788 2.31641C9.10275 2.31641 8.96875 2.45041 8.96875 2.61554V6.33878C8.96875 6.50392 9.10275 6.63792 9.26788 6.63792Z" fill="#D69C47"/>
<path d="M11.2757 6.63832C11.4408 6.63832 11.5748 6.50432 11.5748 6.33919V2.61554C11.5748 2.45041 11.4408 2.31641 11.2757 2.31641C11.1106 2.31641 10.9766 2.45041 10.9766 2.61554V6.33919C10.9766 6.50432 11.1106 6.63832 11.2757 6.63832Z" fill="#D69C47"/>
<path d="M5.24835 6.63792C5.41349 6.63792 5.54749 6.50392 5.54749 6.33878V2.61554C5.54749 2.45041 5.41349 2.31641 5.24835 2.31641C5.08322 2.31641 4.94922 2.45041 4.94922 2.61554V6.33878C4.94922 6.50392 5.08322 6.63792 5.24835 6.63792Z" fill="#D69C47"/>
<path d="M7.25616 6.63792C7.4213 6.63792 7.5553 6.50392 7.5553 6.33878V2.61554C7.5553 2.45041 7.4213 2.31641 7.25616 2.31641C7.09103 2.31641 6.95703 2.45041 6.95703 2.61554V6.33878C6.95703 6.50392 7.09103 6.63792 7.25616 6.63792Z" fill="#D69C47"/>
<path d="M5.04467 8.95608H21.3897C22.7088 8.95608 23.7817 7.88326 23.7817 6.56416L23.7813 2.39193C23.7813 1.07282 22.7084 0 21.3893 0H5.04427C3.72517 0 2.65234 1.07282 2.65234 2.39193V6.56416C2.65274 7.88286 3.72556 8.95608 5.04467 8.95608ZM3.45001 2.39193C3.45001 1.51264 4.16534 0.797276 5.04467 0.797276H21.3897C22.269 0.797276 22.9844 1.5126 22.9844 2.39193V6.56416C22.9844 7.44344 22.2691 8.15881 21.3897 8.15881H5.04467C4.16538 8.15881 3.45001 7.44348 3.45001 6.56416V2.39193Z" fill="#D69C47"/>
</svg>
