<svg width="58" height="41" viewBox="0 0 58 41" fill="none" xmlns="http://www.w3.org/2000/svg">
<path d="M49.3451 9.71974C49.4065 8.28253 49.4394 6.79063 49.4394 5.23327C49.4394 1.39347 34.8291 0 25.0078 0C15.1865 0 0.576172 1.39358 0.576172 5.23327V5.23574C0.577819 23.0973 4.61189 32.9724 14.0472 36.7464V39.1717C14.0472 40.1968 14.7022 41 15.5379 41H34.4766C35.3127 41 35.9681 40.1972 35.9681 39.1721V36.7464C38.3328 35.8004 40.3595 34.4723 42.0671 32.7297C43.2297 33.092 44.4367 33.2855 45.666 33.2855C52.3237 33.2855 57.7406 27.8693 57.7406 21.2119C57.7406 15.9614 54.3089 11.3073 49.3448 9.72015L49.3451 9.71974ZM48.8865 15.4911C50.9404 16.6455 52.2339 18.8134 52.2339 21.2123C52.2339 24.8338 49.2884 27.7793 45.6668 27.7793C45.6261 27.7793 45.5853 27.7756 45.5446 27.7748C47.1905 24.5023 48.288 20.4349 48.8866 15.4916L48.8865 15.4911ZM34.7884 39.1724C34.7884 39.568 34.5838 39.8199 34.4772 39.8199H15.5385C15.4319 39.8199 15.2281 39.5672 15.2281 39.172V37.1782C18.0374 38.1102 21.2848 38.5586 25.0089 38.5586C28.733 38.5586 31.9803 38.1099 34.7888 37.1782V39.1724L34.7884 39.1724ZM25.0085 37.3783C8.70883 37.3783 2.10506 28.8199 1.77413 6.99424C5.45047 9.50717 16.8703 10.4663 25.0085 10.4663H25.025C27.1242 10.4663 29.2069 10.4132 31.2171 10.3082C31.5427 10.291 31.793 10.0139 31.7762 9.68784C31.7589 9.3622 31.4756 9.10573 31.1558 9.1296C29.1607 9.23334 27.0846 9.30909 25.0077 9.28604C23.3264 9.28604 21.7237 9.25311 20.1993 9.19341C22.8579 8.06626 27.5589 6.57878 31.0134 8.27495C33.262 9.37787 34.6744 11.7183 35.229 15.2139C35.0804 15.2822 34.9404 15.3703 34.8218 15.4889L30.3493 19.9544L30.3587 28.1502C30.3587 29.1263 31.1533 29.9208 32.1294 29.9208H39.6052C40.5813 29.9208 41.3758 29.1263 41.3758 28.151L41.3853 19.9545L36.9136 15.4898C36.772 15.3482 36.6032 15.2432 36.4208 15.1728C35.8202 11.1939 34.18 8.51183 31.5321 7.21416C26.2576 4.6284 18.8799 8.4311 17.7112 9.06924C7.68093 8.44843 1.76452 6.62018 1.75925 5.23608V5.23444C1.75925 3.54165 10.6043 1.18143 25.0105 1.18143C39.4163 1.18143 48.2617 3.54197 48.2617 5.23444C48.2617 6.10967 44.9572 7.83874 36.0913 8.75311C35.7669 8.78687 35.5314 9.07669 35.5643 9.40068C35.5972 9.72467 35.8797 9.96139 36.2123 9.92722C40.0076 9.53613 45.7732 8.68477 48.2458 6.99937C47.9131 28.8215 41.3077 37.3782 25.0103 37.3782L25.0085 37.3783ZM40.2048 20.4431L40.1953 28.1502C40.1953 28.4759 39.931 28.7406 39.6049 28.7406H32.1292C31.8035 28.7406 31.5388 28.4763 31.5388 28.1498L31.5294 20.4431L35.6552 16.3243C35.7313 16.2481 35.8199 16.237 35.8664 16.237C35.9125 16.237 36.0014 16.2481 36.0776 16.3243L40.2048 20.4431ZM45.6669 32.1056C44.7444 32.1056 43.8337 31.9912 42.9499 31.7643C43.6753 30.9056 44.3303 29.9542 44.9276 28.9201C45.1738 28.9431 45.4204 28.9592 45.667 28.9592C49.9386 28.9592 53.4145 25.4837 53.4145 21.2117C53.4145 18.2122 51.7023 15.5185 49.0222 14.2317C49.1297 13.1716 49.2165 12.0753 49.2812 10.9387C53.6001 12.4578 56.5605 16.5792 56.5605 21.2121C56.5605 27.219 51.6738 32.1053 45.6673 32.1053L45.6669 32.1056Z" fill="#D69C47"/>
<path d="M33.9707 19.8705C33.9707 20.9162 34.8216 21.768 35.8682 21.768C36.9146 21.768 37.766 20.917 37.766 19.8705C37.766 18.824 36.9151 17.9727 35.8682 17.9727C34.8221 17.9727 33.9707 18.8244 33.9707 19.8705ZM36.5853 19.8705C36.5853 20.2662 36.263 20.5877 35.8678 20.5877C35.4721 20.5877 35.1506 20.2662 35.1506 19.8705C35.1506 19.4749 35.4721 19.153 35.8678 19.153C36.263 19.153 36.5853 19.4753 36.5853 19.8705Z" fill="#D69C47"/>
</svg>
