<svg width="50" height="44" viewBox="0 0 50 44" fill="none" xmlns="http://www.w3.org/2000/svg">
<path d="M41.1915 27.5139C42.9537 26.1746 44.1136 23.8997 44.1136 21.3178C44.1136 17.1978 41.1614 13.8583 37.519 13.8583C33.877 13.8583 30.9244 17.1978 30.9244 21.3178C30.9244 23.8959 32.0812 26.1687 33.839 27.5089C32.4353 28.0231 31.1463 28.8225 30.024 29.8479C30.0847 29.5032 30.1175 29.1469 30.1175 28.7826C30.1175 25.7739 27.9612 23.3347 25.3013 23.3347C22.6998 23.3347 20.5861 25.6691 20.4946 28.5867C19.3674 27.6789 18.1055 26.9722 16.7471 26.5145C18.7847 25.1158 20.151 22.5896 20.151 19.6958C20.151 15.2891 16.9935 11.7168 13.0976 11.7168C9.20204 11.7168 6.04413 15.2891 6.04413 19.6958C6.04413 22.593 7.4142 25.1222 9.45673 26.5198C5.0546 28.0006 1.64277 32.0833 0.634334 37.2001C0.31564 38.817 1.39189 40.3573 2.85652 40.3573H17.0587C16.9615 40.7438 16.8771 41.137 16.8233 41.542C16.7201 42.312 17.2343 43.0115 17.9228 43.0115H32.6815C33.3701 43.0115 33.8843 42.3116 33.781 41.542C33.7264 41.137 33.6428 40.7445 33.5456 40.3573H46.9088C48.4036 40.3573 49.4704 38.7619 49.1132 37.1203C48.1244 32.5735 45.0957 28.9424 41.1915 27.5143L41.1915 27.5139ZM47.2994 38.4951C47.1815 38.6409 47.0504 38.7147 46.9084 38.7147H32.9849C32.0958 36.6854 30.601 35.0614 28.7638 34.1423C30.5795 30.7595 33.8208 28.4944 37.5196 28.4944C42.2513 28.4944 46.359 32.185 47.5085 37.4689C47.6049 37.9149 47.464 38.2913 47.2998 38.4951L47.2994 38.4951ZM32.0913 41.369H18.5121C19.1725 37.6837 22.0321 34.9522 25.3015 34.9522C28.5712 34.9518 31.4311 37.6837 32.0915 41.369H32.0913ZM2.46221 38.4955C2.25541 38.2438 2.17441 37.878 2.24561 37.5175C3.38366 31.7445 7.94741 27.5547 13.0976 27.5547C16.2623 27.5547 19.1211 29.084 21.1493 31.5319C21.3971 32.0099 21.7076 32.4401 22.0684 32.8108C22.2711 33.1288 22.4606 33.4573 22.6376 33.7963C20.438 34.61 18.6336 36.3982 17.6196 38.7138H2.8561C2.6798 38.7149 2.54419 38.5955 2.46207 38.4957L2.46221 38.4955ZM18.5092 19.6952C18.5092 22.8515 16.5255 25.4693 13.9432 25.9466C13.6633 25.9262 13.3826 25.9115 13.0986 25.9115C12.8236 25.9115 12.5535 25.9326 12.2838 25.9522C9.68675 25.4893 7.68801 22.8643 7.68801 19.6959C7.68801 16.202 10.1155 13.3597 13.0986 13.3597C16.0817 13.3586 18.5091 16.2016 18.5091 19.6951L18.5092 19.6952ZM25.302 24.9762C27.0519 24.9762 28.4754 26.6834 28.4754 28.7813C28.4754 30.8796 27.0518 32.5864 25.302 32.5864C23.5523 32.5864 22.1287 30.8792 22.1287 28.7813C22.1287 26.6831 23.5523 24.9762 25.302 24.9762ZM32.5672 21.3173C32.5672 18.1093 34.7882 15.4999 37.5194 15.4999C40.2505 15.4999 42.4716 18.1094 42.4716 21.3173C42.4716 24.0104 40.9033 26.2755 38.7848 26.9348C38.3685 26.885 37.9478 26.8511 37.5195 26.8511C37.0863 26.8511 36.6587 26.8786 36.2375 26.9295C34.1276 26.2642 32.5673 24.0036 32.5673 21.3174L32.5672 21.3173Z" fill="#D69C47"/>
<path d="M28.0022 1.24692L26.7022 2.54689L25.4022 1.24692C24.5987 0.443414 23.53 0.000385534 22.3928 0.000385534C21.2555 0.000385534 20.1872 0.443395 19.3833 1.24692C18.5798 2.05043 18.1367 3.11914 18.1367 4.25642C18.1367 5.39369 18.579 6.46201 19.3833 7.26591L26.6243 14.5065L26.7026 14.4282L26.781 14.5065L34.022 7.26552C34.8255 6.46201 35.2686 5.3933 35.2686 4.25603C35.2686 3.11875 34.8256 2.05043 34.022 1.24654C33.2178 0.443029 32.149 0 31.0125 0C29.8753 0.000376681 28.8065 0.443386 28.0023 1.24692H28.0022ZM26.7805 12.1838L26.7022 12.1054L26.6238 12.1838L20.5445 6.10452C20.0511 5.61104 19.7795 4.95481 19.7795 4.25642C19.7795 3.55876 20.0511 2.90216 20.5453 2.40831C21.0388 1.91482 21.695 1.64247 22.3934 1.64247C23.0918 1.64247 23.7477 1.91407 24.2415 2.40831L26.7032 4.87004L29.165 2.40831C29.6585 1.91482 30.3155 1.64247 31.0131 1.64247C31.7115 1.64247 32.3673 1.91407 32.8612 2.40756C33.3547 2.90104 33.627 3.55727 33.627 4.25566C33.627 4.95408 33.3554 5.60992 32.8612 6.10377L26.7805 12.1838Z" fill="#D69C47"/>
</svg>
