<svg width="750" height="619" viewBox="0 0 750 619" fill="none" xmlns="http://www.w3.org/2000/svg">
<path d="M551.508 385.98L357.02 218.921C353.276 215.62 352.781 209.979 356.082 206.236L463.288 81.577C463.47 81.408 463.821 81.4209 463.99 81.6028L671.243 259.851C671.412 260.033 671.399 260.384 671.217 260.553L564.011 385.211C560.892 388.786 555.252 389.281 551.508 385.98Z" fill="#78D651"/>
<path d="M355.434 219.039C351.885 215.218 351.741 209.59 355.055 205.496L462.261 80.837C462.988 80.161 463.872 80.0179 464.73 80.5767L671.983 258.825C672.659 259.552 672.803 260.436 672.244 261.294L565.038 385.953C563.206 387.994 560.879 389.138 558.059 389.385C555.421 389.464 552.808 388.84 550.767 387.008L356.11 219.766C355.941 219.585 355.603 219.221 355.434 219.039ZM463.587 82.9943L356.926 207.146C354.172 210.383 354.523 215.14 357.76 217.895L552.418 385.136C553.951 386.422 555.862 387.02 557.968 387.098C559.904 386.993 561.698 386.005 563.166 384.302L669.826 260.151L463.587 82.9943Z" fill="#243762"/>
<path opacity="0.29" d="M543.391 377.255L365.463 228.025C361.72 224.725 485.45 214.177 488.582 210.252L463.282 81.5848C463.464 81.4158 463.815 81.4287 463.984 81.6107L671.237 259.859C671.406 260.04 671.393 260.391 671.211 260.56L540.694 255.044C537.393 258.788 547.134 380.556 543.391 377.255Z" fill="#243762"/>
<path d="M463.999 81.5937L621.707 88.2882C631.182 88.6376 639.189 95.4338 640.958 104.635L671.11 258.958C671.097 259.309 670.915 259.478 670.746 259.296L463.479 81.3989" fill="#78D651"/>
<path d="M462.561 82.2527L464.017 80.9008L464.03 80.5498L464.381 80.5628L621.737 87.2443C631.732 87.7886 640.259 94.7797 642.002 104.683L672.154 259.006C672.31 259.538 671.933 260.227 671.387 260.734C670.673 261.059 670.153 260.864 669.633 260.67L462.561 82.2527ZM634.956 95.6383C631.577 91.9997 626.91 89.8949 621.828 89.5318L467.279 82.9538L669.086 256.433L639.533 104.944C638.96 101.408 637.322 98.1854 634.956 95.6383Z" fill="#243762"/>
<path opacity="0.29" d="M463.985 81.6093L621.692 88.3038C631.167 88.6532 639.174 95.4494 640.943 104.651L671.095 258.973C671.082 259.324 670.9 259.493 670.731 259.311L463.465 81.4145" fill="#243762"/>
<path d="M510.445 208.583L366.934 226.659L542.86 377.748L539.055 233.182C538.728 218.236 525.443 206.852 510.445 208.583Z" fill="#78D651"/>
<path d="M363.976 225.68L510.307 207.357C517.898 206.407 525.371 208.615 530.987 213.566C536.602 218.517 540.204 225.678 540.283 233.06L543.984 380.433L363.976 225.68ZM531.377 217.27C530.701 216.542 530.194 215.997 529.336 215.438C524.228 211.033 517.274 209.019 510.568 209.826L369.877 227.654L541.54 375.248L537.813 233.32C537.682 227.342 535.433 221.637 531.377 217.27Z" fill="#243762"/>
<path d="M532.227 36.8639L667.792 153.257C676.644 160.963 678.647 173.336 671.864 180.992L605.409 258.309L538.487 253.03L488.584 210.252L474.12 135.573L538.547 60.8165L532.227 36.8639Z" fill="white"/>
<path d="M487.512 210.906L472.905 135.343L537.332 60.5869L536.029 38.752L668.526 152.572C673.128 156.432 675.923 161.63 676.769 167.284C677.615 172.937 676.017 178.149 672.703 182.244L605.885 259.899L537.909 254.581L487.512 210.906ZM475.686 136.149L489.839 209.762L538.883 251.981L604.753 257.222L670.662 180.412C673.599 177.006 674.82 172.483 674.13 167.362C673.259 162.41 670.62 157.745 666.707 154.262L534.21 40.442L539.776 61.0284L475.686 136.149Z" fill="#243762"/>
<path opacity="0.29" d="M517.903 201.658L366.933 226.662L542.859 377.751L546.513 226.256C546.186 211.31 532.901 199.927 517.903 201.658Z" fill="#243762"/>
<path d="M510.445 208.583L366.934 226.659L542.86 377.748L539.055 233.182C538.728 218.236 525.443 206.852 510.445 208.583Z" fill="#78D651"/>
<path d="M363.976 225.68L510.307 207.357C517.898 206.407 525.371 208.615 530.987 213.566C536.602 218.517 540.204 225.678 540.283 233.06L543.984 380.433L363.976 225.68ZM531.377 217.27C530.701 216.542 530.194 215.997 529.336 215.438C524.228 211.033 517.274 209.019 510.568 209.826L369.877 227.654L541.54 375.248L537.813 233.32C537.682 227.342 535.433 221.637 531.377 217.27Z" fill="#243762"/>
<path opacity="0.35" d="M496.916 232.331L391.538 245.488L520.798 356.553L518.039 250.329C517.738 239.424 507.859 230.978 496.916 232.331Z" fill="#ECF1F7"/>
<path d="M465.015 81.5866L462.577 82.0586L487.451 210.533L489.889 210.061L465.015 81.5866Z" fill="#243762"/>
<path d="M671.379 259.198L540.618 253.922L540.518 256.403L671.279 261.679L671.379 259.198Z" fill="#243762"/>
<path d="M508.809 95.2184L485.138 74.8427L514.142 41.1237C519.47 34.8193 528.983 34.116 535.106 39.6127L536.302 40.5353C542.606 45.8631 543.309 55.3769 537.813 61.4994L508.809 95.2184Z" fill="#ECF1F7"/>
<path d="M483.558 74.9524L513.303 40.2065C516.058 36.9698 519.996 35.0066 524.402 34.642C528.808 34.2774 532.798 35.6544 536.035 38.4093L537.231 39.3319C540.467 42.0868 542.431 46.0246 542.795 50.4305C543.16 54.8365 541.783 58.8268 539.028 62.0635L509.283 96.8094L483.558 74.9524ZM536.763 42.4773C536.425 42.1134 536.087 41.7495 535.749 41.3857L534.553 40.4631C531.655 38.0721 528.184 36.8899 524.662 37.1114C521.14 37.3329 517.735 39.14 515.357 41.6878L487.081 74.7309L508.88 93.4562L536.974 60.5822C539.365 57.6834 540.547 54.213 540.326 50.6908C539.909 47.6886 538.791 44.6605 536.763 42.4773Z" fill="#243762"/>
<path d="M540.09 94.9635C539.583 94.4177 539.609 93.7159 539.973 93.3779C540.518 92.8709 541.22 92.8968 541.74 93.0917L639.829 177.531C640.336 178.077 640.31 178.779 640.116 179.299C639.57 179.806 638.868 179.78 638.348 179.585L540.09 94.9635Z" fill="#243762"/>
<path d="M511.458 128.339C510.951 127.793 510.977 127.091 511.341 126.753C511.886 126.246 512.588 126.272 513.108 126.467L611.198 210.906C611.704 211.452 611.679 212.154 611.484 212.674C610.938 213.181 610.236 213.155 609.716 212.96L511.458 128.339Z" fill="#243762"/>
<path d="M525.955 111.484C525.448 110.939 525.474 110.237 525.838 109.899C526.383 109.392 527.085 109.418 527.605 109.613L570.007 146.141C570.514 146.686 570.489 147.388 570.294 147.908C569.748 148.415 569.046 148.389 568.526 148.194L525.955 111.484Z" fill="#243762"/>
<path d="M579.438 157.377C578.931 156.831 578.957 156.13 579.32 155.792C579.866 155.285 580.568 155.31 581.088 155.505L625.882 193.879C626.389 194.424 626.363 195.126 626.168 195.646C625.622 196.153 624.921 196.127 624.401 195.932L579.438 157.377Z" fill="#243762"/>
<path d="M495.12 147.242C494.613 146.697 494.639 145.995 495.003 145.657C495.548 145.15 496.25 145.176 496.77 145.37L539.172 181.898C539.679 182.444 539.654 183.146 539.459 183.666C538.913 184.173 538.211 184.147 537.691 183.952L495.12 147.242Z" fill="#243762"/>
<path d="M217.96 293.147C284.463 266.287 316.6 190.601 289.739 124.098C262.879 57.5947 187.193 25.4579 120.69 52.3182C54.1868 79.1785 22.05 154.865 48.9103 221.368C75.7706 287.871 151.457 320.008 217.96 293.147Z" fill="#6D9AE4"/>
<path d="M287.963 225.786C287.733 225.879 287.272 226.065 286.949 225.928C286.303 225.654 286.024 224.963 286.298 224.316C299.748 192.64 300.092 157.687 287.259 125.914C274.426 94.1416 249.811 69.002 218.228 55.7821C186.458 42.1018 151.506 41.7579 119.733 54.5908C87.9601 67.4238 62.8205 92.0386 49.3704 123.715C49.0959 124.362 48.4052 124.641 47.7587 124.366C47.1123 124.092 46.8333 123.401 47.1078 122.754C60.8324 90.4314 86.3395 65.4004 118.803 52.2885C151.267 39.1766 187.003 39.4717 219.326 53.1963C251.649 66.9209 276.587 92.1978 289.792 124.892C302.997 157.585 302.609 193.091 288.884 225.414C288.424 225.6 288.193 225.693 287.963 225.786Z" fill="#78D651"/>
<path d="M206.336 264.372C256.945 243.931 281.401 186.335 260.96 135.726C240.52 85.1178 182.923 60.6618 132.314 81.1024C81.706 101.543 57.25 159.14 77.6906 209.748C98.1311 260.357 155.728 284.812 206.336 264.372Z" fill="white"/>
<path d="M206.898 265.76C155.785 286.404 97.2803 261.563 76.636 210.45C55.9917 159.337 80.8333 100.832 131.946 80.1882C132.637 79.9092 133.283 80.1837 133.562 80.8744C133.841 81.5651 133.567 82.2116 132.876 82.4906C82.9144 102.67 58.7591 159.558 78.9384 209.52C98.7945 259.345 156.006 283.637 205.968 263.458C206.659 263.179 207.305 263.453 207.584 264.144C207.77 264.604 207.358 265.574 206.898 265.76Z" fill="#78D651"/>
<path d="M200.201 180.889L175.105 191.025C170.04 193.071 164.222 190.601 162.176 185.535L148.227 151C146.461 146.625 148.656 141.454 153.031 139.687C157.406 137.92 162.577 140.116 164.344 144.49L175.503 172.119L193.692 164.772C198.066 163.006 203.238 165.202 205.005 169.576C206.772 173.951 204.576 179.122 200.201 180.889Z" fill="#78D651"/>
<g clip-path="url(#clip0_802_4771)">
<path d="M598.297 469.709V168.605C598.297 158.581 590.202 150.484 580.179 150.484H151.893C141.87 150.484 133.774 158.581 133.774 168.605V469.709H598.297Z" fill="#1D1D1D"/>
<path d="M569.386 177.859H163.266V440.796H569.386V177.859Z" fill="white"/>
<path d="M133.583 469.711L65.7354 609.083H668.459L598.298 469.711H133.583Z" fill="white" stroke="#1D1D1D" stroke-width="0.889534" stroke-miterlimit="10"/>
<path d="M670 610.047H64V618.529H670V610.047Z" fill="#1D1D1D"/>
<path d="M192.756 478L186.781 492.458H217.427L223.017 478H192.756ZM155.363 494.385L147.845 511.349H176.565L183.697 494.385H155.363ZM146.882 513.469L139.365 530.433H168.662L175.794 513.469H146.882ZM246.147 513.469L241.136 530.433H266L269.662 513.469H246.147ZM300.116 494.385L297.803 511.349H321.319L322.861 494.385H300.116ZM271.59 513.469L267.928 530.433H293.178L295.49 513.469H271.59ZM297.418 513.469L295.105 530.433H319.391L320.933 513.469H297.418ZM324.788 494.385L323.246 511.349H346.183L346.954 494.385H324.788ZM326.33 478L324.981 492.458H347.34L348.111 478H326.33ZM372.011 494.385H349.267L348.496 511.349H372.204L372.011 494.385ZM323.053 513.469L321.511 530.433H345.412L346.183 513.469H323.053ZM372.204 513.469H348.303L347.532 530.433H372.397L372.204 513.469ZM396.683 513.469H374.324L374.517 530.433H397.647L396.683 513.469ZM418.657 478H396.683L397.454 492.458H420.199L418.657 478ZM420.391 494.385H397.647L398.611 511.349H422.319L420.391 494.385ZM442.365 478H420.777L422.319 492.458H444.678L442.365 478ZM444.87 494.385H422.511L424.246 511.349H447.569L444.87 494.385ZM422.319 513.469H398.611L399.574 530.433H424.246L422.319 513.469ZM447.761 513.469H424.439L426.174 530.433H450.267L447.761 513.469ZM567.073 494.385H544.714L550.689 511.349H573.819L567.073 494.385ZM506.164 532.553H479.565L482.842 550.095H510.597L506.164 532.553ZM549.147 513.469H530.258L535.655 530.433H555.122L549.147 513.469ZM574.397 513.469H551.267L557.242 530.433H580.95L574.397 513.469ZM170.011 532.553L162.687 550.095H195.261L202.008 532.553H170.011ZM614.103 552.216H591.552L599.84 573.228H597.719L589.431 552.216H129.92L120.668 573.228H623.162L614.103 552.216ZM138.594 532.553L130.884 550.095H160.567L167.891 532.553H138.594ZM581.914 532.553H558.013L564.181 550.095H588.66L581.914 532.553ZM605.815 532.553H584.034L590.973 550.095H613.332L605.815 532.553ZM597.527 513.469H576.517L583.071 530.433H604.658L597.527 513.469ZM555.893 532.553H536.426L542.015 550.095H562.061L555.893 532.553ZM534.113 532.553H508.092L512.525 550.095H539.51L534.113 532.553ZM477.637 532.553H452.773L455.471 550.095H480.914L477.637 532.553ZM450.653 532.553H426.366L428.294 550.095H453.351L450.653 532.553ZM424.439 532.553H399.767L400.731 550.095H426.366L424.439 532.553ZM397.647 532.553H374.324L374.517 550.095H398.611L397.647 532.553ZM372.397 532.553H347.34L346.376 550.095H372.397V532.553ZM321.319 532.553L319.777 550.095H344.448L345.412 532.553H321.319ZM295.105 532.553L292.792 550.095H317.849L319.391 532.553H295.105ZM267.542 532.553L263.687 550.095H290.672L292.985 532.553H267.542ZM240.365 532.553L235.16 550.095H261.567L265.422 532.553H240.365ZM204.128 532.553L197.382 550.095H233.04L238.244 532.553H204.128ZM528.137 513.469H503.273L507.706 530.433H533.534L528.137 513.469ZM589.431 494.385H569.193L575.746 511.349H596.756L589.431 494.385ZM582.685 478.578L582.492 478H562.832L568.422 492.458H588.66L582.685 478.578ZM560.712 478H538.931L543.943 492.458H566.302L560.712 478ZM536.811 478H519.271L523.897 492.458H542.015L536.811 478ZM542.401 494.385H524.282L529.679 511.349H548.376L542.401 494.385ZM522.162 494.385H498.454L502.887 511.349H527.559L522.162 494.385ZM516.958 478H494.214L497.876 492.458H521.391L516.958 478ZM501.345 513.469H476.095L479.179 530.433H505.586L501.345 513.469ZM473.975 513.469H449.689L452.387 530.433H477.059L473.975 513.469ZM496.334 494.385H472.626L475.71 511.349H500.767L496.334 494.385ZM492.094 478H469.349L472.048 492.458H495.756L492.094 478ZM470.506 494.385H446.99L449.689 511.349H473.782L470.506 494.385ZM467.422 478H444.292L446.412 492.458H469.928L467.422 478ZM395.527 494.385H373.939L374.132 511.349H396.49L395.527 494.385ZM394.756 478H373.939L374.132 492.458H395.527L394.756 478ZM371.819 478H350.038L349.267 492.458H372.011L371.819 478ZM302.237 478L300.309 492.458H323.053L324.403 478H302.237ZM279.492 478L276.408 492.458H298.382L300.309 478H279.492ZM275.83 494.385L272.168 511.349H295.876L298.189 494.385H275.83ZM256.555 478L252.315 492.458H274.288L277.372 478H256.555ZM251.737 494.385L246.725 511.349H270.048L273.71 494.385H251.737ZM225.137 478L219.548 492.458H250.195L254.435 478H225.137ZM218.777 494.385L212.223 511.349H244.605L249.616 494.385H218.777ZM211.452 513.469L204.899 530.433H238.823L243.834 513.469H211.452ZM177.914 513.469L170.782 530.433H202.779L209.332 513.469H177.914ZM186.01 494.385L178.878 511.349H210.103L216.657 494.385H186.01ZM162.687 478L156.326 492.458H184.66L190.636 478H162.687ZM542.401 494.385H524.282L529.679 511.349H548.376L542.401 494.385Z" fill="#1D1D1D"/>
<path d="M196.611 552.219L196.225 553.183L194.298 552.412L194.491 552.219H196.611Z" fill="#1D1D1D"/>
<path d="M161.917 552.219L161.724 552.604L160.375 552.219H161.917Z" fill="#1D1D1D"/>
<path d="M480.143 356.745H255.784C244.219 356.745 234.774 347.3 234.774 335.734V254.578C234.774 243.012 244.219 233.566 255.784 233.566H480.143C491.708 233.566 501.152 243.012 501.152 254.578V335.734C501.152 347.3 491.708 356.745 480.143 356.745Z" fill="#78D651" stroke="#1D1D1D" stroke-width="1.33523" stroke-miterlimit="10"/>
<path d="M265.808 412.648H470.506C483.42 412.648 491.709 398.576 485.348 387.203L382.999 204.651C376.445 193.085 359.869 193.085 353.315 204.651L250.966 387.396C244.606 398.769 252.701 412.648 265.808 412.648Z" fill="#6D9AE4"/>
<path d="M276.023 401.85H460.291C467.422 401.85 471.856 393.754 468.386 387.393L376.252 214.287C372.783 207.733 363.724 207.733 360.062 214.287L267.928 387.2C264.459 393.947 268.892 401.85 276.023 401.85Z" stroke="white" stroke-width="0.667192" stroke-miterlimit="10"/>
<path d="M364.88 345.376H370.084C374.132 345.376 377.409 341.714 377.794 336.702L382.805 280.799C383.384 275.016 379.722 270.004 375.096 270.004H358.905C354.086 270.004 350.617 275.209 351.195 280.992L357.17 336.895C357.748 341.714 361.025 345.376 364.88 345.376Z" fill="white"/>
<path d="M377.409 365.235C377.409 371.018 372.783 375.645 367 375.645C361.218 375.645 356.592 371.018 356.592 365.235C356.592 359.452 361.218 354.826 367 354.826C372.783 354.633 377.409 359.452 377.409 365.235Z" fill="white"/>
</g>
<defs>
<clipPath id="clip0_802_4771">
<rect width="606" height="468.042" fill="white" transform="translate(64 150.477)"/>
</clipPath>
</defs>
</svg>
