<svg width="42" height="37" viewBox="0 0 42 37" fill="none" xmlns="http://www.w3.org/2000/svg">
<path d="M35.6708 25.3803C35.8442 24.9178 35.6131 24.3399 35.1505 24.1661C34.688 23.9927 34.1101 24.2237 33.9363 24.6863C31.3924 31.0459 25.3221 35.1504 18.5003 35.1504C9.30825 35.0927 1.85034 27.635 1.85034 18.5004C1.85034 9.36567 9.30795 1.90816 18.4425 1.90816C26.9987 1.90816 34.0519 8.38306 34.9769 16.7082L31.3926 13.355C30.9877 13.0082 30.4099 13.0082 30.063 13.4127C29.8896 13.5861 29.832 13.8176 29.832 14.0487C29.832 14.2797 29.9477 14.5689 30.1211 14.7423L35.4399 19.6566C35.6133 19.83 35.9024 19.9457 36.1335 19.8876C36.3646 19.8876 36.6537 19.7719 36.7695 19.5408L41.3946 13.9906C41.7414 13.5857 41.6837 13.0079 41.2788 12.661C40.8739 12.3142 40.2961 12.3719 39.9492 12.7768L36.8276 16.5344C35.9021 7.28458 28.0395 -5.93722e-07 18.5 -1.01071e-06C8.32507 -1.45547e-06 -3.08815e-05 8.3251 -3.13262e-05 18.5C-3.1771e-05 28.6749 8.26695 37 18.5 37C26.0737 37 32.8375 32.433 35.6703 25.3797L35.6708 25.3803Z" fill="#78D651"/>
</svg>
