<svg width="274" height="67" viewBox="0 0 274 67" fill="none" xmlns="http://www.w3.org/2000/svg">
<g clip-path="url(#clip0_401_524)">
<path d="M78.8314 55.7355C78.8314 55.3708 79.1353 55.0669 79.5 55.0669C79.8647 55.0669 80.1686 55.3708 80.1686 55.7355V62.1175H84.2409V55.7355C84.2409 55.3708 84.5449 55.0669 84.9095 55.0669C85.2742 55.0669 85.5781 55.3708 85.5781 55.7355V62.1175H86.4291C86.7938 62.1175 87.0977 62.4214 87.0977 62.7861V65.6428C87.0977 66.0075 86.7938 66.3114 86.4291 66.3114C86.0644 66.3114 85.7605 66.0075 85.7605 65.6428V63.3331H79.5C79.1353 63.3331 78.8314 63.0292 78.8314 62.6646V55.7355Z" fill="#78D651"/>
<path d="M92.9325 55.8576C92.9325 55.4929 93.2364 55.189 93.6011 55.189H98.4636C98.7675 55.189 99.0106 55.4929 99.0106 55.7968C99.0106 56.1007 98.7675 56.4046 98.4636 56.4046H94.2697V58.6535H97.8558C98.1597 58.6535 98.4028 58.8966 98.4028 59.2613C98.4028 59.5652 98.1597 59.8691 97.8558 59.8691H94.2697V62.1788H98.4636C98.7675 62.1788 99.0106 62.4827 99.0106 62.7866C99.0106 63.0905 98.7675 63.3944 98.4636 63.3944H93.6011C93.2364 63.3944 92.9325 63.0905 92.9325 62.7258V55.8576Z" fill="#78D651"/>
<path d="M104.967 55.7355C104.967 55.3708 105.271 55.0669 105.636 55.0669C106.001 55.0669 106.304 55.3708 106.304 55.7355V58.653H110.559V55.7355C110.559 55.3708 110.863 55.0669 111.228 55.0669C111.592 55.0669 111.896 55.3708 111.896 55.7355V62.7861C111.896 63.1508 111.592 63.4547 111.228 63.4547C110.863 63.4547 110.559 63.1508 110.559 62.7861V59.8078H106.304V62.7861C106.304 63.1508 106.001 63.4547 105.636 63.4547C105.271 63.4547 104.967 63.1508 104.967 62.7861V55.7355Z" fill="#78D651"/>
<path d="M123.87 55.1892C124.174 55.1892 124.478 55.4931 124.478 55.797C124.478 56.1009 124.235 56.4048 123.87 56.4048H121.621V62.8476C121.621 63.2123 121.317 63.5162 120.953 63.5162C120.588 63.5162 120.284 63.2123 120.284 62.8476V56.344H118.096C117.792 56.344 117.549 56.1009 117.549 55.7362C117.549 55.4323 117.792 55.1284 118.096 55.1284H123.87V55.1892Z" fill="#78D651"/>
<path d="M130.07 55.8576C130.07 55.4929 130.374 55.189 130.739 55.189H133.474C134.264 55.189 134.872 55.3713 135.358 55.7968C136.027 56.3438 136.33 57.0732 136.33 57.9849C136.33 58.8966 135.966 59.7476 135.297 60.173C134.811 60.5377 134.203 60.7201 133.413 60.7201H131.407V62.7866C131.407 63.1513 131.103 63.4552 130.739 63.4552C130.374 63.4552 130.07 63.1513 130.07 62.7866V55.8576ZM131.407 59.5044H133.231C133.717 59.5044 134.082 59.3829 134.385 59.2005C134.811 58.8966 135.054 58.4711 135.054 57.8633C135.054 57.2555 134.872 56.8301 134.446 56.5869C134.142 56.4046 133.778 56.283 133.352 56.283H131.468V59.5044H131.407Z" fill="#78D651"/>
<path d="M150.188 55.8576C150.188 55.4929 150.492 55.189 150.857 55.189H153.592C154.382 55.189 154.99 55.3713 155.476 55.7968C156.145 56.3438 156.449 57.0732 156.449 57.9849C156.449 58.8966 156.084 59.7476 155.416 60.173C154.929 60.5377 154.322 60.7201 153.531 60.7201H151.526V62.7866C151.526 63.1513 151.222 63.4552 150.857 63.4552C150.492 63.4552 150.188 63.1513 150.188 62.7866V55.8576ZM151.526 59.5044H153.349C153.835 59.5044 154.2 59.3829 154.504 59.2005C154.929 58.8966 155.173 58.4711 155.173 57.8633C155.173 57.2555 154.99 56.8301 154.565 56.5869C154.261 56.4046 153.896 56.283 153.471 56.283H151.586V59.5044H151.526Z" fill="#78D651"/>
<path d="M162.527 55.8576C162.527 55.4929 162.831 55.189 163.196 55.189H168.058C168.362 55.189 168.605 55.4929 168.605 55.7968C168.605 56.1007 168.362 56.4046 168.058 56.4046H163.864V58.6535H167.451C167.754 58.6535 167.998 58.8966 167.998 59.2613C167.998 59.5652 167.754 59.8691 167.451 59.8691H163.864V62.1788H168.058C168.362 62.1788 168.605 62.4827 168.605 62.7866C168.605 63.0905 168.362 63.3944 168.058 63.3944H163.196C162.831 63.3944 162.527 63.0905 162.527 62.7258V55.8576Z" fill="#78D651"/>
<path d="M173.893 62.4822L176.446 55.7355C176.628 55.31 176.872 55.0669 177.358 55.0669C177.783 55.0669 178.087 55.31 178.269 55.7355L180.822 62.4822C180.883 62.6038 180.883 62.7253 180.883 62.7861C180.883 63.1508 180.64 63.3939 180.214 63.3939C179.85 63.3939 179.667 63.2116 179.546 62.9077L178.999 61.4489H175.717L175.17 62.9077C175.048 63.2116 174.866 63.3939 174.501 63.3939C174.136 63.3939 173.893 63.09 173.893 62.7861C173.832 62.7253 173.893 62.6038 173.893 62.4822ZM176.021 60.4156H178.756L177.419 56.7688L176.021 60.4156Z" fill="#78D651"/>
<path d="M186.657 55.8576C186.657 55.4929 186.961 55.189 187.326 55.189H191.641C191.945 55.189 192.188 55.4321 192.188 55.7968C192.188 56.1007 191.945 56.4046 191.641 56.4046H187.994V58.6535H189.757C191.763 58.6535 192.735 59.4437 192.735 60.9632C192.735 62.7258 191.277 63.3337 189.879 63.3337H187.326C186.961 63.3337 186.657 63.0297 186.657 62.6651V55.8576ZM187.994 62.2396H189.757C190.73 62.2396 191.398 61.8141 191.398 60.9632C191.398 60.173 190.79 59.7476 189.696 59.7476H188.055V62.2396H187.994Z" fill="#78D651"/>
<path d="M198.874 55.7355C198.874 55.3708 199.178 55.0669 199.543 55.0669C199.908 55.0669 200.212 55.3708 200.212 55.7355V62.7861C200.212 63.1508 199.908 63.4547 199.543 63.4547C199.178 63.4547 198.874 63.1508 198.874 62.7861V55.7355Z" fill="#78D651"/>
<path d="M206.776 61.2671C207.08 60.3554 207.201 59.1397 207.201 57.4379V55.8576C207.201 55.4929 207.505 55.189 207.87 55.189H212.55C212.915 55.189 213.219 55.4929 213.219 55.8576V62.7866C213.219 63.1513 212.915 63.4552 212.55 63.4552C212.185 63.4552 211.881 63.1513 211.881 62.7866V56.4046H208.538V57.4379C208.538 59.6868 208.295 61.3279 207.748 62.4219C207.384 63.1513 207.14 63.4552 206.715 63.4552C206.35 63.4552 206.046 63.1513 206.046 62.7866C206.046 62.4219 206.533 61.9357 206.776 61.2671Z" fill="#78D651"/>
<path d="M219.722 55.7355C219.722 55.3708 220.026 55.0669 220.391 55.0669C220.756 55.0669 221.059 55.3708 221.059 55.7355V62.7861C221.059 63.1508 220.756 63.4547 220.391 63.4547C220.026 63.4547 219.722 63.1508 219.722 62.7861V55.7355Z" fill="#78D651"/>
<path d="M232.973 55.1892C233.277 55.1892 233.581 55.4931 233.581 55.797C233.581 56.1009 233.337 56.4048 232.973 56.4048H230.785V62.8476C230.785 63.2123 230.481 63.5162 230.116 63.5162C229.751 63.5162 229.447 63.2123 229.447 62.8476V56.344H227.259C226.955 56.344 226.712 56.1009 226.712 55.7362C226.712 55.4323 226.955 55.1284 227.259 55.1284H232.973V55.1892Z" fill="#78D651"/>
<path d="M236.741 62.4822L239.294 55.7355C239.476 55.31 239.719 55.0669 240.206 55.0669C240.631 55.0669 240.935 55.31 241.117 55.7355L243.67 62.4822C243.731 62.6038 243.731 62.7253 243.731 62.7861C243.731 63.1508 243.488 63.3939 243.062 63.3939C242.698 63.3939 242.515 63.2116 242.394 62.9077L241.847 61.4489H238.443L237.896 62.9077C237.774 63.2116 237.592 63.3939 237.227 63.3939C236.863 63.3939 236.62 63.09 236.62 62.7861C236.68 62.7253 236.68 62.6038 236.741 62.4822ZM238.868 60.4156H241.604L240.266 56.7688L238.868 60.4156Z" fill="#78D651"/>
<path d="M249.505 55.7355C249.505 55.3708 249.809 55.0669 250.174 55.0669C250.539 55.0669 250.842 55.3708 250.842 55.7355V62.1175H254.915V55.7355C254.915 55.3708 255.219 55.0669 255.583 55.0669C255.948 55.0669 256.252 55.3708 256.252 55.7355V62.1175H257.103C257.468 62.1175 257.772 62.4214 257.772 62.7861V65.6428C257.772 66.0075 257.468 66.3114 257.103 66.3114C256.738 66.3114 256.434 66.0075 256.434 65.6428V63.3331H250.174C249.809 63.3331 249.505 63.0292 249.505 62.6646V55.7355Z" fill="#78D651"/>
<path d="M263.606 55.7355C263.606 55.3708 263.91 55.0669 264.275 55.0669C264.64 55.0669 264.944 55.3708 264.944 55.7355V62.7861C264.944 63.1508 264.64 63.4547 264.275 63.4547C263.91 63.4547 263.606 63.1508 263.606 62.7861V55.7355Z" fill="#78D651"/>
<path d="M271.569 53.0009C271.569 53.3655 271.265 53.7302 270.839 53.7302C270.475 53.7302 270.11 53.4263 270.11 53.0009C270.11 52.6362 270.414 52.2715 270.839 52.2715C271.204 52.2715 271.569 52.5754 271.569 53.0009ZM271.386 55.736C271.386 55.3713 271.69 55.0674 272.055 55.0674C272.42 55.0674 272.723 55.3713 272.723 55.736V62.7866C272.723 63.1513 272.42 63.4552 272.055 63.4552C271.69 63.4552 271.386 63.1513 271.386 62.7866V55.736ZM274 53.0009C274 53.3655 273.696 53.7302 273.27 53.7302C272.845 53.7302 272.541 53.4263 272.541 53.0009C272.541 52.6362 272.845 52.2715 273.27 52.2715C273.696 52.2715 274 52.5754 274 53.0009Z" fill="#78D651"/>
<path d="M78.8314 41.8779C78.8314 41.2093 79.3785 40.6015 80.1686 40.6015H82.2352C83.39 38.7173 84.1194 36.286 84.4233 33.4901C84.6056 32.0921 84.6664 30.8765 84.6664 29.7824C84.7272 28.6884 84.7272 27.412 84.7272 25.8924V21.6377C84.7272 20.9691 85.2742 20.3613 86.0644 20.3613H97.7952C98.4638 20.3613 99.1324 20.9691 99.1324 21.6377V40.6015H101.32C101.989 40.6015 102.658 41.1485 102.658 41.8779V49.5971C102.658 50.2657 102.05 50.8735 101.32 50.8735C100.53 50.8735 99.9833 50.2657 99.9833 49.5971V42.972H81.5058V49.5971C81.5058 50.2657 80.9588 50.8735 80.1686 50.8735C79.3785 50.8735 78.8314 50.2657 78.8314 49.5971V41.8779ZM96.458 40.6015V22.7318H87.4016V25.9532C87.4016 27.4727 87.3408 28.6884 87.3408 29.7824C87.28 30.8765 87.2192 32.0921 87.0369 33.4901C86.733 36.2252 86.0644 38.6565 84.9703 40.6015H96.458Z" fill="#6D9AE4"/>
<path d="M104.238 41.2705L109.647 35.314L104.481 29.7221C104.238 29.4182 104.116 29.1143 104.116 28.8712C104.116 28.2633 104.603 27.7163 105.271 27.7163C105.636 27.7163 105.94 27.8987 106.244 28.2633L111.714 34.4022H113.902V28.8712C113.902 27.3516 116.273 27.3516 116.273 28.8712V34.4022H118.461L123.931 28.2633C124.235 27.8987 124.539 27.7163 124.903 27.7163C125.572 27.7163 126.058 28.2633 126.058 28.8712C126.058 29.1143 125.937 29.4182 125.694 29.7221L120.527 35.314L125.937 41.2705C126.18 41.5744 126.301 41.8783 126.301 42.1822C126.301 42.8508 125.815 43.3371 125.147 43.3371C124.721 43.3371 124.296 43.1548 123.992 42.7293L118.521 36.4688H116.273V42.1215C116.273 42.7293 115.725 43.2763 115.057 43.2763C114.388 43.2763 113.841 42.7293 113.841 42.1215V36.4688H111.592L106.061 42.6685C105.757 43.094 105.332 43.2763 104.906 43.2763C104.238 43.2763 103.752 42.7901 103.752 42.1215C103.873 41.8176 103.995 41.5137 104.238 41.2705Z" fill="#6D9AE4"/>
<path d="M130.435 29.9044C131.772 28.4457 133.595 27.7163 135.905 27.7163C138.093 27.7163 139.795 28.3849 141.132 29.7829C142.348 31.0593 142.956 32.7004 142.956 34.6454C142.956 35.4963 142.469 36.1649 141.679 36.1649H130.982C131.103 37.5021 131.529 38.5962 132.258 39.5079C133.291 40.7235 134.689 41.3313 136.452 41.3313C137.789 41.3313 139.005 41.0882 140.038 40.5412C140.646 40.1765 141.011 39.9333 141.375 39.9333C141.922 39.9333 142.287 40.4196 142.287 40.9058C142.287 41.3921 141.983 41.696 141.071 42.1822C139.734 42.9116 138.093 43.2763 136.33 43.2763C133.838 43.2763 131.833 42.4254 130.374 40.8451C129.097 39.4471 128.429 37.5629 128.429 35.314C128.429 33.1258 129.097 31.3024 130.435 29.9044ZM140.585 34.4022C140.524 33.0651 140.099 31.971 139.369 31.1201C138.458 30.1476 137.303 29.6613 135.905 29.6613C134.325 29.6613 133.109 30.2083 132.136 31.2416C131.468 32.0318 131.042 33.1258 130.921 34.4022H140.585Z" fill="#6D9AE4"/>
<path d="M146.906 29.6005C146.906 28.6888 147.393 28.1418 148.304 27.9594C149.338 27.7771 150.492 27.7163 151.647 27.7163C154.382 27.7163 156.571 28.4457 158.09 29.9044C159.67 31.3024 160.4 33.1866 160.4 35.4963C160.4 37.806 159.792 39.6294 158.516 40.9666C157.057 42.5469 154.869 43.3371 152.741 43.3371C151.404 43.3371 150.189 43.094 149.277 42.6685V49.5976C149.277 51.1171 146.846 51.1171 146.846 49.5976V29.6005H146.906ZM149.277 40.6019C150.189 41.0882 151.283 41.2705 152.559 41.2705C154.139 41.2705 155.477 40.7843 156.449 39.751C157.482 38.7177 157.969 37.259 157.969 35.4355C157.969 33.7337 157.422 32.3357 156.388 31.2416C155.294 30.1476 153.775 29.6005 151.89 29.6005C150.979 29.6005 150.128 29.6613 149.277 29.7829V40.6019Z" fill="#6D9AE4"/>
<path d="M165.505 29.9044C166.843 28.4457 168.666 27.7163 170.976 27.7163C173.164 27.7163 174.866 28.3849 176.203 29.7829C177.419 31.0593 178.026 32.7004 178.026 34.6454C178.026 35.4963 177.54 36.1649 176.75 36.1649H166.052C166.174 37.5021 166.599 38.5962 167.329 39.5079C168.362 40.7235 169.76 41.3313 171.523 41.3313C172.86 41.3313 174.076 41.0882 175.109 40.5412C175.717 40.1765 176.081 39.9333 176.446 39.9333C176.993 39.9333 177.358 40.4196 177.358 40.9058C177.358 41.3921 177.054 41.696 176.142 42.1822C174.805 42.9116 173.164 43.2763 171.401 43.2763C168.909 43.2763 166.903 42.4254 165.445 40.8451C164.168 39.4471 163.5 37.5629 163.5 35.314C163.5 33.1258 164.168 31.3024 165.505 29.9044ZM175.656 34.4022C175.595 33.0651 175.17 31.971 174.44 31.1201C173.529 30.1476 172.374 29.6613 170.976 29.6613C169.395 29.6613 168.18 30.2083 167.207 31.2416C166.539 32.0318 166.113 33.1258 165.992 34.4022H175.656Z" fill="#6D9AE4"/>
<path d="M181.673 38.7785C182.524 36.712 182.889 33.4906 182.95 29.1143C182.95 28.5065 183.497 27.9595 184.165 27.9595H193.586C194.255 27.9595 194.802 28.5065 194.802 29.1143V42.1215C194.802 42.7293 194.255 43.2763 193.586 43.2763C192.918 43.2763 192.371 42.7293 192.371 42.1215V30.1476H185.381C185.199 35.0101 184.591 38.5962 183.558 40.8451C182.646 42.7901 182.038 43.3371 181.248 43.3371C180.579 43.3371 180.032 42.7901 180.032 42.1215C180.032 41.4529 181.005 40.4804 181.673 38.7785Z" fill="#6D9AE4"/>
<path d="M201.123 29.9037C202.643 28.3842 204.527 27.6548 206.837 27.6548C209.086 27.6548 211.091 28.4449 212.55 29.9037C214.07 31.3017 214.799 33.1859 214.799 35.4956C214.799 37.7445 214.07 39.5679 212.55 41.0267C211.091 42.4854 209.086 43.2756 206.837 43.2756C204.527 43.2756 202.643 42.4854 201.123 41.0267C199.725 39.6895 198.874 37.6229 198.874 35.4956C198.874 33.2467 199.665 31.4232 201.123 29.9037ZM202.764 39.5679C203.798 40.7228 205.196 41.2698 206.837 41.2698C208.478 41.2698 209.815 40.7228 210.909 39.5679C211.882 38.4131 212.429 37.0151 212.429 35.4956C212.429 33.8545 211.942 32.5173 210.909 31.4232C209.876 30.2684 208.539 29.6606 206.837 29.6606C205.135 29.6606 203.798 30.2684 202.764 31.4232C201.792 32.4565 201.306 33.8545 201.306 35.4956C201.306 37.0759 201.792 38.4738 202.764 39.5679Z" fill="#6D9AE4"/>
<path d="M227.32 21.3335C227.32 20.6649 227.867 20.0571 228.657 20.0571C229.447 20.0571 229.994 20.6649 229.994 21.3335V40.6012H240.813C241.421 40.6012 241.968 41.1482 241.968 41.8168C241.968 42.4246 241.482 42.9717 240.813 42.9717H228.657C227.867 42.9717 227.32 42.3638 227.32 41.6953V21.3335Z" fill="#6D9AE4"/>
<path d="M245.129 19.8146C245.676 19.2675 246.648 19.2675 247.195 19.8146C247.742 20.3616 247.742 21.3341 247.195 21.8811C246.648 22.4282 245.676 22.4282 245.129 21.8811C244.521 21.2733 244.521 20.3616 245.129 19.8146ZM244.946 28.871C244.946 28.2632 245.494 27.7161 246.162 27.7161C246.831 27.7161 247.378 28.2632 247.378 28.871V42.1821C247.378 42.7899 246.831 43.3369 246.162 43.3369C245.494 43.3369 244.946 42.7899 244.946 42.1821V28.871Z" fill="#6D9AE4"/>
<path d="M251.329 28.0202H252.909V25.3458C252.909 21.8813 254.428 20.1187 257.407 20.1187C258.622 20.1187 259.656 20.301 260.567 20.7265C261.479 21.1519 261.905 21.699 261.905 22.3068C261.905 22.8538 261.479 23.2793 260.993 23.2793C260.324 23.2793 259.413 22.3068 257.893 22.3068C256.009 22.3068 255.34 23.2793 255.34 25.5282V28.081H259.534C260.02 28.081 260.446 28.5065 260.446 28.9927C260.446 29.5397 260.02 29.9652 259.534 29.9652H255.34V42.1823C255.34 42.7901 254.793 43.3371 254.125 43.3371C253.456 43.3371 252.909 42.7901 252.909 42.1823V29.9044H251.329C250.782 29.9044 250.356 29.479 250.356 28.9319C250.356 28.3849 250.842 28.0202 251.329 28.0202Z" fill="#6D9AE4"/>
<path d="M261.418 29.9044C262.756 28.4457 264.579 27.7163 266.889 27.7163C269.077 27.7163 270.779 28.3849 272.116 29.7829C273.332 31.0593 273.939 32.7004 273.939 34.6454C273.939 35.4963 273.453 36.1649 272.663 36.1649H261.965C262.087 37.5021 262.512 38.5962 263.242 39.5079C264.275 40.7235 265.673 41.3313 267.436 41.3313C268.773 41.3313 269.989 41.0882 271.022 40.5412C271.63 40.1765 271.994 39.9333 272.359 39.9333C272.906 39.9333 273.271 40.4196 273.271 40.9058C273.271 41.3921 272.967 41.696 272.055 42.1822C270.718 42.9116 269.077 43.2763 267.314 43.2763C264.822 43.2763 262.816 42.4254 261.358 40.8451C260.081 39.4471 259.413 37.5629 259.413 35.314C259.413 33.1258 260.081 31.3024 261.418 29.9044ZM271.569 34.4022C271.508 33.0651 271.083 31.971 270.353 31.1201C269.442 30.1476 268.287 29.6613 266.889 29.6613C265.308 29.6613 264.093 30.2083 263.12 31.2416C262.452 32.0318 262.026 33.1258 261.905 34.4022H271.569Z" fill="#6D9AE4"/>
<path d="M72.2671 10.8191C72.5102 10.3936 72.8141 9.96813 73.1788 9.54266C74.2729 8.14469 75.6708 6.86828 77.3119 5.835C81.6882 7.05063 85.3958 4.49781 85.5782 4.31547C81.749 3.09984 79.1962 3.95078 77.7982 4.74094L77.7374 4.80172L77.6766 4.8625C77.6158 4.92328 77.5551 4.92328 77.4943 4.98406C76.8257 5.40953 76.1571 5.835 75.5493 6.38203C77.6158 3.52531 77.4943 0.303906 77.4335 0C73.1788 3.52531 73.4827 7.23297 73.6651 8.08391C73.3611 8.4486 72.9965 8.81328 72.7533 9.17797C72.3886 9.66422 72.024 10.1505 71.7201 10.6975C73.0572 6.8075 71.2946 3.28219 71.173 3.03906C68.681 8.08391 70.626 11.3661 71.0515 11.9739C69.9574 14.4052 69.6535 16.958 70.2005 19.5716V19.6323C70.2613 19.7539 70.3829 19.8755 70.5044 19.8147C70.5044 19.8147 70.5044 19.8147 70.5652 19.8147C70.626 19.8147 70.7476 19.7539 70.7476 19.6931C70.8083 19.6324 70.8083 19.5108 70.8083 19.45C70.2005 16.7756 70.626 14.1013 71.9024 11.67C73.118 12.0955 76.7649 12.8856 81.2019 9.60344C80.7765 9.48188 76.4002 8.20547 72.2671 10.8191Z" fill="#78D651"/>
<path d="M71.4768 13.8577C71.3552 13.3715 70.9905 13.0676 70.5043 13.0068L66.6751 12.5205C65.7026 11.6696 62.9674 9.72461 59.5637 9.72461C58.1049 9.72461 56.7069 10.0893 55.309 10.7579C51.966 12.4598 50.1426 15.9243 50.021 20.8476C50.6896 21.4554 51.3582 22.124 51.966 22.7318L52.0876 22.8534V22.671C51.9052 19.7535 52.1484 14.5263 56.2207 12.4598C57.3148 11.9127 58.4088 11.6696 59.5637 11.6696C62.3596 11.6696 64.6085 13.3107 65.3987 13.9793C65.7026 14.2224 66.128 14.4048 66.4927 14.4655L68.1338 14.6479L66.4319 15.8635C64.0615 17.5654 63.4537 20.726 65.034 23.1573C65.2771 23.522 70.2612 32.7607 67.1613 40.1152C65.5202 44.066 61.7518 46.862 56.0384 48.3815C55.0659 48.6246 54.0934 48.807 53.0601 48.9893H52.8777L52.9385 48.8677C54.8835 44.1876 55.4305 39.2035 54.6404 34.0979C54.458 33.0038 54.1541 31.9098 53.7894 30.8157C52.5738 27.4727 50.3249 24.4337 47.1643 21.9416C38.1687 14.7695 25.283 10.9402 9.90538 10.9402C7.35256 10.9402 4.73897 11.0618 2.06459 11.2441L0.727407 11.3657H0.666626L1.21366 12.6421C1.396 13.0676 5.34678 21.8809 19.3873 26.5002H19.448C20.6637 28.4452 27.5319 38.0487 45.7663 38.1095H45.8879L45.8271 38.0487C45.4624 37.3801 45.0977 36.7723 44.6723 36.1037C32.516 35.7998 25.8908 30.6941 23.0341 27.7159L22.791 27.4727L23.0949 27.5335C26.8026 28.4452 30.8141 28.9923 35.0688 29.2354H35.1904L35.0688 29.1746C34.4002 28.4452 33.6708 27.7766 32.8807 27.1081C14.0385 25.5885 6.31928 16.9576 3.88803 13.3107L3.82725 13.1891H4.0096C6.01538 13.0676 8.02116 13.0068 9.96616 13.0068C24.8576 13.0068 37.3177 16.6537 46.0094 23.522C48.8662 25.7709 50.9327 28.506 51.966 31.4843C52.3307 32.4568 52.5738 33.4293 52.6954 34.4018C53.4855 39.5074 52.8169 44.4915 50.6896 49.1717V49.2324H50.6288C49.9602 49.2932 49.3524 49.2932 48.8054 49.2932C45.8879 49.354 37.3177 49.6579 29.5985 50.2657C13.4307 51.5421 13.1876 53.1224 13.0052 54.2165C12.7621 55.7968 15.011 56.587 15.9835 56.8909C23.1557 59.3221 24.9183 62.0573 26.0732 63.8807C26.9241 65.2787 27.7143 66.4335 29.9024 66.4335L30.2671 66.3727C37.3785 64.6101 46.9819 59.2613 50.6288 53.4263C51.0543 52.7577 51.4798 52.0284 51.9052 51.1774V51.1166H51.966C53.6071 50.9343 55.1266 50.6912 56.5246 50.3265C62.9066 48.6246 67.1005 45.464 68.9848 40.9054C72.5101 32.5176 66.979 22.5495 66.7359 22.1848L66.6751 22.124C65.7026 20.6045 66.0673 18.5987 67.526 17.5654L70.9905 15.0734C71.416 14.7695 71.5984 14.2832 71.4768 13.8577ZM49.474 51.4206C49.2916 51.7245 49.1093 52.0891 48.9269 52.3931C45.584 57.681 36.406 62.7259 29.8416 64.4277C28.8083 64.4277 28.5044 64.0631 27.7143 62.7867C26.4379 60.7201 24.4321 57.6202 16.5913 54.9459C16.1658 54.7635 15.7404 54.642 15.4365 54.5204L15.2541 54.3988L15.4365 54.3381C19.3873 52.6362 38.9588 51.4813 48.8054 51.299C48.9877 51.299 49.1701 51.299 49.4132 51.299H49.5955L49.474 51.4206Z" fill="#6D9AE4"/>
</g>
<defs>
<clipPath id="clip0_401_524">
<rect width="273.333" height="66.4339" fill="white" transform="translate(0.666626)"/>
</clipPath>
</defs>
</svg>
