<?xml version="1.0" standalone="no"?>
<!DOCTYPE svg PUBLIC "-//W3C//DTD SVG 20010904//EN"
 "http://www.w3.org/TR/2001/REC-SVG-20010904/DTD/svg10.dtd">
<svg version="1.0" xmlns="http://www.w3.org/2000/svg"
 width="104.000000pt" height="104.000000pt" viewBox="0 0 104.000000 104.000000"
 preserveAspectRatio="xMidYMid meet">
<metadata>
Created by potrace 1.14, written by Peter Selinger 2001-2017
</metadata>
<g transform="translate(0.000000,104.000000) scale(0.100000,-0.100000)"
fill="#000000" stroke="none">
<path d="M962 918 c-7 -7 -12 -20 -12 -30 0 -15 4 -17 19 -9 10 6 21 8 24 5 3
-3 14 -1 24 6 15 9 13 11 -15 7 -28 -3 -31 -1 -26 15 6 21 3 23 -14 6z"/>
<path d="M922 871 c5 -37 -6 -39 -62 -11 -89 45 -177 4 -195 -91 -5 -26 -2
-39 9 -48 14 -12 16 -10 16 13 0 38 25 93 48 105 40 21 86 13 151 -27 3 -1 -5
-12 -17 -25 -26 -28 -28 -57 -5 -100 57 -110 43 -234 -31 -283 -34 -22 -122
-54 -129 -47 -4 3 -1 15 5 27 17 32 19 160 3 206 -38 108 -153 192 -328 240
-74 20 -199 36 -272 34 -117 -4 -113 -3 -108 -24 13 -48 142 -153 216 -175 12
-4 36 -22 52 -39 65 -70 162 -114 269 -123 47 -5 58 -3 54 8 -3 8 -26 17 -55
20 -76 10 -145 36 -199 75 -27 20 -40 33 -29 30 11 -3 49 -8 85 -12 59 -6 63
-5 48 10 -9 9 -27 16 -40 16 -45 0 -154 31 -214 61 -62 30 -149 103 -140 117
6 10 153 8 217 -3 24 -4 55 -9 69 -12 86 -14 230 -82 288 -136 42 -39 72 -111
72 -172 0 -56 -17 -142 -29 -149 -3 -2 -67 -7 -141 -10 -219 -11 -340 -28
-357 -53 -14 -18 -1 -43 22 -43 15 0 103 -46 119 -63 6 -6 19 -24 29 -40 22
-33 50 -35 120 -5 78 33 164 94 198 141 18 25 39 42 54 44 43 6 108 33 143 60
70 53 91 165 51 273 -35 94 -35 95 6 125 20 16 34 34 31 42 -4 9 3 13 19 13
13 0 27 5 30 10 4 6 -7 10 -24 10 -20 0 -31 5 -31 14 0 8 -5 18 -11 22 -8 5
-10 -3 -7 -25z m-281 -570 c-17 -31 -80 -79 -155 -116 -82 -42 -108 -44 -126
-11 -15 30 -87 82 -123 91 -61 16 -16 30 128 42 39 3 71 6 72 7 1 0 49 2 108
4 104 3 106 3 96 -17z"/>
</g>
</svg>
