<svg width="45" height="34" viewBox="0 0 45 34" fill="none" xmlns="http://www.w3.org/2000/svg">
<path d="M20.52 0.639997L13.8 23.12L11.16 13.04C14.3067 13.04 16.84 13.92 18.76 15.68C20.7333 17.44 21.72 19.8933 21.72 23.04C21.72 26.1333 20.7067 28.6133 18.68 30.48C16.7067 32.3467 14.2 33.28 11.16 33.28C8.12 33.28 5.58667 32.3467 3.56 30.48C1.58667 28.6133 0.6 26.1333 0.6 23.04C0.6 22.1867 0.653333 21.3333 0.76 20.48C0.92 19.6267 1.21333 18.5867 1.64 17.36C2.12 16.1333 2.81333 14.5333 3.72 12.56L9.32 0.639997H20.52ZM43.72 0.639997L37 23.12L34.36 13.04C37.5067 13.04 40.04 13.92 41.96 15.68C43.9333 17.44 44.92 19.8933 44.92 23.04C44.92 26.1333 43.9067 28.6133 41.88 30.48C39.9067 32.3467 37.4 33.28 34.36 33.28C31.32 33.28 28.7867 32.3467 26.76 30.48C24.7867 28.6133 23.8 26.1333 23.8 23.04C23.8 22.1867 23.8533 21.3333 23.96 20.48C24.12 19.6267 24.4133 18.5867 24.84 17.36C25.32 16.1333 26.0133 14.5333 26.92 12.56L32.52 0.639997H43.72Z" fill="#78D651"/>
</svg>
