<svg width="595" height="555" viewBox="0 0 595 555" fill="none" xmlns="http://www.w3.org/2000/svg">
<g clip-path="url(#clip0_650_34623)">
<path d="M227.451 260.457C299.173 260.457 357.316 202.315 357.316 130.592C357.316 58.8693 299.173 0.726562 227.451 0.726562C155.728 0.726562 97.5852 58.8693 97.5852 130.592C97.5852 202.315 155.728 260.457 227.451 260.457Z" fill="#6D9AE4"/>
<path d="M317.587 224.215C317.338 224.215 316.842 224.215 316.593 223.967C316.097 223.47 316.097 222.725 316.593 222.228C340.928 197.894 354.336 165.614 354.336 131.347C354.336 97.0808 340.928 64.5524 316.593 40.4665C292.259 15.8839 259.979 2.47527 225.713 2.47527C191.446 2.47527 158.918 15.8839 134.583 40.2182C134.087 40.7148 133.342 40.7148 132.845 40.2182C132.349 39.7216 132.349 38.9766 132.845 38.48C157.676 13.6492 190.701 -0.0078125 225.713 -0.0078125C260.724 -0.0078125 293.749 13.6492 318.58 38.48C343.411 63.3109 357.068 96.0876 357.068 131.347C357.068 166.607 343.411 199.384 318.58 224.215C318.083 224.215 317.835 224.215 317.587 224.215Z" fill="#78D651"/>
<path d="M227.451 229.419C282.031 229.419 326.277 185.173 326.277 130.592C326.277 76.0119 282.031 31.7656 227.451 31.7656C172.87 31.7656 128.624 76.0119 128.624 130.592C128.624 185.173 172.87 229.419 227.451 229.419Z" fill="white"/>
<path d="M227.451 230.918C172.326 230.918 127.382 185.974 127.382 130.85C127.382 75.7251 172.326 30.7812 227.451 30.7812C228.196 30.7812 228.692 31.2779 228.692 32.0228C228.692 32.7677 228.196 33.2643 227.451 33.2643C173.568 33.2643 129.865 76.9666 129.865 130.85C129.617 184.484 173.568 228.435 227.451 228.435C228.196 228.435 228.692 228.931 228.692 229.676C228.692 230.173 227.947 230.918 227.451 230.918Z" fill="#78D651"/>
<path d="M253.026 149.721H225.961C220.498 149.721 216.028 145.251 216.028 139.789V102.542C216.028 97.8245 220.001 93.8516 224.719 93.8516C229.437 93.8516 233.41 97.8245 233.41 102.542V132.339H253.026C257.744 132.339 261.717 136.312 261.717 141.03C261.717 145.748 257.744 149.721 253.026 149.721Z" fill="#78D651"/>
<path d="M25.5757 175.801L165.622 315.847C192.936 343.161 237.383 343.161 264.697 315.847L281.333 299.21C287.541 293.003 287.541 282.574 281.333 276.366L224.223 219.255C218.015 213.047 207.586 213.047 201.378 219.255L172.823 247.562C170.588 249.797 166.863 249.797 164.628 247.562L95.5987 178.284C93.3639 176.049 93.3639 172.573 95.5987 170.338L123.658 142.279C129.865 136.072 129.865 125.643 123.658 119.435L65.0567 60.5857C58.849 54.378 48.6684 54.378 42.4606 60.3374L26.5689 75.7326C-1.73829 103.047 -2.2349 148.239 25.5757 175.801Z" fill="#1D1D1D"/>
<path d="M30.0447 78.7123L108.758 157.426L111.49 154.695L123.905 142.279C130.113 136.072 130.113 125.643 123.905 119.435L65.0562 60.5857C58.8485 54.378 48.6678 54.378 42.4601 60.3374L26.5684 75.7326L30.0447 78.7123Z" fill="#ECF1F7"/>
<path d="M108.759 159.157L29.2999 79.6978L24.8303 75.9732L41.7153 59.5849C48.4196 53.1288 59.3452 53.1288 66.0495 59.8332L124.65 118.434C131.355 125.138 131.355 136.312 124.65 143.017L108.759 159.157ZM28.3066 75.7249L30.7897 77.7114L108.51 155.432L122.664 141.278C125.395 138.547 127.133 134.822 127.133 130.601C127.133 126.628 125.644 122.904 122.664 119.924L64.0631 61.5713C58.352 55.8602 48.9163 55.8602 43.2052 61.323L28.3066 75.7249Z" fill="#1D1D1D"/>
<path d="M189.956 235.862L268.67 314.576L271.401 311.845L283.817 299.429C290.024 293.222 290.024 282.793 283.817 276.585L224.968 217.984C218.76 211.776 208.579 211.776 202.371 217.736L186.48 233.131L189.956 235.862Z" fill="#ECF1F7"/>
<path d="M268.67 316.328L189.211 236.87L184.742 233.145L201.627 216.757C208.331 210.301 219.257 210.301 225.961 217.005L284.562 275.606C287.79 278.834 289.776 283.303 289.776 288.021C289.776 292.739 288.038 296.96 284.562 300.437L268.67 316.328ZM188.466 233.145L190.949 235.132L268.67 312.852L282.824 298.699C285.555 295.967 287.293 292.243 287.293 288.021C287.293 284.048 285.803 280.324 282.824 277.344L224.223 218.743C218.512 213.032 209.076 213.032 203.365 218.495L188.466 233.145Z" fill="#1D1D1D"/>
<path d="M83.9282 118.439C83.6799 118.439 83.1833 118.439 82.9349 118.19L35.0114 70.2669C34.5148 69.7703 34.5148 69.0253 35.0114 68.5287C35.508 68.0321 36.2529 68.0321 36.7495 68.5287L84.6731 116.452C85.1697 116.949 85.1697 117.694 84.6731 118.19C84.6731 118.439 84.1765 118.439 83.9282 118.439Z" fill="#1D1D1D"/>
<path d="M274.629 309.126C274.381 309.126 273.884 309.126 273.636 308.878L225.713 260.954C225.216 260.458 225.216 259.713 225.713 259.216C226.209 258.72 226.954 258.72 227.451 259.216L275.374 307.14C275.871 307.636 275.871 308.381 275.374 308.878C275.126 309.126 274.878 309.126 274.629 309.126Z" fill="#1D1D1D"/>
<path d="M484.946 554.215L301.446 527.149C280.588 524.169 266.435 504.801 269.414 483.943L335.216 38.9745C338.196 18.1166 357.564 3.96297 378.422 6.94268L561.922 34.0083C582.78 36.988 596.933 56.3561 593.954 77.214L528.152 522.183C524.924 542.793 505.556 557.194 484.946 554.215Z" fill="#1D1D1D"/>
<path d="M349.587 48.6266L287.467 468.648L515.163 502.324L577.283 82.3022L349.587 48.6266Z" fill="#ECF1F7"/>
<path d="M349.5 48.5598L344.85 80L572.546 113.676L577.196 82.2354L349.5 48.5598Z" fill="#6D9AE4"/>
<path d="M397.542 526.4C396.797 526.4 396.052 526.4 395.307 526.152C391.334 525.655 387.858 523.42 385.623 520.192C383.14 516.964 382.395 512.991 382.892 509.267C383.388 505.294 385.623 501.817 388.851 499.583C392.079 497.1 396.052 496.106 399.777 496.851C403.749 497.348 407.226 499.583 409.461 502.811C411.944 506.039 412.689 510.012 412.192 513.736C410.95 521.186 404.743 526.4 397.542 526.4ZM397.293 499.086C394.562 499.086 392.079 499.831 389.844 501.569C387.113 503.556 385.375 506.535 384.878 509.763C384.381 512.991 385.126 516.219 387.113 518.951C389.099 521.682 392.079 523.42 395.307 523.917C402.011 524.91 408.467 520.192 409.461 513.488C409.957 510.26 409.212 507.032 407.226 504.301C405.239 501.569 402.26 499.831 399.032 499.334C398.535 499.334 398.038 499.086 397.293 499.086Z" fill="#ECF1F7"/>
<path d="M430.318 44.4418C430.07 44.4418 429.822 44.4418 429.573 44.4418C428.332 44.1935 427.09 43.6969 426.345 42.4554C425.6 41.4621 425.352 40.2206 425.352 38.9791C425.6 37.7375 426.097 36.496 427.339 35.751C428.332 35.0061 429.573 34.7578 430.815 34.7578C432.056 35.0061 433.298 35.5027 434.043 36.7443C434.788 37.7375 435.036 38.9791 435.036 40.2206C434.788 42.7037 432.553 44.4418 430.318 44.4418ZM430.318 37.4892C429.822 37.4892 429.325 37.7375 429.077 37.9858C428.58 38.2341 428.332 38.9791 428.083 39.4757C428.083 39.9723 428.083 40.7172 428.58 41.2138C428.828 41.7105 429.573 41.9588 430.07 42.2071C430.567 42.2071 431.311 42.2071 431.808 41.7105C432.305 41.4621 432.553 40.7172 432.801 40.2206C432.801 39.724 432.801 38.9791 432.305 38.4824C432.056 37.9858 431.311 37.7375 430.815 37.4892C430.567 37.4892 430.567 37.4892 430.318 37.4892Z" fill="#ECF1F7"/>
<path d="M504.314 55.3592C504.065 55.3592 503.817 55.3592 503.569 55.3592L445.465 46.6684C444.223 46.4201 442.982 45.9235 442.237 44.6819C441.492 43.6887 441.243 42.4472 441.243 41.2056C441.492 39.9641 441.988 38.7225 443.23 37.9776C444.223 37.2327 445.465 36.9844 446.706 36.9844L504.81 45.6752C506.052 45.9235 507.294 46.4201 508.038 47.6616C508.783 48.6549 509.032 49.8964 509.032 51.138C508.783 52.3795 508.287 53.621 507.045 54.366C506.3 55.1109 505.307 55.3592 504.314 55.3592ZM446.21 39.7158C444.968 39.7158 444.223 40.4607 443.975 41.7022C443.975 42.1989 443.975 42.9438 444.471 43.4404C444.72 43.937 445.465 44.1853 445.961 44.4336L504.065 53.1244C505.307 53.3727 506.549 52.3795 506.797 51.138C506.797 50.6413 506.797 49.8964 506.3 49.3998C506.052 48.9032 505.307 48.6549 504.81 48.4066L446.458 39.7158H446.21Z" fill="#ECF1F7"/>
<path d="M516.233 373.697L357.316 350.108C354.833 349.611 352.35 351.598 351.853 354.081L345.645 395.3C345.149 397.783 347.135 400.266 349.618 400.763L485.443 420.876L499.348 440.244L501.832 423.359L508.288 424.352C510.771 424.849 513.254 422.862 513.75 420.379L519.958 379.16C520.455 376.677 518.717 374.194 516.233 373.697Z" fill="#78D651"/>
<path d="M485.691 422.103C485.443 422.103 485.443 422.103 485.691 422.103L349.618 401.99C348.128 401.742 346.638 400.997 345.645 399.755C344.652 398.514 344.404 396.776 344.652 395.286L350.86 354.067C351.356 350.838 354.336 348.604 357.564 349.1L394.314 354.563C395.058 354.563 395.555 355.308 395.307 356.053C395.307 356.798 394.562 357.295 393.817 357.046L357.067 351.583C355.081 351.335 353.343 352.577 353.094 354.563L346.887 395.782C346.638 396.776 346.887 397.52 347.632 398.265C348.128 399.01 349.121 399.507 349.866 399.755L485.691 419.868C486.436 419.868 486.933 420.613 486.684 421.358C486.684 421.855 486.188 422.103 485.691 422.103Z" fill="#243762"/>
<path d="M541.312 202.869L382.395 179.28C379.911 178.783 377.428 180.77 376.932 183.253L370.724 224.472C370.227 226.955 372.214 229.438 374.697 229.935L510.522 250.048L524.427 269.416L526.91 252.531L533.366 253.524C535.849 254.021 538.332 252.034 538.829 249.551L545.037 208.332C545.782 205.849 544.043 203.366 541.312 202.869Z" fill="#78D651"/>
<path d="M525.669 272.629L510.274 251.274L374.946 231.161C371.718 230.664 369.483 227.685 369.98 224.457C369.98 223.712 370.725 223.215 371.47 223.463C372.215 223.463 372.711 224.208 372.463 224.953C372.215 225.947 372.463 226.691 373.208 227.436C373.704 228.181 374.698 228.678 375.443 228.926L511.764 249.039L524.179 266.421L526.414 251.274L534.112 252.516C535.105 252.764 535.85 252.516 536.595 251.771C537.34 251.274 537.836 250.281 538.085 249.536L542.058 222.222C542.058 221.477 542.802 220.98 543.547 221.229C544.292 221.229 544.789 221.974 544.541 222.719L540.568 250.032C540.319 251.522 539.574 253.012 538.333 254.005C537.091 254.999 535.353 255.247 533.863 254.999L528.649 254.254L525.669 272.629Z" fill="#243762"/>
<path d="M340.182 256L499.1 279.589C501.583 280.086 503.569 282.321 503.073 285.052L496.865 326.271C496.368 328.755 494.133 330.741 491.402 330.244L355.577 310.131L336.706 324.533L339.189 307.648L332.733 306.655C330.25 306.158 328.263 303.924 328.76 301.192L334.968 259.973C335.216 257.49 337.699 255.752 340.182 256Z" fill="#6D9AE4"/>
<path d="M492.396 331.468C492.147 331.468 491.899 331.468 491.402 331.468L406.481 318.805C405.736 318.805 405.239 318.06 405.488 317.315C405.488 316.57 406.233 316.073 406.978 316.321L491.899 328.985C492.892 329.233 493.637 328.985 494.382 328.24C495.127 327.744 495.624 326.75 495.872 326.005L502.08 284.786C502.328 282.8 501.086 281.062 499.1 280.813C498.355 280.813 497.858 280.068 498.107 279.323C498.107 278.579 498.852 278.082 499.597 278.33C502.825 278.827 505.059 281.807 504.563 285.035L498.355 326.254C498.107 327.744 497.362 329.233 496.12 330.227C494.879 330.972 493.637 331.468 492.396 331.468Z" fill="#243762"/>
<path d="M293.115 430.077L287.411 468.641L515.107 502.316L520.811 463.753L293.115 430.077Z" fill="white"/>
<path d="M326.774 454.398C325.532 461.847 318.58 467.31 311.131 466.068C303.681 464.827 298.219 457.874 299.46 450.425C300.702 442.976 307.654 437.513 315.104 438.755C322.553 439.748 327.767 446.7 326.774 454.398Z" fill="#C5D9FF"/>
<path opacity="0.33" d="M494.63 491.9C494.134 491.9 493.389 491.9 492.892 491.652L345.148 469.801C341.92 469.304 338.941 467.566 336.954 464.834C334.968 462.103 334.223 458.875 334.72 455.647C335.713 448.943 341.92 444.225 348.873 445.218L496.617 467.069C503.321 468.062 508.039 474.27 507.046 480.974C506.052 487.43 500.838 491.9 494.63 491.9ZM493.389 489.417C498.851 490.162 503.818 486.437 504.563 480.974C505.059 478.243 504.314 475.76 502.824 473.525C501.335 471.29 498.851 470.049 496.368 469.552L348.625 447.701C343.162 446.956 338.196 450.681 337.451 456.144C336.954 458.875 337.699 461.358 339.189 463.593C340.679 465.828 343.162 467.069 345.645 467.566L493.389 489.417Z" fill="#AF9CDA"/>
<path d="M363.771 71.2465C363.523 71.2465 363.275 71.2465 363.027 71.2465C360.295 70.7499 358.557 68.2668 358.805 65.7837C359.054 64.5422 359.799 63.3007 360.792 62.5557C361.785 61.8108 363.027 61.5625 364.516 61.5625C367.248 62.0591 368.986 64.5422 368.738 67.0253C368.241 69.5084 366.006 71.2465 363.771 71.2465ZM363.771 63.7973C363.275 63.7973 362.778 64.0456 362.282 64.2939C361.785 64.7905 361.537 65.2871 361.288 65.7837C361.288 66.5287 361.288 67.0253 361.785 67.5219C362.282 68.0185 362.778 68.2668 363.275 68.5151C364.516 68.7635 365.758 67.7702 366.006 66.5287C366.006 65.7837 366.006 65.2871 365.51 64.7905C365.013 64.2939 364.516 64.0456 364.02 63.7973C364.02 64.0456 363.771 63.7973 363.771 63.7973Z" fill="white"/>
<path d="M377.18 73.2466C376.932 73.2466 376.684 73.2466 376.435 73.2466C373.704 72.75 371.966 70.2669 372.214 67.7838C372.711 65.0524 375.194 63.3143 377.677 63.5626C378.918 63.8109 380.16 64.3075 380.905 65.5491C381.65 66.5423 381.898 67.7838 381.898 69.2737C381.65 70.5152 380.905 71.7568 379.912 72.5017C379.167 72.75 378.173 73.2466 377.18 73.2466ZM377.18 65.7974C375.939 65.7974 374.945 66.5423 374.945 67.7838C374.945 68.5288 374.945 69.0254 375.442 69.522C375.939 70.0186 376.435 70.2669 376.932 70.5152C377.677 70.5152 378.173 70.5152 378.67 70.0186C379.167 69.522 379.415 69.0254 379.663 68.5288C379.663 67.7838 379.663 67.2872 379.167 66.7906C378.67 66.294 378.173 66.0457 377.677 65.7974C377.428 66.0457 377.18 65.7974 377.18 65.7974Z" fill="white"/>
<path d="M390.34 75.2285C390.092 75.2285 389.844 75.2285 389.595 75.2285C386.864 74.7319 385.126 72.2488 385.622 69.7657C386.119 67.2826 388.602 65.2961 391.085 65.5444C393.817 66.0411 395.555 68.5241 395.306 71.0072C394.81 73.242 392.575 75.2285 390.34 75.2285ZM390.34 67.7792C389.844 67.7792 389.347 68.0275 388.85 68.2758C388.354 68.7725 388.105 69.2691 387.857 69.7657C387.857 70.5106 387.857 71.0072 388.354 71.5038C388.85 72.0005 389.347 72.2488 389.844 72.4971C391.085 72.7454 392.327 71.7522 392.575 70.5106C392.823 69.2691 391.83 68.0275 390.589 67.7792H390.34Z" fill="white"/>
<path d="M575.827 115.452C575.579 115.452 575.579 115.452 575.827 115.452L364.765 84.1649C364.02 84.1649 363.523 83.4199 363.772 82.675C363.772 81.9301 364.517 81.4335 365.261 81.6818L576.075 112.969C576.82 112.969 577.317 113.714 577.069 114.459C576.82 114.955 576.324 115.452 575.827 115.452Z" fill="#243762"/>
<path d="M487.926 383.364C487.678 383.364 487.678 383.364 487.926 383.364L375.194 366.727C374.449 366.727 373.953 365.982 374.201 365.238C374.201 364.493 374.946 363.996 375.691 364.244L488.174 380.881C488.919 380.881 489.416 381.626 489.168 382.371C488.919 382.867 488.423 383.364 487.926 383.364Z" fill="white"/>
<path d="M421.131 387.116L372.959 379.915C372.214 379.915 371.717 379.17 371.966 378.425C371.966 377.68 372.711 377.183 373.456 377.432L421.379 384.633C422.124 384.633 422.621 385.378 422.372 386.123C422.372 386.619 421.876 387.116 421.131 387.116Z" fill="white"/>
<path d="M404.991 397.529L371.221 392.563C370.476 392.563 369.98 391.818 370.228 391.073C370.228 390.329 370.973 389.832 371.718 390.08L405.239 395.046C405.984 395.046 406.481 395.791 406.233 396.536C406.233 397.281 405.736 397.529 404.991 397.529Z" fill="white"/>
<path d="M485.939 396.778C485.691 396.778 485.691 396.778 485.939 396.778L436.278 389.329C435.533 389.329 435.036 388.584 435.284 387.839C435.284 387.094 436.029 386.598 436.774 386.846L486.188 394.047C486.933 394.047 487.429 394.792 487.181 395.537C486.932 396.282 486.436 396.778 485.939 396.778Z" fill="white"/>
<path d="M474.02 289.997L361.288 273.36C360.543 273.36 360.047 272.615 360.295 271.87C360.295 271.125 361.04 270.629 361.785 270.877L474.269 287.514C475.014 287.514 475.51 288.259 475.262 289.004C475.262 289.5 474.765 289.997 474.02 289.997Z" fill="white"/>
<path d="M407.474 293.717L359.302 286.516C358.557 286.516 358.06 285.772 358.309 285.027C358.309 284.282 359.054 283.785 359.799 284.033L407.722 291.234C408.467 291.234 408.964 291.979 408.715 292.724C408.715 293.221 407.97 293.717 407.474 293.717Z" fill="white"/>
<path d="M457.136 314.069L359.799 298.923C359.054 298.923 358.557 298.178 358.805 297.433C358.805 296.688 359.55 296.191 360.295 296.44L457.384 311.586C458.129 311.586 458.625 312.331 458.377 313.076C458.377 313.573 457.88 314.069 457.136 314.069Z" fill="white"/>
<path d="M472.034 303.411L422.372 295.962C421.627 295.962 421.13 295.217 421.379 294.472C421.379 293.727 422.124 293.23 422.869 293.479L472.282 300.68C473.027 300.68 473.524 301.425 473.275 302.169C473.275 302.914 472.779 303.411 472.034 303.411Z" fill="white"/>
<path d="M360.544 101.047L519.461 124.636C521.945 125.133 523.931 127.368 523.434 130.099L517.475 171.318C516.978 173.801 514.744 175.788 512.012 175.291L376.187 155.178L357.316 169.58L359.799 152.695L353.343 151.702C350.86 151.205 348.873 148.971 349.37 146.239L355.578 105.02C355.578 102.537 358.061 100.799 360.544 101.047Z" fill="#6D9AE4"/>
<path d="M517.475 172.56C516.73 172.56 516.233 171.815 516.233 171.07L522.441 129.851C522.689 128.857 522.441 128.112 521.696 127.367C521.199 126.622 520.206 126.126 519.461 125.878L420.883 111.227C420.138 111.227 419.641 110.482 419.89 109.738C419.89 108.993 420.634 108.496 421.379 108.744L519.958 123.394C521.448 123.643 522.938 124.388 523.931 125.629C524.924 126.871 525.172 128.609 524.924 130.099L518.716 171.318C518.468 172.063 517.971 172.56 517.475 172.56Z" fill="#243762"/>
<path d="M494.63 134.825C494.381 134.825 494.381 134.825 494.63 134.825L381.898 118.188C381.153 118.188 380.656 117.443 380.904 116.698C380.904 115.954 381.649 115.457 382.394 115.705L494.878 132.342C495.623 132.342 496.12 133.087 495.871 133.832C495.623 134.577 495.126 134.825 494.63 134.825Z" fill="white"/>
<path d="M427.835 138.803L379.911 131.602C379.166 131.602 378.67 130.857 378.918 130.113C378.918 129.368 379.663 128.871 380.408 129.119L428.332 136.32C429.076 136.32 429.573 137.065 429.325 137.81C429.076 138.307 428.58 138.803 427.835 138.803Z" fill="white"/>
<path d="M477.745 158.899C477.497 158.899 477.497 158.899 477.745 158.899L380.408 144.001C379.663 144.001 379.166 143.256 379.415 142.511C379.415 141.766 380.16 141.269 380.905 141.518L477.993 156.665C478.738 156.665 479.235 157.409 478.986 158.154C478.738 158.651 478.241 158.899 477.745 158.899Z" fill="white"/>
<path d="M492.643 148.489C492.395 148.241 492.395 148.489 492.643 148.489L442.981 141.04C442.236 141.04 441.74 140.295 441.988 139.55C441.988 138.805 442.733 138.308 443.478 138.557L492.891 145.758C493.636 145.758 494.133 146.503 493.885 147.248C493.636 147.993 493.14 148.489 492.643 148.489Z" fill="white"/>
<path d="M513.254 214.044L400.521 197.407C399.777 197.407 399.28 196.662 399.528 195.917C399.528 195.172 400.273 194.676 401.018 194.924L513.502 211.561C514.247 211.561 514.743 212.306 514.495 213.051C514.247 213.547 513.75 214.044 513.254 214.044Z" fill="white"/>
<path d="M446.707 218.006C446.458 218.006 446.458 218.006 446.707 218.006L398.535 210.805C397.79 210.805 397.293 210.061 397.542 209.316C397.542 208.571 398.287 208.074 399.031 208.322L446.955 215.523C447.7 215.523 448.197 216.268 447.948 217.013C447.7 217.51 447.203 218.006 446.707 218.006Z" fill="white"/>
<path d="M430.567 228.444C430.318 228.444 430.318 228.444 430.567 228.444L396.797 223.477C396.052 223.477 395.555 222.732 395.803 221.988C395.803 221.243 396.548 220.746 397.293 220.994L430.815 225.96C431.56 225.96 432.056 226.705 431.808 227.45C431.56 227.947 431.063 228.444 430.567 228.444Z" fill="white"/>
<path d="M511.266 227.427L461.605 219.977C460.86 219.977 460.363 219.232 460.611 218.488C460.611 217.743 461.356 217.246 462.101 217.494L511.515 224.695C512.26 224.695 512.756 225.44 512.508 226.185C512.26 226.93 511.763 227.427 511.266 227.427Z" fill="white"/>
<path d="M284.313 515.974L29.5489 544.778C24.5827 545.274 20.1131 541.798 19.6165 536.832L1.2417 373.445C1.2417 373.197 1.49001 372.948 1.73832 372.948L273.388 342.406C273.636 342.406 273.885 342.655 273.885 342.903L292.259 506.29C292.756 511.008 289.28 515.477 284.313 515.974Z" fill="#78D651"/>
<path d="M28.5555 546.019C23.341 546.019 19.1198 542.294 18.3748 537.08L0 373.692C0 372.699 0.496617 371.954 1.48985 371.706L273.139 341.164C274.133 341.164 274.878 341.661 275.126 342.654L293.501 506.041C293.749 508.772 293.004 511.255 291.266 513.49C289.528 515.477 287.293 516.967 284.562 517.215L29.5487 546.019C29.3004 546.019 28.8038 546.019 28.5555 546.019ZM2.48309 374.189L20.8579 536.831C21.3545 541.052 25.0792 544.032 29.3004 543.536L284.313 514.732C286.3 514.483 288.038 513.49 289.528 512C290.769 510.51 291.266 508.524 291.018 506.289L272.643 343.647L2.48309 374.189Z" fill="#243762"/>
<path opacity="0.29" d="M272.394 515.982L41.9641 544.786C36.9979 545.282 113.477 447.449 112.732 442.482L1.24146 373.453C1.24146 373.204 1.48976 372.956 1.73807 372.956L273.388 342.414C273.636 342.414 273.884 342.662 273.884 342.911L181.017 434.785C181.513 439.751 277.361 515.485 272.394 515.982Z" fill="#243762"/>
<path d="M1.73758 372.94L113.973 261.946C120.677 255.242 131.106 254.001 139.052 258.967L272.642 341.902C272.891 342.15 272.891 342.398 272.642 342.398L1.24097 373.189" fill="#78D651"/>
<path d="M1.24123 374.438V372.452L0.99292 372.203L1.24123 371.955L113.228 261.209C120.429 254.257 131.355 252.767 139.797 258.23L273.387 341.165C273.884 341.413 274.132 342.158 274.132 342.903C273.884 343.648 273.387 343.896 272.891 344.145L1.24123 374.438ZM128.375 257.237C123.409 257.237 118.691 259.223 114.967 262.699L4.96586 371.458L269.414 341.661L138.308 260.216C135.328 258.23 131.852 257.237 128.375 257.237Z" fill="#243762"/>
<path opacity="0.29" d="M1.73807 372.956L113.974 261.962C120.678 255.258 131.107 254.016 139.053 258.982L272.643 341.917C272.891 342.166 272.891 342.414 272.643 342.414L1.24146 373.204" fill="#243762"/>
<path d="M126.389 425.334L41.9641 542.784L272.394 516.712L163.884 421.113C152.71 411.181 135.328 413.167 126.389 425.334Z" fill="#78D651"/>
<path d="M39.2327 544.282L125.396 424.597C129.865 418.389 136.57 414.416 144.019 413.671C151.468 412.926 159.166 415.161 164.629 420.127L275.126 517.713L39.2327 544.282ZM146.999 415.906C146.005 415.906 145.26 415.906 144.267 416.154C137.563 416.899 131.355 420.624 127.382 426.087L44.6955 541.302L269.663 515.975L163.139 422.114C158.669 418.141 152.958 415.906 146.999 415.906Z" fill="#243762"/>
<path d="M15.3948 292.499L192.935 272.386C204.606 271.144 215.035 278.097 216.028 288.277L227.45 389.587L178.037 435.028L112.732 442.477L48.1715 402.251L37.2459 304.169L15.3948 292.499Z" fill="white"/>
<path d="M112.483 443.71L47.1782 402.987L36.2527 304.906L19.3677 291L192.935 271.384C198.895 270.639 204.606 272.129 209.324 275.357C214.042 278.585 216.773 283.303 217.518 288.517L228.94 390.324L178.782 436.509L112.483 443.71ZM49.6613 401.498L113.228 441.227L177.54 434.026L226.209 389.33L214.787 288.766C214.29 284.296 211.807 280.323 207.586 277.343C203.364 274.612 198.15 273.37 192.935 273.867L19.3677 293.483L38.2391 303.416L49.6613 401.498Z" fill="#243762"/>
<path opacity="0.29" d="M126.389 415.155L41.9641 542.785L272.394 516.713L163.884 410.933C152.71 401.001 135.328 402.987 126.389 415.155Z" fill="#243762"/>
<path d="M126.389 425.334L41.9641 542.784L272.394 516.712L163.884 421.113C152.71 411.181 135.328 413.167 126.389 425.334Z" fill="#78D651"/>
<path d="M39.2327 544.282L125.396 424.597C129.865 418.389 136.57 414.416 144.019 413.671C151.468 412.926 159.166 415.161 164.629 420.127L275.126 517.713L39.2327 544.282ZM146.999 415.906C146.005 415.906 145.26 415.906 144.267 416.154C137.563 416.899 131.355 420.624 127.382 426.087L44.6955 541.302L269.663 515.975L163.139 422.114C158.669 418.141 152.958 415.906 146.999 415.906Z" fill="#243762"/>
<path opacity="0.35" d="M134.583 451.405L72.5059 537.568L241.852 518.448L162.145 448.177C153.951 440.976 141.039 442.466 134.583 451.405Z" fill="#ECF1F7"/>
<path d="M2.42317 372.189L1.10986 374.297L112.17 443.508L113.483 441.401L2.42317 372.189Z" fill="#243762"/>
<path d="M273 341.862L180.143 434.078L181.893 435.84L274.75 343.624L273 341.862Z" fill="#243762"/>
<path d="M42.2126 349.374L11.174 352.85L6.20781 308.651C5.21458 300.457 11.174 293.008 19.3682 292.263L20.858 292.014C29.0522 291.021 36.5015 296.981 37.2464 305.175L42.2126 349.374Z" fill="#ECF1F7"/>
<path d="M10.1805 354.08L4.96604 308.64C4.46942 304.419 5.71097 300.197 8.44236 296.721C11.1738 293.245 14.8984 291.258 19.1196 290.762L20.6095 290.513C24.8307 290.017 29.052 291.258 32.5283 293.99C36.0046 296.721 37.9911 300.446 38.4877 304.667L43.7022 350.107L10.1805 354.08ZM22.596 292.996C22.0993 292.996 21.6027 292.996 21.1061 292.996L19.6162 293.245C15.8916 293.741 12.6636 295.48 10.4288 298.211C8.19405 300.942 7.20082 304.667 7.44913 308.143L12.4153 351.349L40.9708 348.121L36.0046 305.164C35.508 301.439 33.7698 298.211 31.0384 295.976C28.5554 294.238 25.5757 292.996 22.596 292.996Z" fill="#243762"/>
<path d="M63.3184 326.283C62.5735 326.283 62.0769 325.787 62.0769 325.29C62.0769 324.545 62.5735 324.049 63.0701 323.8L191.694 309.398C192.439 309.398 192.936 309.895 193.184 310.392C193.184 311.137 192.687 311.633 192.191 311.882L63.3184 326.283Z" fill="#243762"/>
<path d="M68.2848 369.979C67.5398 369.979 67.0432 369.482 67.0432 368.986C67.0432 368.241 67.5398 367.744 68.0364 367.496L196.66 353.094C197.405 353.094 197.902 353.59 198.15 354.087C198.15 354.832 197.654 355.329 197.157 355.577L68.2848 369.979Z" fill="#243762"/>
<path d="M65.8018 347.886C65.0569 347.886 64.5603 347.389 64.5603 346.893C64.5603 346.148 65.0569 345.651 65.5535 345.403L121.175 339.195C121.92 339.195 122.416 339.692 122.665 340.189C122.665 340.933 122.168 341.43 121.671 341.678L65.8018 347.886Z" fill="#243762"/>
<path d="M135.825 339.93C135.08 339.93 134.583 339.433 134.583 338.936C134.583 338.191 135.08 337.695 135.576 337.447L194.177 330.742C194.922 330.742 195.419 331.239 195.667 331.735C195.667 332.48 195.17 332.977 194.674 333.225L135.825 339.93Z" fill="#243762"/>
<path d="M71.0162 394.816C70.2713 394.816 69.7747 394.319 69.7747 393.823C69.7747 393.078 70.2713 392.581 70.7679 392.333L126.389 386.125C127.134 386.125 127.631 386.622 127.879 387.118C127.879 387.863 127.382 388.36 126.886 388.608L71.0162 394.816Z" fill="#243762"/>
</g>
<defs>
<clipPath id="clip0_650_34623">
<rect width="594.202" height="554.473" fill="white"/>
</clipPath>
</defs>
</svg>
